<svg width="139" height="41" viewBox="0 0 139 41" fill="none" xmlns="http://www.w3.org/2000/svg">
<path d="M8.09147 33.4734H0.47998V0.573364H33.0773V33.4734H27.6109L6.14755 27.2336C5.99903 27.1892 5.86618 27.1534 5.75965 27.1246C5.67003 27.1008 5.59295 27.0795 5.53342 27.0619H5.50334C5.48878 27.0619 5.47437 27.0649 5.46107 27.0708C5.44778 27.0768 5.43591 27.0855 5.42626 27.0964C5.41623 27.1083 5.4089 27.1223 5.40479 27.1373C5.40068 27.1524 5.39988 27.1681 5.40245 27.1835C5.74872 29.4748 6.67405 31.6397 8.09085 33.4734H8.09147ZM10.7385 17.2427C10.4947 18.2617 9.43317 23.5175 12.4499 26.9623L29.1412 31.8165L10.7385 17.2427ZM19.1045 9.88814C18.2203 11.1866 15.4893 15.7525 17.4752 20.0019L30.8733 30.6114L19.1045 9.88814ZM29.8963 5.78222C28.4444 6.70091 23.7625 10.0987 24.4813 15.2687L32.0201 28.5484L31.1046 14.6414C30.6891 11.6202 30.32 8.89863 30.1019 7.2718C30.0023 6.56116 29.9333 6.0473 29.8963 5.78222Z" fill="#1A4D81"/>
<path d="M44.7407 33.4733V17.0233H53.5065L53.0942 19.7293H47.6284V23.53H52.1918V26.2353H47.6547V30.6151H53.7127V33.4733H44.7407Z" fill="#1A4D81"/>
<path d="M68.5233 33.4733L67.9593 23.9561C67.8822 22.8613 67.834 20.5489 67.834 20.4894C67.8083 20.5809 67.3239 22.7698 67.0682 23.864L64.5935 33.4733H62.1182L59.7951 24.0175C59.5394 23.0744 59.1058 20.673 59.0538 20.3384C59.0538 20.3979 59.003 22.8613 58.9284 24.0175L58.3644 33.4733H55.5068L56.9613 17.0233H60.6881L62.8069 25.781C63.0626 26.9052 63.4198 29.1556 63.4448 29.2772C63.4711 29.1556 63.8534 26.8137 64.1091 25.7515L66.226 17.0233H69.9784L71.3571 33.4733H68.5233Z" fill="#1A4D81"/>
<path d="M74.9078 40.0534V22.2648C74.9421 20.9923 74.8546 19.7194 74.6465 18.4635L77.2854 17.9208C77.4313 18.5328 77.5012 19.1604 77.4934 19.7895C77.892 19.2263 78.4209 18.7678 79.0351 18.4533C79.6492 18.1388 80.3303 17.9776 81.0203 17.9834C81.6814 17.9785 82.3341 18.1308 82.9248 18.4277C83.5563 18.7554 84.1013 19.2278 84.5152 19.8064C85.0225 20.524 85.3923 21.3296 85.6056 22.1821C85.8893 23.3035 86.0254 24.4571 86.0105 25.6137C86.0215 26.7656 85.9053 27.9152 85.6639 29.0416C85.4722 29.9594 85.1291 30.839 84.6487 31.6441C84.2437 32.322 83.6781 32.8897 83.0018 33.2973C82.3197 33.6873 81.5453 33.887 80.7596 33.8757C79.5977 33.8675 78.4805 33.4264 77.6263 32.6387C77.6267 32.6435 77.6267 32.6483 77.6263 32.6531C77.6413 32.8712 77.677 33.454 77.677 34.1464V39.2437L74.9091 40.0584L74.9078 40.0534ZM80.4745 20.7251C79.9178 20.747 79.3741 20.9004 78.888 21.1727C78.4019 21.445 77.9872 21.8285 77.6777 22.2918V29.8932C77.9717 30.276 78.3416 30.5939 78.7642 30.827C79.1868 31.0601 79.653 31.2035 80.1336 31.2481C80.5746 31.2692 81.012 31.1587 81.39 30.9307C81.7681 30.7026 82.0698 30.3672 82.2567 29.9672C82.7098 29.1093 82.9298 27.8021 82.9298 25.9722C83.0056 24.6502 82.8282 23.3259 82.4071 22.0706C82.2733 21.6678 82.0128 21.3191 81.6645 21.0766C81.3161 20.8341 80.8987 20.7108 80.4745 20.7251Z" fill="#1A4D81"/>
<path d="M93.1758 33.7753C92.3622 33.7892 91.5578 33.6007 90.835 33.2268C90.1123 32.853 89.4937 32.3054 89.0348 31.6334C88.0346 30.2322 87.5063 28.2375 87.5063 25.8612C87.5063 21.0377 89.7116 17.9207 93.1244 17.9207C93.9738 17.9087 94.813 18.1056 95.5684 18.4941C96.29 18.8821 96.9078 19.4376 97.3701 20.114C98.3514 21.5134 98.8703 23.5105 98.8703 25.89C98.8703 28.2695 98.3377 30.266 97.3293 31.6553C96.8644 32.3227 96.2423 32.8653 95.5178 33.235C94.7934 33.6048 93.989 33.7904 93.1758 33.7753ZM93.1507 20.3998C92.7382 20.3832 92.3305 20.4944 91.9835 20.7181C91.6365 20.9419 91.367 21.2673 91.2118 21.65C90.7311 22.9268 90.5255 24.2907 90.6083 25.6525C90.6083 27.7744 90.8308 29.2408 91.2883 30.135C91.4515 30.5074 91.7246 30.821 92.0711 31.0338C92.4175 31.2466 92.8206 31.3484 93.2266 31.3257C93.6346 31.3322 94.0349 31.2147 94.3748 30.9888C94.7146 30.7629 94.9778 30.4392 95.1297 30.0605C95.6513 28.7565 95.8781 27.3533 95.794 25.9514C95.794 23.901 95.5609 22.4697 95.0821 21.5754C94.9118 21.211 94.6376 20.905 94.294 20.6958C93.9504 20.4867 93.5527 20.3837 93.1507 20.3998Z" fill="#1A4D81"/>
<path d="M113.454 33.7754H110.822L109.235 26.6145C108.826 24.7709 108.39 22.3751 108.39 22.3751H108.339C108.339 22.3751 108.133 23.9111 107.494 26.7668L105.934 33.7754H103.302L99.7678 18.3833L102.556 17.9208L103.966 25.4464C104.326 27.3822 104.631 29.5335 104.631 29.5335H104.708C104.708 29.5335 104.965 27.505 105.45 25.3543L107.11 18.1683H109.873L111.332 25.1713C111.869 27.6905 112.151 29.5931 112.151 29.5931H112.227C112.227 29.5931 112.534 27.2293 112.866 25.4163L114.197 18.1683H117.113L113.454 33.7754Z" fill="#1A4D81"/>
<path d="M124.24 33.7754C123.399 33.7943 122.566 33.6093 121.812 33.2363C121.058 32.8633 120.405 32.3134 119.91 31.6335C118.863 30.2316 118.31 28.2363 118.31 25.8613C118.31 23.2167 118.789 21.4489 119.913 19.9499C120.346 19.3065 120.935 18.783 121.625 18.4283C122.315 18.0735 123.083 17.8989 123.859 17.9208C124.526 17.9059 125.188 18.0372 125.799 18.3055C126.411 18.5737 126.956 18.9724 127.396 19.4736C128.015 20.1566 128.449 20.9865 128.656 21.8844C128.971 23.2469 129.112 24.6438 129.076 26.0417V26.7267H121.389V26.9673C121.346 27.9841 121.568 28.9945 122.035 29.8989C122.29 30.3391 122.662 30.6999 123.109 30.941C123.557 31.1822 124.063 31.2941 124.571 31.2644C125.179 31.2516 125.779 31.1124 126.331 30.8555C126.883 30.5987 127.376 30.2298 127.778 29.7723L128.872 31.7701C128.249 32.4041 127.512 32.9144 126.699 33.2741C125.922 33.6073 125.085 33.7779 124.24 33.7754ZM123.859 20.3999C122.306 20.3999 121.415 21.8255 121.415 24.3103H126.174C126.22 23.3133 126.002 22.3219 125.541 21.4364C125.381 21.1276 125.14 20.8682 124.843 20.6856C124.547 20.5031 124.207 20.4044 123.859 20.3999Z" fill="#1A4D81"/>
<path d="M137.499 21.274C137.261 21.1443 136.997 21.0711 136.726 21.0603C135.581 21.0603 134.608 22.0956 134.359 23.3464V33.7754H131.618V22.8902C131.664 21.4934 131.513 20.097 131.169 18.7423L133.687 17.9502C134.001 18.7253 134.161 19.5541 134.16 20.3904C135.157 18.7122 136.153 17.9207 137.373 17.9207C137.714 17.9047 138.053 17.9893 138.346 18.1639L137.499 21.274Z" fill="#1A4D81"/>
</svg>
