<svg width="104" height="60" viewBox="0 0 104 60" fill="none" xmlns="http://www.w3.org/2000/svg">
<path d="M13.1056 41.8739C11.5418 40.9866 9.37175 40.4272 7.59577 40.4272C4.07137 40.4272 1.52796 42.7612 1.52796 46.3324C1.52796 49.7411 3.41829 50.4892 6.28962 51.3049C7.27061 51.5859 9.06863 52.0296 9.06863 53.3137C9.06863 54.5509 7.92368 55.0883 6.85038 55.0883C5.2852 55.0883 3.93221 54.2713 2.78726 53.2668L0.82666 56.9552C2.62468 58.2159 4.79471 58.9626 7.01296 58.9626C8.78756 58.9626 10.6311 58.4722 12.0088 57.3052C13.4101 56.1147 13.8303 54.3167 13.8303 52.5655C13.8303 49.7176 11.9386 48.4804 9.48886 47.757L8.32049 47.4071C7.52688 47.1494 6.28962 46.7526 6.28962 45.7262C6.28962 44.7452 7.40977 44.2547 8.2516 44.2547C9.37175 44.2547 10.4437 44.7218 11.2855 45.4217L13.1056 41.8739Z" fill="#005697"/>
<path d="M20.5895 44.768H24.3715V40.8923H12.2332V44.768H16.0138V58.495H20.5895V44.768Z" fill="#005697"/>
<path d="M29.3603 40.8928H24.7847V58.4955H29.3603V40.8928Z" fill="#005697"/>
<path d="M40.0459 44.768V40.8923H29.937V58.495H34.5127V51.5867H39.532V47.7096H34.5127V44.768H40.0459Z" fill="#005697"/>
<path d="M48.583 44.768H52.3651V40.8923H40.2253V44.768H44.0074V58.495H48.583V44.768Z" fill="#005697"/>
<path d="M63.4717 40.893V50.1628C63.4717 52.4499 63.3078 54.9479 60.3648 54.9479C57.4232 54.9479 57.262 52.4499 57.262 50.1628V40.893H52.6836V50.7924C52.6836 53.0562 52.7787 55.2978 54.5285 57.0008C55.9999 58.4502 58.3119 58.9628 60.3648 58.9628C62.4205 58.9628 64.731 58.4502 66.2025 57.0008C67.9537 55.2978 68.046 53.0562 68.046 50.7924V40.893H63.4717Z" fill="#005697"/>
<path d="M68.5283 58.4955H73.1026V47.7101H73.1494L81.5319 58.4955H86.109V40.8928H81.5319V51.6547H81.4851L73.1026 40.8928H68.5283V58.4955Z" fill="#005697"/>
<path d="M94.4614 48.6666V52.2626H98.1966C98.0106 54.2935 96.4923 55.3213 94.5082 55.3213C91.4978 55.3213 89.8623 52.5423 89.8623 49.8115C89.8623 47.1262 91.4247 44.2549 94.438 44.2549C96.2815 44.2549 97.6124 45.375 98.2421 47.0573L102.585 45.2359C101.068 41.9443 98.2669 40.3089 94.6474 40.3089C88.975 40.3089 85.0979 44.0675 85.0979 49.7881C85.0979 55.3213 88.9516 59.08 94.4848 59.08C97.4264 59.08 100.017 58.0287 101.746 55.6244C103.31 53.4296 103.496 51.2362 103.542 48.6666H94.4614Z" fill="#005697"/>
<path d="M11.6357 24.642V20.7663H1.61914V38.369H11.6357V34.4947H6.19618V31.4594H11.3546V27.5836H6.19618V24.642H11.6357Z" fill="#005697"/>
<path d="M16.7177 31.0856H17.1848C18.6797 31.0856 20.9434 30.8762 20.9434 33.0007C20.9434 34.9379 18.6563 34.8676 17.3019 34.8676H16.7177V31.0856ZM19.1923 38.37C22.4149 38.37 25.5659 37.1562 25.5659 33.4664C25.5659 31.0153 24.4926 29.311 21.9713 28.9845V28.9376C23.3945 28.2143 23.9085 26.9302 23.9085 25.3416C23.9085 21.9811 21.8073 20.7659 18.6797 20.7659H12.1421V38.37H19.1923ZM16.7177 24.2683H17.0457C18.2829 24.2683 19.7062 24.362 19.7062 25.9726C19.7062 27.4675 18.4455 27.6783 17.2317 27.6783H16.7177V24.2683Z" fill="#005697"/>
<path d="M34.709 24.642V20.7663H24.6938V38.369H34.709V34.4947H29.2695V31.4594H34.4293V27.5836H29.2695V24.642H34.709Z" fill="#005697"/>
<path d="M44.3204 31.1556C46.8184 30.712 48.1714 28.6108 48.1714 26.1832C48.1714 22.4245 45.5343 20.767 42.0554 20.767H35.2146V38.3698H39.7916V31.5993H39.8385L44.1565 38.3698H49.8537L44.3204 31.1556ZM39.7916 24.268H40.2353C41.7288 24.268 43.4097 24.5491 43.4097 26.4628C43.4097 28.378 41.7288 28.6577 40.2353 28.6577H39.7916V24.268Z" fill="#005697"/>
<path d="M56.9462 24.642H60.7269V20.7663H48.5872V24.642H52.3692V38.369H56.9462V24.642Z" fill="#005697"/>
<path d="M11.7285 4.51595V0.640209H1.61963V18.2429H6.19529V11.3319H11.216V7.45616H6.19529V4.51595H11.7285Z" fill="#005697"/>
<path d="M21.0642 11.0294C23.5621 10.5858 24.9151 8.48464 24.9151 6.05697C24.9151 2.29834 22.278 0.640856 18.7991 0.640856H11.9597V18.2422H16.5354V11.4731H16.5822L20.9016 18.2422H26.5974L21.0642 11.0294ZM16.5354 4.14183H16.9776C18.4726 4.14183 20.1535 4.4229 20.1535 6.33666C20.1535 8.25042 18.4726 8.53149 16.9776 8.53149H16.5354V4.14183Z" fill="#005697"/>
<path d="M29.8605 0.640625H25.2834V18.242H29.8605V0.640625Z" fill="#005697"/>
<path d="M40.5503 4.51595V0.640209H30.5352V18.2429H40.5503V14.3672H35.1108V11.3319H40.2707V7.45616H35.1108V4.51595H40.5503Z" fill="#005697"/>
<path d="M41.0557 18.2427H47.5465C52.4266 18.2427 56.487 14.3904 56.487 9.44132C56.487 4.49228 52.45 0.641344 47.5465 0.641344H41.0557V18.2427ZM45.6313 4.5157H46.706C49.6476 4.5157 51.7253 6.2903 51.7253 9.44132C51.7253 12.8734 49.3913 14.3669 46.6592 14.3669H45.6313V4.5157Z" fill="#005697"/>
<path d="M64.707 11.0294C67.205 10.5858 68.5579 8.48464 68.5579 6.05697C68.5579 2.29834 65.9208 0.640856 62.4419 0.640856H55.6025V18.2422H60.1782V11.4731H60.225L64.5431 18.2422H70.2402L64.707 11.0294ZM60.1782 4.14183H60.6218C62.1154 4.14183 63.7963 4.4229 63.7963 6.33666C63.7963 8.25042 62.1154 8.53149 60.6218 8.53149H60.1782V4.14183Z" fill="#005697"/>
<path d="M73.5023 0.640625H68.928V18.242H73.5023V0.640625Z" fill="#005697"/>
<path d="M86.2954 1.06065C84.9397 0.499887 83.5853 0.173349 82.1166 0.173349C79.6407 0.173349 77.1413 1.24665 75.4136 3.02125C73.7341 4.74901 72.8247 7.06095 72.8247 9.46658C72.8247 12.0789 73.7106 14.3674 75.6478 16.1186C77.4706 17.7761 79.8032 18.7102 82.253 18.7102C83.679 18.7102 84.7757 18.3602 86.2954 17.8918V12.4068C85.3365 13.5504 83.8429 14.2751 82.348 14.2751C79.5001 14.2751 77.5864 12.2663 77.5864 9.48862C77.5864 6.75645 79.4767 4.60985 82.2778 4.60985C83.8429 4.60985 85.3599 5.28635 86.2954 6.54703V1.06065Z" fill="#005697"/>
<path d="M91.379 7.43363V0.6411H86.8047V18.2424H91.379V11.0297H97.9869V18.2424H102.563V0.6411H97.9869V7.43363H91.379Z" fill="#005697"/>
<path d="M59.4724 29.0981H80.3791M60.8171 24.2276H79.0371H60.8171ZM64.0908 20.5337H75.7607H64.0908ZM62.3272 22.1292H77.607H62.3272ZM59.8913 26.4954H80.0415H59.8913ZM61.8216 35.8148H78.0258H61.8216ZM59.9767 32.4558H79.8734H59.9767Z" stroke="#005697" stroke-width="1.59368"/>
<path d="M65.6004 24.2276L69.884 19.8614L74.2502 24.2276H65.6004ZM69.884 39.6754V19.8614V39.6754ZM59.4734 29.2648C59.4734 23.5552 64.1744 18.8556 69.884 18.8556C75.6763 18.8556 80.4627 23.5552 80.4627 29.2648C80.4627 35.0584 75.6763 39.7609 69.884 39.7609C64.1744 39.7609 59.4734 35.0584 59.4734 29.2648Z" stroke="#005697" stroke-width="1.59368"/>
</svg>
