<svg width="105" height="44" viewBox="0 0 105 44" fill="none" xmlns="http://www.w3.org/2000/svg">
<path d="M55.4529 12.3436V7.80396C55.4529 6.21774 55.0697 4.64905 53.0332 4.64905C51.0972 4.64905 50.7129 6.33454 50.7129 7.80396V12.3436H50.2959V7.80396C50.2959 6.21774 49.9122 4.64905 47.8757 4.64905C46.8244 4.64905 45.6056 5.45033 45.6056 6.68555V12.343H45.1874V4.3652H45.605V5.65007C46.2217 4.53165 47.2064 4.23088 47.9236 4.23088C49.0764 4.23088 49.8771 4.64845 50.512 6.11728C51.1124 4.78161 51.9136 4.23088 53.0321 4.23088C55.1848 4.23088 55.8693 5.76688 55.8693 7.80339V12.343H55.4523L55.4529 12.3436ZM63.1638 7.92077C62.4454 8.30448 62.2293 8.32141 61.7446 8.32141H60.2764C59.1901 8.32141 58.0722 8.87215 58.0722 10.174C58.0722 11.526 59.2742 12.0936 60.4259 12.0936C61.5443 12.0936 62.3286 11.7094 63.1632 10.8748V7.91959L63.1638 7.92077ZM63.4646 12.4277L63.2134 11.3765C62.2457 12.2116 61.4789 12.5112 60.4265 12.5112C58.8572 12.5112 57.6231 11.7269 57.6231 10.1751C57.6231 8.72263 58.8408 7.92077 60.2764 7.92077H61.5274C62.0285 7.92077 62.6627 7.92077 63.1626 7.38697V6.435C63.1626 5.26694 61.9111 4.61575 60.9433 4.61575C59.9914 4.61575 58.9238 4.96617 58.5062 5.96778L58.1049 5.83463C58.623 4.66657 59.6234 4.19933 60.993 4.19933C62.2778 4.19933 63.5966 5.08356 63.5966 6.38536V11.1423L63.8302 12.3278L63.4634 12.4271L63.4646 12.4277ZM70.0734 4.899C69.723 4.78219 69.3224 4.68291 68.9387 4.68291C67.5867 4.68291 66.2685 5.66759 66.2685 6.96939V12.3442H65.8176V4.3652H66.2685V5.8679C67.1364 4.548 68.1374 4.26474 68.9392 4.26474C69.4065 4.26474 69.8737 4.33133 70.3082 4.48201L70.0746 4.899H70.0734ZM72.343 4.3652H72.7927V12.343H72.343V4.3652ZM72.5766 1.77795C72.2758 1.77795 72.0422 1.52799 72.0422 1.22722C72.0422 0.927029 72.2758 0.693417 72.576 0.693417C72.8756 0.693417 73.1262 0.927025 73.1262 1.22663C73.1262 1.5274 72.875 1.77795 72.5754 1.77795H72.5766ZM83.5587 12.3436H82.991L80.3372 4.79914L77.6997 12.343H77.1157L74.6627 4.3652H75.1124L77.4158 11.8758L80.0533 4.3652H80.6373L83.2748 11.8933L85.6109 4.3652H86.0455L83.5587 12.343V12.3436ZM92.7548 7.92077C92.0364 8.30448 91.8203 8.32141 91.3356 8.32141H89.8668C88.7816 8.32141 87.6632 8.87215 87.6632 10.174C87.6632 11.526 88.8651 12.0936 90.0168 12.0936C91.1353 12.0936 91.9196 11.7094 92.7542 10.8748V7.91959L92.7548 7.92077ZM93.055 12.4277L92.8038 11.3765C91.8361 12.2116 91.0693 12.5112 90.0168 12.5112C88.4476 12.5112 87.2135 11.7269 87.2135 10.1751C87.2135 8.72263 88.4312 7.92077 89.8668 7.92077H91.1183C91.6194 7.92077 92.2537 7.92077 92.7536 7.38697V6.435C92.7536 5.26694 91.502 4.61575 90.5343 4.61575C89.5823 4.61575 88.5147 4.96617 88.0971 5.96778L87.6965 5.83463C88.2139 4.66657 89.215 4.19933 90.5839 4.19933C91.8688 4.19933 93.1875 5.08356 93.1875 6.38536V11.1423L93.4211 12.3278L93.0544 12.4271L93.055 12.4277ZM95.4074 10.6248V0.693417H95.8414V10.6242C95.8414 11.175 96.075 11.8098 97.0094 11.9091V12.3267C95.8747 12.2426 95.4074 11.575 95.4074 10.6236V10.6248ZM103.886 7.92077C103.168 8.30448 102.952 8.32141 102.467 8.32141H100.999C99.9138 8.32141 98.7954 8.87215 98.7954 10.174C98.7954 11.526 99.9973 12.0936 101.149 12.0936C102.267 12.0936 103.052 11.7094 103.886 10.8748V7.91959V7.92077ZM104.187 12.4277L103.936 11.3765C102.968 12.2116 102.201 12.5112 101.149 12.5112C99.5797 12.5112 98.3457 11.7269 98.3457 10.1751C98.3457 8.72263 99.5634 7.92077 100.999 7.92077H102.25C102.751 7.92077 103.385 7.92077 103.886 7.38697V6.435C103.886 5.26694 102.634 4.61575 101.666 4.61575C100.715 4.61575 99.6457 4.96617 99.2287 5.96778L98.8281 5.83463C99.3461 4.66657 100.347 4.19933 101.716 4.19933C103.001 4.19933 104.32 5.08356 104.32 6.38536V11.1423L104.553 12.3278L104.187 12.4271L104.187 12.4277ZM51.4143 27.8064H50.9973V23.2159C50.9973 21.4136 50.3969 20.0948 48.2273 20.0948C47.0592 20.0948 45.6225 20.9621 45.6225 22.2476V27.8058H45.1892V16.1544H45.6231V21.1625C46.3239 20.044 47.3255 19.6773 48.2279 19.6773C50.5301 19.6773 51.4149 21.0626 51.4149 23.2165V27.8058L51.4143 27.8064ZM56.5876 20.1118C54.6019 20.1118 53.7668 21.3966 53.6325 23.3835H59.1912C59.1585 21.5964 58.5412 20.1118 56.5882 20.1118H56.5876ZM59.6263 23.8005H53.6342C53.6506 26.0198 54.4016 27.5395 56.7552 27.5395C57.706 27.5395 58.4238 27.3234 58.9909 26.6879L59.325 26.9554C58.6907 27.6563 57.8894 27.957 56.7552 27.957C54.1172 27.957 53.1658 26.2552 53.1658 23.818C53.1658 21.4977 54.0506 19.6948 56.5882 19.6948C58.741 19.6948 59.6252 21.2974 59.6252 23.3006V23.8011L59.6263 23.8005ZM66.6685 23.3835C65.9502 23.7666 65.7341 23.7836 65.2494 23.7836H63.7811C62.696 23.7836 61.5776 24.3343 61.5776 25.6361C61.5776 26.9881 62.7795 27.5558 63.9312 27.5558C65.0496 27.5558 65.834 27.1721 66.6685 26.3375V23.3823V23.3835ZM66.9693 27.8899L66.7182 26.8386C65.7499 27.6726 64.9825 27.9728 63.9306 27.9728C62.3613 27.9728 61.1273 27.1884 61.1273 25.6367C61.1273 24.1842 62.345 23.3823 63.7805 23.3823H65.0321C65.5332 23.3823 66.1675 23.3823 66.6674 22.8485V21.8977C66.6674 20.7297 65.4158 20.0779 64.4481 20.0779C63.4961 20.0779 62.4285 20.4283 62.0109 21.4299L61.6103 21.2968C62.1283 20.1287 63.1287 19.6615 64.4983 19.6615C65.7832 19.6615 67.1013 20.5457 67.1013 21.8475V26.6044L67.3349 27.79L66.9682 27.8893L66.9693 27.8899ZM69.3218 26.0876V16.1556H69.7557V26.0876C69.7557 26.6377 69.9893 27.272 70.9238 27.3724V27.7894C69.789 27.7059 69.3218 27.0384 69.3218 26.087V26.0876ZM73.7773 20.2449V26.0706C73.7773 27.0226 74.2948 27.3894 75.0797 27.3894V27.8069C73.8942 27.8069 73.3276 27.2556 73.3276 26.0712V20.2461H72.0077V19.8291H73.3276V17.3587H73.7773V19.8291H75.179V20.2461H73.7773V20.2449ZM83.4249 27.8064H83.0079V23.2159C83.0079 21.4136 82.4064 20.0948 80.2373 20.0948C79.0692 20.0948 77.6337 20.9621 77.6337 22.2476V27.8058H77.1998V16.1544H77.6337V21.1625C78.3345 20.044 79.3361 19.6773 80.2385 19.6773C82.5407 19.6773 83.4255 21.0626 83.4255 23.2165V27.8058L83.4249 27.8064ZM45.4718 35.2901H45.9233V43.2679H45.4724V35.2901H45.4718ZM45.7054 32.7028C45.4052 32.7028 45.1716 32.4529 45.1716 32.1521C45.1716 31.8519 45.4052 31.6183 45.706 31.6183C46.0068 31.6183 46.2573 31.8519 46.2573 32.1521C46.2573 32.4529 46.0062 32.7034 45.7066 32.7034L45.7054 32.7028ZM54.7853 43.2691L54.3683 43.2679V38.7283C54.3683 36.9084 53.7668 35.5734 51.5977 35.5734C50.1113 35.5734 48.9929 36.5913 48.9929 37.8102V43.2685L48.559 43.2673V35.2895H48.9929V36.6585C49.7603 35.4729 50.7123 35.1558 51.5977 35.1558C53.8999 35.1558 54.7847 36.5574 54.7847 38.7277V43.2673L54.7853 43.2691ZM57.2382 35.2901H57.6891V43.2679H57.2377V35.2901H57.2382ZM57.4719 32.7028C57.1717 32.7028 56.9381 32.4529 56.9381 32.1521C56.9381 31.8519 57.1717 31.6183 57.4719 31.6183C57.7726 31.6183 58.0226 31.8519 58.0226 32.1521C58.0226 32.4529 57.7726 32.7034 57.4719 32.7034V32.7028ZM61.4275 35.7077V41.5334C61.4275 42.4853 61.9449 42.8515 62.7299 42.8515V43.2691C61.5443 43.2691 60.9778 42.7172 60.9778 41.5328V35.7071H59.6579V35.2901H60.9778V32.8197H61.4275V35.2901H62.8291V35.7071H61.4275V35.7077ZM65.1325 35.2901H65.5834V43.2679H65.1325V35.2901ZM65.3662 32.7028C65.0654 32.7028 64.8324 32.4529 64.8324 32.1521C64.8324 31.8519 65.066 31.6183 65.3662 31.6183C65.6664 31.6183 65.9169 31.8519 65.9169 32.1521C65.9169 32.4529 65.6658 32.7034 65.3662 32.7034V32.7028ZM73.3446 38.8457C72.6262 39.2294 72.4101 39.2463 71.9254 39.2463H70.4571C69.3726 39.2463 68.2542 39.7976 68.2542 41.0994C68.2542 42.4515 69.4561 43.0191 70.6078 43.0191C71.7262 43.0191 72.5106 42.6354 73.3452 41.8008V38.8457H73.3446ZM73.6454 43.3526L73.3942 42.3014C72.4265 43.1354 71.6597 43.4355 70.6072 43.4355C69.038 43.4355 67.8039 42.6512 67.8039 41.0994C67.8039 39.647 69.0216 38.8451 70.4571 38.8451H71.7093C72.2104 38.8451 72.8446 38.8451 73.3446 38.3113V37.3605C73.3446 36.1924 72.093 35.5406 71.1253 35.5406C70.1733 35.5406 69.1057 35.8911 68.6881 36.8927L68.2881 36.7601C68.8061 35.592 69.8065 35.1248 71.1761 35.1248C72.461 35.1248 73.7797 36.009 73.7797 37.3108V42.0666L74.0133 43.2522L73.6465 43.3526H73.6454ZM77.0987 35.7077V41.5334C77.0987 42.4853 77.6162 42.8515 78.4011 42.8515V43.2691C77.2155 43.2691 76.649 42.7172 76.649 41.5328V35.7071H75.3291L75.3303 35.2901H76.649V32.8197H77.0987V35.2901H78.5004L78.5016 35.7071H77.0999L77.0987 35.7077ZM80.8038 35.2901H81.2547V43.2679H80.8032V35.2901H80.8038ZM81.0374 32.7028C80.7372 32.7028 80.5036 32.4529 80.5036 32.1521C80.5036 31.8519 80.7372 31.6183 81.038 31.6183C81.3382 31.6183 81.5882 31.8519 81.5882 32.1521C81.5882 32.4529 81.3382 32.7034 81.038 32.7034L81.0374 32.7028ZM86.7626 43.2691L86.1447 43.2679L83.1574 35.2901H83.6071L86.4619 42.8679L89.3166 35.2901H89.7838L86.7626 43.2679V43.2691ZM94.0396 35.5739C92.0539 35.5739 91.2188 36.8588 91.0844 38.8457H96.6432C96.6099 37.0585 95.9926 35.5739 94.0396 35.5739ZM97.0766 39.2627H91.0844C91.102 41.482 91.853 43.0004 94.2067 43.0004C95.1586 43.0004 95.8758 42.7844 96.4435 42.1495L96.7764 42.417C96.1427 43.1178 95.3414 43.4192 94.2067 43.4192C91.5692 43.4192 90.6178 41.7168 90.6178 39.2796C90.6178 36.9593 91.5032 35.1564 94.0402 35.1564C96.1935 35.1564 97.0772 36.7589 97.0772 38.7621V39.2627H97.0766Z" fill="#2B2B2A"/>
<path d="M17.9191 6.01565V41.4685M33.1605 41.2489V6.01447L17.9173 41.2489L2.67651 6.01447V41.2489H33.1605ZM2.67768 23.6872H33.1599H2.67768Z" stroke="#2B2B2A" stroke-width="0.86625" stroke-miterlimit="10"/>
<path d="M4.55477 6.01566C4.55477 7.0529 3.71493 7.89331 2.6777 7.89331C1.64105 7.89331 0.800049 7.05231 0.800049 6.01566C0.800049 4.97843 1.64105 4.13801 2.67829 4.13801C3.71552 4.13801 4.55594 4.97901 4.55594 6.01566" fill="white"/>
<path d="M4.55477 6.01566C4.55477 7.0529 3.71493 7.89331 2.6777 7.89331C1.64105 7.89331 0.800049 7.05231 0.800049 6.01566C0.800049 4.97843 1.64105 4.13801 2.67829 4.13801C3.71552 4.13801 4.55594 4.97901 4.55594 6.01566H4.55477Z" stroke="#2B2B2A" stroke-width="0.86625" stroke-miterlimit="10"/>
<path d="M19.7735 6.01571C19.7735 7.0401 18.943 7.87 17.9192 7.87C16.8948 7.87 16.0649 7.04068 16.0649 6.01571C16.0649 4.99133 16.8943 4.16141 17.9192 4.16141C18.943 4.16141 19.7735 4.99074 19.7735 6.01571Z" fill="white"/>
<path d="M19.7735 6.01571C19.7735 7.0401 18.943 7.87 17.9192 7.87C16.8948 7.87 16.0649 7.04068 16.0649 6.01571C16.0649 4.99133 16.8943 4.16141 17.9192 4.16141C18.943 4.16141 19.7735 4.99074 19.7735 6.01571Z" stroke="#2B2B2A" stroke-width="0.86625" stroke-miterlimit="10"/>
<path d="M35.0143 6.01571C35.0143 7.0401 34.1838 7.87 33.16 7.87C32.1351 7.87 31.3052 7.04068 31.3052 6.01571C31.3052 4.99133 32.1345 4.16141 33.1595 4.16141C34.1827 4.16141 35.0132 4.99074 35.0132 6.01571" fill="white"/>
<path d="M35.0143 6.01571C35.0143 7.0401 34.1838 7.87 33.16 7.87C32.1351 7.87 31.3052 7.04068 31.3052 6.01571C31.3052 4.99133 32.1345 4.16141 33.1595 4.16141C34.1827 4.16141 35.0132 4.99074 35.0132 6.01571H35.0143Z" stroke="#2B2B2A" stroke-width="0.86625" stroke-miterlimit="10"/>
<path d="M4.53148 23.6323C4.53148 24.6567 3.70217 25.4866 2.67778 25.4866C1.65339 25.4877 0.823486 24.6572 0.823486 23.6334C0.823486 22.6091 1.65398 21.7792 2.67837 21.7792C3.70217 21.7792 4.53266 22.6085 4.53266 23.6329" fill="white"/>
<path d="M4.53148 23.6323C4.53148 24.6567 3.70217 25.4866 2.67778 25.4866C1.65339 25.4877 0.823486 24.6572 0.823486 23.6334C0.823486 22.6091 1.65398 21.7792 2.67837 21.7792C3.70217 21.7792 4.53266 22.6085 4.53266 23.6329L4.53148 23.6323Z" stroke="#2B2B2A" stroke-width="0.86625" stroke-miterlimit="10"/>
<path d="M19.7735 23.6323C19.7735 24.6567 18.943 25.4866 17.9192 25.4866C16.8948 25.4877 16.0649 24.6572 16.0649 23.6334C16.0649 22.6091 16.8943 21.7792 17.9192 21.7792C18.943 21.7792 19.7735 22.6085 19.7735 23.6329" fill="white"/>
<path d="M19.7735 23.6323C19.7735 24.6567 18.943 25.4866 17.9192 25.4866C16.8948 25.4877 16.0649 24.6572 16.0649 23.6334C16.0649 22.6091 16.8943 21.7792 17.9192 21.7792C18.943 21.7792 19.7735 22.6085 19.7735 23.6329V23.6323Z" stroke="#2B2B2A" stroke-width="0.86625" stroke-miterlimit="10"/>
<path d="M35.0143 23.6323C35.0143 24.6567 34.1838 25.4866 33.16 25.4866C32.1351 25.4877 31.3052 24.6572 31.3052 23.6334C31.3052 22.6091 32.1345 21.7792 33.1595 21.7792C34.1827 21.7792 35.0132 22.6085 35.0132 23.6329" fill="white"/>
<path d="M35.0143 23.6323C35.0143 24.6567 34.1838 25.4866 33.16 25.4866C32.1351 25.4877 31.3052 24.6572 31.3052 23.6334C31.3052 22.6091 32.1345 21.7792 33.1595 21.7792C34.1827 21.7792 35.0132 22.6085 35.0132 23.6329L35.0143 23.6323Z" stroke="#2B2B2A" stroke-width="0.86625" stroke-miterlimit="10"/>
<path d="M4.53148 41.2489C4.53148 42.2739 3.70217 43.1038 2.67778 43.1038C1.65339 43.1038 0.823486 42.2744 0.823486 41.2495C0.823486 40.2257 1.65398 39.3958 2.67837 39.3958C3.70217 39.3958 4.53266 40.2251 4.53266 41.25" fill="white"/>
<path d="M4.53148 41.2489C4.53148 42.2739 3.70217 43.1038 2.67778 43.1038C1.65339 43.1038 0.823486 42.2744 0.823486 41.2495C0.823486 40.2257 1.65398 39.3958 2.67837 39.3958C3.70217 39.3958 4.53266 40.2251 4.53266 41.25L4.53148 41.2489Z" stroke="#2B2B2A" stroke-width="0.86625" stroke-miterlimit="10"/>
<path d="M19.7735 41.2489C19.7735 42.2739 18.943 43.1038 17.9192 43.1038C16.8948 43.1038 16.0649 42.2744 16.0649 41.2495C16.0649 40.2257 16.8943 39.3958 17.9192 39.3958C18.943 39.3958 19.7735 40.2251 19.7735 41.25" fill="white"/>
<path d="M19.7735 41.2489C19.7735 42.2739 18.943 43.1038 17.9192 43.1038C16.8948 43.1038 16.0649 42.2744 16.0649 41.2495C16.0649 40.2257 16.8943 39.3958 17.9192 39.3958C18.943 39.3958 19.7735 40.2251 19.7735 41.25V41.2489Z" stroke="#2B2B2A" stroke-width="0.86625" stroke-miterlimit="10"/>
<path d="M35.0143 41.2489C35.0143 42.2739 34.1838 43.1038 33.16 43.1038C32.1351 43.1038 31.3052 42.2744 31.3052 41.2495C31.3052 40.2257 32.1345 39.3958 33.1595 39.3958C34.1827 39.3958 35.0132 40.2251 35.0132 41.25" fill="white"/>
<path d="M35.0143 41.2489C35.0143 42.2739 34.1838 43.1038 33.16 43.1038C32.1351 43.1038 31.3052 42.2744 31.3052 41.2495C31.3052 40.2257 32.1345 39.3958 33.1595 39.3958C34.1827 39.3958 35.0132 40.2251 35.0132 41.25L35.0143 41.2489Z" stroke="#2B2B2A" stroke-width="0.86625" stroke-miterlimit="10"/>
</svg>
