<svg width="500" height="500" viewBox="0 0 500 500" fill="none" xmlns="http://www.w3.org/2000/svg">
<path d="M93.43 75.62L94.01 75.15C147.42 31.9 218.35 30 270 76.5C296.93 100.77 344.75 96.12 379 104.9C497 135.16 476.57 279.11 418.3 348.7C365.71 411.49 251.77 425.7 175.21 394.78C107.94 367.64 60.58 307 43.72 243.56C42.0334 237.2 40.6534 230.783 39.58 224.31C30.71 170.32 47.74 113 93.43 75.62Z" fill="#087E68"/>
<path opacity="0.7" d="M93.43 75.62L94.01 75.15C147.42 31.9 218.35 30 270 76.5C296.93 100.77 344.75 96.12 379 104.9C497 135.16 476.57 279.11 418.3 348.7C365.71 411.49 251.77 425.7 175.21 394.78C107.94 367.64 60.58 307 43.72 243.56C42.0334 237.2 40.6534 230.783 39.58 224.31C30.71 170.32 47.74 113 93.43 75.62Z" fill="white"/>
<path d="M332.9 96.04H302.48V119.03" stroke="#263238" stroke-width="1.05369" stroke-linecap="round" stroke-linejoin="round"/>
<path d="M422.63 184.52V96.04H339.18" stroke="#263238" stroke-width="1.05369" stroke-linecap="round" stroke-linejoin="round"/>
<path d="M412.63 273H422.63V202.31" stroke="#263238" stroke-width="1.05369" stroke-linecap="round" stroke-linejoin="round"/>
<path d="M390.47 273H404.2" stroke="#263238" stroke-width="1.05369" stroke-linecap="round" stroke-linejoin="round"/>
<path d="M302.48 137.79V273H384.81" stroke="#263238" stroke-width="1.05369" stroke-linecap="round" stroke-linejoin="round"/>
<path d="M402.39 155.19H415.07V147.93" stroke="#263238" stroke-width="1.05369" stroke-linecap="round" stroke-linejoin="round"/>
<path d="M364.99 130.16V155.19H399.77" stroke="#263238" stroke-width="1.05369" stroke-linecap="round" stroke-linejoin="round"/>
<path d="M369.16 105.12H364.99V125.33" stroke="#263238" stroke-width="1.05369" stroke-linecap="round" stroke-linejoin="round"/>
<path d="M378.4 105.12H372.67" stroke="#263238" stroke-width="1.05369" stroke-linecap="round" stroke-linejoin="round"/>
<path d="M415.07 142.84V105.12H380.75" stroke="#263238" stroke-width="1.05369" stroke-linecap="round" stroke-linejoin="round"/>
<path d="M402.39 263.92H415.07V256.65" stroke="#263238" stroke-width="1.05369" stroke-linecap="round" stroke-linejoin="round"/>
<path d="M364.99 238.88V263.92H399.77" stroke="#263238" stroke-width="1.05369" stroke-linecap="round" stroke-linejoin="round"/>
<path d="M369.16 213.84H364.99V234.06" stroke="#263238" stroke-width="1.05369" stroke-linecap="round" stroke-linejoin="round"/>
<path d="M378.4 213.84H372.67" stroke="#263238" stroke-width="1.05369" stroke-linecap="round" stroke-linejoin="round"/>
<path d="M415.07 251.56V213.84H380.75" stroke="#263238" stroke-width="1.05369" stroke-linecap="round" stroke-linejoin="round"/>
<path d="M347.43 209.45H360.11V202.18" stroke="#263238" stroke-width="1.05369" stroke-linecap="round" stroke-linejoin="round"/>
<path d="M310.04 184.41V209.45H344.81" stroke="#263238" stroke-width="1.05369" stroke-linecap="round" stroke-linejoin="round"/>
<path d="M314.2 159.37H310.04V179.58" stroke="#263238" stroke-width="1.05369" stroke-linecap="round" stroke-linejoin="round"/>
<path d="M323.44 159.37H317.71" stroke="#263238" stroke-width="1.05369" stroke-linecap="round" stroke-linejoin="round"/>
<path d="M360.11 197.09V159.37H325.8" stroke="#263238" stroke-width="1.05369" stroke-linecap="round" stroke-linejoin="round"/>
<path d="M347.43 263.71H360.11V256.44" stroke="#263238" stroke-width="1.05369" stroke-linecap="round" stroke-linejoin="round"/>
<path d="M310.04 238.67V263.71H344.81" stroke="#263238" stroke-width="1.05369" stroke-linecap="round" stroke-linejoin="round"/>
<path d="M314.2 213.63H310.04V233.84" stroke="#263238" stroke-width="1.05369" stroke-linecap="round" stroke-linejoin="round"/>
<path d="M323.44 213.63H317.71" stroke="#263238" stroke-width="1.05369" stroke-linecap="round" stroke-linejoin="round"/>
<path d="M360.11 251.35V213.63H325.8" stroke="#263238" stroke-width="1.05369" stroke-linecap="round" stroke-linejoin="round"/>
<path d="M364.99 196.88V209.56H372.48" stroke="#263238" stroke-width="1.05369" stroke-linecap="round" stroke-linejoin="round"/>
<path d="M390.26 159.48H364.99V194.26" stroke="#263238" stroke-width="1.05369" stroke-linecap="round" stroke-linejoin="round"/>
<path d="M415.07 163.65V159.48H395.08" stroke="#263238" stroke-width="1.05369" stroke-linecap="round" stroke-linejoin="round"/>
<path d="M415.07 172.88V167.16" stroke="#263238" stroke-width="1.05369" stroke-linecap="round" stroke-linejoin="round"/>
<path d="M377.58 209.56H415.07V175.24" stroke="#263238" stroke-width="1.05369" stroke-linecap="round" stroke-linejoin="round"/>
<path d="M310.04 142.52V155.19H317.52" stroke="#263238" stroke-width="1.05369" stroke-linecap="round" stroke-linejoin="round"/>
<path d="M335.3 105.12H310.04V139.9" stroke="#263238" stroke-width="1.05369" stroke-linecap="round" stroke-linejoin="round"/>
<path d="M360.11 109.28V105.12H340.13" stroke="#263238" stroke-width="1.05369" stroke-linecap="round" stroke-linejoin="round"/>
<path d="M360.11 118.52V112.8" stroke="#263238" stroke-width="1.05369" stroke-linecap="round" stroke-linejoin="round"/>
<path d="M322.62 155.19H360.11V120.88" stroke="#263238" stroke-width="1.05369" stroke-linecap="round" stroke-linejoin="round"/>
<path d="M111.63 96.04H81.21V119.03" stroke="#263238" stroke-width="1.05369" stroke-linecap="round" stroke-linejoin="round"/>
<path d="M201.35 184.52V96.04H117.91" stroke="#263238" stroke-width="1.05369" stroke-linecap="round" stroke-linejoin="round"/>
<path d="M191.35 273H201.35V202.31" stroke="#263238" stroke-width="1.05369" stroke-linecap="round" stroke-linejoin="round"/>
<path d="M169.2 273H182.92" stroke="#263238" stroke-width="1.05369" stroke-linecap="round" stroke-linejoin="round"/>
<path d="M81.21 137.79V273H163.54" stroke="#263238" stroke-width="1.05369" stroke-linecap="round" stroke-linejoin="round"/>
<path d="M181.12 155.19H193.8V147.93" stroke="#263238" stroke-width="1.05369" stroke-linecap="round" stroke-linejoin="round"/>
<path d="M143.72 130.16V155.19H178.5" stroke="#263238" stroke-width="1.05369" stroke-linecap="round" stroke-linejoin="round"/>
<path d="M147.89 105.12H143.72V125.33" stroke="#263238" stroke-width="1.05369" stroke-linecap="round" stroke-linejoin="round"/>
<path d="M157.12 105.12H151.4" stroke="#263238" stroke-width="1.05369" stroke-linecap="round" stroke-linejoin="round"/>
<path d="M193.799 142.84V105.12H159.479" stroke="#263238" stroke-width="1.05369" stroke-linecap="round" stroke-linejoin="round"/>
<path d="M181.12 263.92H193.8V256.65" stroke="#263238" stroke-width="1.05369" stroke-linecap="round" stroke-linejoin="round"/>
<path d="M143.72 238.88V263.92H178.5" stroke="#263238" stroke-width="1.05369" stroke-linecap="round" stroke-linejoin="round"/>
<path d="M147.89 213.84H143.72V234.06" stroke="#263238" stroke-width="1.05369" stroke-linecap="round" stroke-linejoin="round"/>
<path d="M157.12 213.84H151.4" stroke="#263238" stroke-width="1.05369" stroke-linecap="round" stroke-linejoin="round"/>
<path d="M193.799 251.56V213.84H159.479" stroke="#263238" stroke-width="1.05369" stroke-linecap="round" stroke-linejoin="round"/>
<path d="M126.16 209.45H138.84V202.18" stroke="#263238" stroke-width="1.05369" stroke-linecap="round" stroke-linejoin="round"/>
<path d="M88.7598 184.41V209.45H123.54" stroke="#263238" stroke-width="1.05369" stroke-linecap="round" stroke-linejoin="round"/>
<path d="M92.9298 159.37H88.7598V179.58" stroke="#263238" stroke-width="1.05369" stroke-linecap="round" stroke-linejoin="round"/>
<path d="M102.16 159.37H96.4404" stroke="#263238" stroke-width="1.05369" stroke-linecap="round" stroke-linejoin="round"/>
<path d="M138.84 197.09V159.37H104.52" stroke="#263238" stroke-width="1.05369" stroke-linecap="round" stroke-linejoin="round"/>
<path d="M126.16 263.71H138.84V256.44" stroke="#263238" stroke-width="1.05369" stroke-linecap="round" stroke-linejoin="round"/>
<path d="M88.7598 238.67V263.71H123.54" stroke="#263238" stroke-width="1.05369" stroke-linecap="round" stroke-linejoin="round"/>
<path d="M92.9298 213.63H88.7598V233.84" stroke="#263238" stroke-width="1.05369" stroke-linecap="round" stroke-linejoin="round"/>
<path d="M102.16 213.63H96.4404" stroke="#263238" stroke-width="1.05369" stroke-linecap="round" stroke-linejoin="round"/>
<path d="M138.84 251.35V213.63H104.52" stroke="#263238" stroke-width="1.05369" stroke-linecap="round" stroke-linejoin="round"/>
<path d="M143.72 196.88V209.56H151.21" stroke="#263238" stroke-width="1.05369" stroke-linecap="round" stroke-linejoin="round"/>
<path d="M168.98 159.48H143.72V194.26" stroke="#263238" stroke-width="1.05369" stroke-linecap="round" stroke-linejoin="round"/>
<path d="M193.8 163.65V159.48H173.81" stroke="#263238" stroke-width="1.05369" stroke-linecap="round" stroke-linejoin="round"/>
<path d="M193.8 172.88V167.16" stroke="#263238" stroke-width="1.05369" stroke-linecap="round" stroke-linejoin="round"/>
<path d="M156.3 209.56H193.8V175.24" stroke="#263238" stroke-width="1.05369" stroke-linecap="round" stroke-linejoin="round"/>
<path d="M88.7598 142.52V155.19H96.2498" stroke="#263238" stroke-width="1.05369" stroke-linecap="round" stroke-linejoin="round"/>
<path d="M114.02 105.12H88.7598V139.9" stroke="#263238" stroke-width="1.05369" stroke-linecap="round" stroke-linejoin="round"/>
<path d="M138.84 109.28V105.12H118.85" stroke="#263238" stroke-width="1.05369" stroke-linecap="round" stroke-linejoin="round"/>
<path d="M138.84 118.52V112.8" stroke="#263238" stroke-width="1.05369" stroke-linecap="round" stroke-linejoin="round"/>
<path d="M101.34 155.19H138.84V120.88" stroke="#263238" stroke-width="1.05369" stroke-linecap="round" stroke-linejoin="round"/>
<path d="M450.11 355.01H48.7695V415.53H450.11V355.01Z" fill="white"/>
<path d="M450.109 355.01V399.77" stroke="#263238" stroke-width="1.05369" stroke-linecap="round" stroke-linejoin="round"/>
<path opacity="0.4" d="M450.11 370.89V355H48.7695C48.7656 364.633 51.992 373.989 57.9327 381.573C63.8735 389.156 72.1855 394.528 81.5395 396.83C101.79 401.83 130.79 406.34 166.79 405.15C216.79 403.5 298.89 363.61 359.09 374.31C420.72 385.27 450.11 370.89 450.11 370.89Z" fill="#087E68"/>
<path d="M48.7693 336.74H443.579L454.109 351.06V356.65H38.2393" fill="white"/>
<path d="M48.7693 336.74H443.579L454.109 351.06V356.65H38.2393" stroke="#263238" stroke-width="1.05369" stroke-linecap="round" stroke-linejoin="round"/>
<path d="M29.8096 351.06H449.9" stroke="#263238" stroke-width="1.05369" stroke-linecap="round" stroke-linejoin="round"/>
<path d="M121.07 294.06C103.33 295.83 87.8 303.3 78.9 320.85C78.9 320.85 67.23 329.5 73.21 337.06L175.4 336.35C175.4 336.35 179.27 327.24 169.08 322.35C169.08 322.38 154.35 290.74 121.07 294.06Z" fill="white" stroke="#263238" stroke-width="1.05369" stroke-linecap="round" stroke-linejoin="round"/>
<path opacity="0.4" d="M108.889 296.34C108.889 296.34 100.509 299.87 108.889 309.18L112.409 306.72C112.409 306.72 119.559 310.83 123.179 310.89C126.799 310.95 132.279 305.96 132.279 305.96L134.399 310.15C134.399 310.15 139.239 301.4 134.399 297.23C129.559 293.06 108.889 296.34 108.889 296.34Z" fill="#087E68"/>
<path opacity="0.4" d="M81.71 323.63C83.5281 324.113 85.1522 325.147 86.359 326.59C87.5658 328.034 88.2962 329.815 88.45 331.69C89.07 338.35 158.27 334.6 158.27 334.6C158.27 334.6 157.57 326.27 163.96 323.6C163.96 323.6 165.21 321.79 160.91 322.6C158.522 322.97 156.322 324.115 154.65 325.86C154.65 325.86 153.96 320.94 155.35 318.71C156.74 316.48 149.51 318.16 149.51 321.63C149.51 325.1 145.82 318.63 146.76 312.84C147.7 307.05 143.51 317.18 142.83 320.84C142.15 324.5 102.96 324.61 101.71 323.32C100.46 322.03 99.71 314.79 98.01 313.54C96.31 312.29 96.09 317.97 96.09 317.97C96.09 317.97 95.41 311.97 93.21 311.29C91.01 310.61 93.52 317.29 93.65 320.84C93.65 320.84 91.43 318.54 89.07 318.84C86.71 319.14 88.93 321.2 89.21 323.57C89.49 325.94 82.94 321 81.71 323.63Z" fill="#087E68"/>
<path d="M119.319 309.08C119.319 309.08 116.079 313.45 116.319 318.08C116.319 318.08 121.179 315.08 122.499 311.54C122.499 311.54 126.249 317.35 130.699 317.18C130.699 317.18 127.159 310.64 125.539 309.62C129.372 307.03 132.445 303.464 134.439 299.29C134.439 299.29 131.499 299.58 131.569 298.58C131.569 298.58 125.639 308.4 122.569 309.11C119.28 307.406 116.724 304.562 115.379 301.11L108.899 300.27C108.899 300.27 113.849 307.36 119.319 309.08Z" fill="#087E68" stroke="#263238" stroke-width="1.05369" stroke-linecap="round" stroke-linejoin="round"/>
<path d="M121.669 308C119.969 304.86 113.199 301.13 113.199 301.13L108.889 306.49C100.819 299.41 108.889 292.49 108.889 292.49C111.099 289.49 129.369 287.64 133.519 292.49C137.669 297.34 137.519 301.9 135.719 306.36L131.869 300.2C131.869 300.2 125.399 302.32 123.779 307.99" fill="white"/>
<path d="M121.669 308C119.969 304.86 113.199 301.13 113.199 301.13L108.889 306.49C100.819 299.41 108.889 292.49 108.889 292.49C111.099 289.49 129.369 287.64 133.519 292.49C137.669 297.34 137.519 301.9 135.719 306.36L131.869 300.2C131.869 300.2 125.399 302.32 123.779 307.99" stroke="#263238" stroke-width="1.05369" stroke-linecap="round" stroke-linejoin="round"/>
<path d="M129.709 288.74C129.49 291.736 129.49 294.744 129.709 297.74C127.819 300.4 122.379 304.07 122.379 304.07C118.089 302.63 112.379 296.52 112.379 296.52C112.788 294.644 112.856 292.71 112.579 290.81C112.287 288.293 111.829 285.797 111.209 283.34C111.149 283.1 111.119 282.96 111.119 282.96H130.999C130.633 283.721 130.362 284.523 130.189 285.35C129.956 286.468 129.796 287.601 129.709 288.74V288.74Z" fill="#BFBFBF" stroke="#263238" stroke-width="1.05369" stroke-linecap="round" stroke-linejoin="round"/>
<path d="M130.18 285.34C129.95 286.462 129.793 287.598 129.71 288.74C126.71 291.67 121.07 295.07 112.62 290.8C112.328 288.282 111.87 285.787 111.25 283.33C117.12 283.25 126.23 284.67 130.18 285.34Z" fill="#263238"/>
<path d="M139.619 267.18C139.619 267.18 141.889 266.04 142.619 267.26C143.349 268.48 141.499 275.02 141.129 275.71C140.436 276.498 139.817 277.349 139.279 278.25C137.959 280.51 137.389 279.49 137.419 278.2" fill="#BFBFBF"/>
<path d="M139.619 267.18C139.619 267.18 141.889 266.04 142.619 267.26C143.349 268.48 141.499 275.02 141.129 275.71C140.436 276.498 139.817 277.349 139.279 278.25C137.959 280.51 137.389 279.49 137.419 278.2" stroke="#263238" stroke-width="1.05369" stroke-linecap="round" stroke-linejoin="round"/>
<path d="M104.189 266.18C104.189 266.18 101.989 264.93 101.189 266.1C100.389 267.27 101.869 273.9 102.189 274.61C102.839 275.439 103.411 276.326 103.899 277.26C105.099 279.59 105.719 278.6 105.759 277.31" fill="#BFBFBF"/>
<path d="M104.189 266.18C104.189 266.18 101.989 264.93 101.189 266.1C100.389 267.27 101.869 273.9 102.189 274.61C102.839 275.439 103.411 276.326 103.899 277.26C105.099 279.59 105.719 278.6 105.759 277.31" stroke="#263238" stroke-width="1.05369" stroke-linecap="round" stroke-linejoin="round"/>
<path d="M122.64 245.68C136.44 246.06 138.97 257.68 138.83 269.01C138.6 287.21 130.27 289.18 121.07 288.92C111.65 288.65 105.25 288.17 104.72 267.43C104.43 256.36 109.09 245.3 122.64 245.68Z" fill="#BFBFBF" stroke="#263238" stroke-width="1.05369" stroke-linecap="round" stroke-linejoin="round"/>
<path d="M117.83 260.41C117.83 260.41 114.3 258.25 110.59 262.47" stroke="#263238" stroke-width="1.05369" stroke-linecap="round" stroke-linejoin="round"/>
<path d="M126.489 260.34C127.872 259.975 129.333 260.048 130.672 260.547C132.012 261.047 133.163 261.949 133.969 263.13" stroke="#263238" stroke-width="1.05369" stroke-linecap="round" stroke-linejoin="round"/>
<path d="M116.319 266.91C116.319 268.03 115.669 268.91 114.929 268.91C114.189 268.91 113.629 267.97 113.659 266.86C113.689 265.75 114.309 264.86 115.049 264.86C115.789 264.86 116.349 265.8 116.319 266.91Z" fill="#263238"/>
<path d="M130.069 267.3C130.069 268.41 129.419 269.3 128.679 269.3C127.939 269.3 127.379 268.36 127.409 267.24C127.439 266.12 128.059 265.24 128.799 265.24C129.539 265.24 130.099 266.18 130.069 267.3Z" fill="#263238"/>
<path d="M135.56 273.69C135.56 273.69 137.42 272.91 139.77 267.8" stroke="#263238" stroke-width="1.05369" stroke-linecap="round" stroke-linejoin="round"/>
<path d="M108.16 272.92C108.16 272.92 105.51 271.69 104.72 267.43" stroke="#263238" stroke-width="1.05369" stroke-linecap="round" stroke-linejoin="round"/>
<path d="M107 272.22C107 272.22 118.74 269.22 121.63 269.08C124.52 268.94 136.79 273.08 136.79 273.08C136.79 273.08 134.73 285.21 132.32 287.67C129.91 290.13 117.32 291.35 110.83 287.37C109.12 286.28 107 272.22 107 272.22Z" fill="#087E68" stroke="#263238" stroke-width="1.05369" stroke-linecap="round" stroke-linejoin="round"/>
<path d="M104.8 269.76C105.151 266.84 105.915 263.985 107.07 261.28C108.108 259.167 108.495 256.793 108.18 254.46C108.18 254.46 110.46 248.15 120.72 248.46C123.639 248.497 126.519 249.138 129.178 250.342C131.837 251.547 134.218 253.29 136.17 255.46C136.17 255.46 135.73 260.98 136.17 262.22C136.61 263.46 139.04 268.36 138.74 271.49C138.74 271.49 141.85 264.99 141.59 264.43C141.33 263.87 143.39 263.87 143.27 261.82C143.15 259.77 140.58 258.42 142.17 256.27C143.76 254.12 144.96 253.13 143.47 250.99C141.98 248.85 140.37 246.76 141.02 243.99C141.67 241.22 134.31 240.71 132.08 239.69C129.85 238.67 130.84 237.69 128.83 236.78C126.82 235.87 122.06 236.58 120.61 237.24C119.16 237.9 116.01 235.7 112.85 237.06C109.69 238.42 107.27 238.21 107.52 240.6C107.77 242.99 105.61 243.11 103.9 244.36C102.19 245.61 101.4 248.64 102.07 250.08C102.74 251.52 101.67 252.72 100.85 254.37C100.03 256.02 99.41 259.08 100.52 260.65C101.63 262.22 103.37 261.37 102.79 262.87C102.21 264.37 104.8 269.76 104.8 269.76Z" fill="#263238"/>
<path d="M93.21 310.15C93.21 310.15 99.21 322.65 93.91 331.69" stroke="#263238" stroke-width="1.05369" stroke-linecap="round" stroke-linejoin="round"/>
<path d="M97.6599 311.57C97.6599 311.57 99.0998 318.35 96.0898 323.63" stroke="#263238" stroke-width="1.05369" stroke-linecap="round" stroke-linejoin="round"/>
<path d="M148.38 309.18C148.38 309.18 141.29 320.6 150.6 331" stroke="#263238" stroke-width="1.05369" stroke-linecap="round" stroke-linejoin="round"/>
<path d="M144.759 311.57C144.759 311.57 142.829 316.41 145.759 322.65" stroke="#263238" stroke-width="1.05369" stroke-linecap="round" stroke-linejoin="round"/>
<path d="M174.629 335.85C176.729 331.85 174.429 326.85 168.869 326.02C163.309 325.19 157.759 328.56 159.549 334.95C161.339 341.34 171.999 340.91 174.629 335.85Z" fill="#BFBFBF" stroke="#263238" stroke-width="1.05369" stroke-linecap="round" stroke-linejoin="round"/>
<path d="M164.53 327.8C164.53 327.8 143.34 331.97 138.07 331.47C132.8 330.97 126.5 327.61 124.07 328.72C121.64 329.83 118.29 335.92 117.74 336.8C117.19 337.68 120.48 339.49 122.31 339.4C123.433 339.271 124.522 338.932 125.52 338.4C125.52 338.4 127.18 341.99 136.23 339.15C136.23 339.15 164.94 344.54 172.23 338.67C176.76 335 175.45 331.67 172.06 329.67" fill="#BFBFBF"/>
<path d="M164.53 327.8C164.53 327.8 143.34 331.97 138.07 331.47C132.8 330.97 126.5 327.61 124.07 328.72C121.64 329.83 118.29 335.92 117.74 336.8C117.19 337.68 120.48 339.49 122.31 339.4C123.433 339.271 124.522 338.932 125.52 338.4C125.52 338.4 127.18 341.99 136.23 339.15C136.23 339.15 164.94 344.54 172.23 338.67C176.76 335 175.45 331.67 172.06 329.67" stroke="#263238" stroke-width="1.05369" stroke-linecap="round" stroke-linejoin="round"/>
<path d="M125.529 338.38C125.529 338.38 126.389 336.63 123.609 335.85C123.609 335.85 122.499 333.53 122.839 332.28" stroke="#263238" stroke-width="1.05369" stroke-linecap="round" stroke-linejoin="round"/>
<path d="M123.609 335.85C123.281 336.254 122.859 336.571 122.379 336.774C121.9 336.976 121.378 337.057 120.859 337.01" stroke="#263238" stroke-width="1.05369" stroke-linecap="round" stroke-linejoin="round"/>
<path d="M136.24 339.13C136.24 339.13 135.63 338.38 136.24 336.35" stroke="#263238" stroke-width="1.05369" stroke-linecap="round" stroke-linejoin="round"/>
<path d="M72.8394 335.65C71.0094 331.54 73.6394 326.65 79.2394 326.23C84.8394 325.81 90.1494 329.5 87.9394 335.75C85.7294 342 75.1594 340.88 72.8394 335.65Z" fill="#BFBFBF" stroke="#263238" stroke-width="1.05369" stroke-linecap="round" stroke-linejoin="round"/>
<path d="M83.4597 328.29C83.4597 328.29 104.32 333.86 109.61 333.71C114.9 333.56 121.41 330.63 123.75 331.9C126.09 333.17 129.04 339.47 129.53 340.38C130.02 341.29 126.61 342.89 124.79 342.68C123.679 342.461 122.619 342.041 121.66 341.44C121.66 341.44 119.76 344.91 110.93 341.44C110.93 341.44 81.9297 344.92 75.0697 338.58C70.7897 334.58 72.3197 331.34 75.8297 329.58" fill="#BFBFBF"/>
<path d="M83.4597 328.29C83.4597 328.29 104.32 333.86 109.61 333.71C114.9 333.56 121.41 330.63 123.75 331.9C126.09 333.17 129.04 339.47 129.53 340.38C130.02 341.29 126.61 342.89 124.79 342.68C123.679 342.461 122.619 342.041 121.66 341.44C121.66 341.44 119.76 344.91 110.93 341.44C110.93 341.44 81.9297 344.92 75.0697 338.58C70.7897 334.58 72.3197 331.34 75.8297 329.58" stroke="#263238" stroke-width="1.05369" stroke-linecap="round" stroke-linejoin="round"/>
<path d="M121.66 341.44C121.66 341.44 120.92 339.63 123.75 339.04C123.75 339.04 125.01 336.81 124.75 335.53" stroke="#263238" stroke-width="1.05369" stroke-linecap="round" stroke-linejoin="round"/>
<path d="M123.75 339C124.048 339.426 124.447 339.772 124.911 340.005C125.375 340.239 125.89 340.354 126.41 340.34" stroke="#263238" stroke-width="1.05369" stroke-linecap="round" stroke-linejoin="round"/>
<path d="M110.93 341.47C110.93 341.47 111.59 340.77 111.11 338.7" stroke="#263238" stroke-width="1.05369" stroke-linecap="round" stroke-linejoin="round"/>
<path d="M94.9996 346.54L98.7696 340.37C98.7696 340.37 85.0996 339.22 82.5096 338.19C79.9196 337.16 74.6096 339.45 74.6096 339.45C72.4771 337.8 69.7916 337.034 67.1096 337.31C60.3596 338.19 53.2396 338.2 52.3496 338.31L44.3496 343.43C44.3496 343.43 63.2396 344.21 67.9896 346.27L71.2696 346.78C71.2696 346.78 84.9996 346.13 94.9996 346.54Z" fill="#087E68" stroke="#263238" stroke-width="1.05369" stroke-linecap="round" stroke-linejoin="round"/>
<path d="M96.0895 340L93.2095 344.83C93.2095 344.83 81.6895 342.97 71.1395 344.91L69.3695 345.45C69.3695 345.45 62.3695 341.65 48.7695 341.97L54.9995 337.06C54.9995 337.06 68.1195 330.2 74.6295 337.23C74.6295 337.23 75.9295 335.76 82.1795 334.83C88.4295 333.9 96.0895 340 96.0895 340Z" fill="white" stroke="#263238" stroke-width="1.05369" stroke-linecap="round" stroke-linejoin="round"/>
<path d="M74.6491 337.23L70.6491 343.4C70.6491 343.4 67.4791 340.66 61.2191 340.02C57.3933 339.669 53.5438 340.36 50.0791 342.02" stroke="#263238" stroke-width="1.05369" stroke-linecap="round" stroke-linejoin="round"/>
<path d="M70.6191 343.4C70.6191 343.4 73.5391 341.69 79.6191 340.81C85.6991 339.93 92.7491 344.35 92.7491 344.35" fill="white"/>
<path d="M70.6191 343.4C70.6191 343.4 73.5391 341.69 79.6191 340.81C85.6991 339.93 92.7491 344.35 92.7491 344.35" stroke="#263238" stroke-width="1.05369" stroke-linecap="round" stroke-linejoin="round"/>
<path d="M466.87 399.09V444.09L242.56 439.27L136.67 437L113.39 436.5V399.09H466.87Z" fill="white"/>
<path opacity="0.4" d="M460.929 399.09C458.549 405.02 453.319 411.9 442.279 417.7C416.849 431.04 365.159 409.52 333.889 410.9C313.399 411.8 279.509 428.78 242.559 439.31C223.159 444.84 202.909 448.59 183.299 447.31C165.049 446.11 149.129 442.57 136.679 437.05C126.299 432.45 118.319 426.46 113.399 419.3V399.09H460.929Z" fill="#087E68"/>
<path d="M113.39 399.09V444.14" stroke="#263238" stroke-width="1.05369" stroke-linecap="round" stroke-linejoin="round"/>
<path d="M468.43 370.99H128.04L108.02 392.6V401.03H469.6" fill="white"/>
<path d="M468.43 370.99H128.04L108.02 392.6V401.03H469.6" stroke="#263238" stroke-width="1.05369" stroke-linecap="round" stroke-linejoin="round"/>
<path d="M112.239 392.6H481.189" stroke="#263238" stroke-width="1.05369" stroke-linecap="round" stroke-linejoin="round"/>
<path d="M358.149 378.9V387.48H402.949L397.949 377.78L358.149 378.9Z" fill="white" stroke="#263238" stroke-width="1.05369" stroke-linecap="round" stroke-linejoin="round"/>
<path d="M406.84 378.9L435.94 375.22L456.86 382.63L430.19 389.22L406.84 378.9Z" fill="white" stroke="#263238" stroke-width="1.05369" stroke-linecap="round" stroke-linejoin="round"/>
<path d="M412.259 373.3C411.362 373.488 410.444 373.552 409.529 373.49C406.323 373.409 403.124 373.139 399.949 372.68C396.589 372.16 395.719 371.31 395.719 371.31L340.429 371.12H333.889C333.529 372.425 332.777 373.589 331.734 374.452C330.692 375.316 329.409 375.839 328.059 375.95C324.229 376.48 314.219 374.76 312.839 373.32C308.469 368.73 309.839 357.55 313.189 356.02C313.189 356.02 318.059 340.81 323.059 329.77C328.399 317.94 343.599 304.26 363.239 302C382.879 299.74 401.839 321.84 408.309 332.88C412.213 339.583 415.487 346.633 418.089 353.94C418.089 353.94 420.689 356.41 421.149 359.08C422.129 364.64 421.219 370.39 412.259 373.3Z" fill="white"/>
<path opacity="0.4" d="M411.15 372.16C410.682 372.685 410.135 373.133 409.53 373.49C406.323 373.409 403.124 373.139 399.95 372.68C396.59 372.16 395.72 371.31 395.72 371.31L340.43 371.12C336.8 368.68 334.33 365.92 333.89 362.98C332.44 352.87 325.35 351.62 318.89 352.52C318.89 352.52 320.98 346.41 325.83 346.7C330.68 346.99 335.03 352.52 335.03 352.52C334.29 345.08 324.73 333.29 327.65 333.9C330.57 334.51 337.17 342.27 337.5 342.65C337.32 342.26 333.15 333.51 336.76 333.91C340.37 334.31 343.76 348.18 343.76 348.18C343.76 348.18 355.96 355.58 363.9 356.65C371.84 357.72 391.71 346.7 391.71 346.7L392.53 354.06C392.53 354.06 403.27 347.25 408.28 350.52C413.29 353.79 414.13 368.51 411.15 372.16Z" fill="#087E68"/>
<path opacity="0.4" d="M364.23 340.48C361.6 336.17 351.17 331.05 351.17 331.05L345.81 334.05C333.36 324.33 341.6 311.14 341.6 311.14C344.99 306.96 377.6 304.48 384.02 311.14C390.44 317.8 389.69 326.69 386.86 332.8L379.96 329.75C379.96 329.75 369.96 332.66 367.47 340.45" fill="#087E68"/>
<path d="M412.259 373.3C411.362 373.488 410.444 373.552 409.529 373.49C406.323 373.409 403.124 373.139 399.949 372.68C396.589 372.16 395.719 371.31 395.719 371.31L340.429 371.12H333.889C333.529 372.425 332.777 373.589 331.734 374.452C330.692 375.316 329.409 375.839 328.059 375.95C324.229 376.48 314.219 374.76 312.839 373.32C308.469 368.73 309.839 357.55 313.189 356.02C313.189 356.02 318.059 340.81 323.059 329.77C328.399 317.94 343.599 304.26 363.239 302C382.879 299.74 401.839 321.84 408.309 332.88C412.213 339.583 415.487 346.633 418.089 353.94C418.089 353.94 420.689 356.41 421.149 359.08C422.129 364.64 421.219 370.39 412.259 373.3Z" stroke="#263238" stroke-width="1.05369" stroke-linecap="round" stroke-linejoin="round"/>
<path d="M360.709 338.22C360.709 338.22 356.269 344.22 356.539 350.52C356.539 350.52 363.209 346.41 365.019 341.52C365.019 341.52 370.159 349.52 376.269 349.26C376.269 349.26 371.409 340.26 369.189 338.89C374.449 335.334 378.664 330.439 381.399 324.71C381.399 324.71 377.399 325.12 377.469 323.71C377.469 323.71 369.329 337.18 365.159 338.16C360.637 335.821 357.127 331.908 355.289 327.16L346.399 326.01C346.399 326.01 353.209 335.85 360.709 338.22Z" fill="#087E68" stroke="#263238" stroke-width="1.05369" stroke-linecap="round" stroke-linejoin="round"/>
<path d="M363.94 336.69C361.6 332.38 352.32 327.26 352.32 327.26L347.55 330.26C336.47 320.53 343.79 307.34 343.79 307.34C346.79 303.16 375.86 300.68 381.55 307.34C387.24 314 386.61 322.89 384.08 329.01L377.94 326C377.94 326 369.05 328.92 366.83 336.7" fill="white"/>
<path d="M363.94 336.69C361.6 332.38 352.32 327.26 352.32 327.26L347.55 330.26C336.47 320.53 343.79 307.34 343.79 307.34C346.79 303.16 375.86 300.68 381.55 307.34C387.24 314 386.61 322.89 384.08 329.01L377.94 326C377.94 326 369.05 328.92 366.83 336.7" stroke="#263238" stroke-width="1.05369" stroke-linecap="round" stroke-linejoin="round"/>
<path d="M325.84 332.52C325.84 332.52 336.45 339.74 339.9 350.58C343.35 361.42 341.42 369.58 341.42 369.58" stroke="#263238" stroke-width="1.05369" stroke-linecap="round" stroke-linejoin="round"/>
<path d="M337.51 338.22C337.51 338.22 341.51 344.3 341.06 355.01" stroke="#263238" stroke-width="1.05369" stroke-linecap="round" stroke-linejoin="round"/>
<path d="M403 329.74C403 329.74 386.63 342.96 395.78 371.31" stroke="#263238" stroke-width="1.05369" stroke-linecap="round" stroke-linejoin="round"/>
<path d="M395.73 335.58C395.73 335.58 391.81 349.44 393.91 355.01" stroke="#263238" stroke-width="1.05369" stroke-linecap="round" stroke-linejoin="round"/>
<path d="M351.68 321C351.68 321 358.63 330.58 364.74 333.92C368.738 330.747 371.914 326.659 374 322C377.43 314.31 352.36 321 352.36 321" fill="white"/>
<path d="M351.68 321C351.68 321 358.63 330.58 364.74 333.92C368.738 330.747 371.914 326.659 374 322C377.43 314.31 352.36 321 352.36 321" stroke="#263238" stroke-width="1.05369" stroke-linecap="round" stroke-linejoin="round"/>
<path d="M387.249 290.46C387.249 290.46 390.179 288.67 391.349 290.23C392.519 291.79 390.719 300.82 390.299 301.79C389.879 302.76 389.619 302.23 388.089 305.43C386.559 308.63 385.669 307.32 385.579 305.57" fill="white"/>
<path d="M387.249 290.46C387.249 290.46 390.179 288.67 391.349 290.23C392.519 291.79 390.719 300.82 390.299 301.79C389.879 302.76 389.619 302.23 388.089 305.43C386.559 308.63 385.669 307.32 385.579 305.57" stroke="#263238" stroke-width="1.05369" stroke-linecap="round" stroke-linejoin="round"/>
<path d="M339.339 293.13C339.339 293.13 336.229 291.68 335.239 293.36C334.249 295.04 337.05 303.81 337.57 304.73C338.09 305.65 338.299 305.09 340.179 308.1C342.059 311.11 342.789 309.72 342.689 307.96" fill="white"/>
<path d="M339.339 293.13C339.339 293.13 336.229 291.68 335.239 293.36C334.249 295.04 337.05 303.81 337.57 304.73C338.09 305.65 338.299 305.09 340.179 308.1C342.059 311.11 342.789 309.72 342.689 307.96" stroke="#263238" stroke-width="1.05369" stroke-linecap="round" stroke-linejoin="round"/>
<path d="M361.9 267.59C380.58 266.59 385.31 281.96 386.4 297.24C388.14 321.82 377.13 322.24 364.68 322.94C351.95 323.65 343.26 326.88 340.19 298.94C338.55 284.06 343.58 268.61 361.9 267.59Z" fill="white" stroke="#263238" stroke-width="1.05369" stroke-linecap="round" stroke-linejoin="round"/>
<path d="M357.09 292.22C357.09 292.22 352.09 289.71 347.55 295.82" stroke="#263238" stroke-width="1.05369" stroke-linecap="round" stroke-linejoin="round"/>
<path d="M368.76 291.14C368.76 291.14 374.31 288.74 379.17 294.06" stroke="#263238" stroke-width="1.05369" stroke-linecap="round" stroke-linejoin="round"/>
<path d="M355.78 300.11C355.87 301.62 355.13 302.89 354.14 302.94C353.15 302.99 352.27 301.82 352.19 300.32C352.11 298.82 352.84 297.54 353.83 297.49C354.82 297.44 355.7 298.61 355.78 300.11Z" fill="#263238"/>
<path d="M374.38 299.08C374.47 300.58 373.73 301.85 372.74 301.91C371.75 301.97 370.87 300.78 370.74 299.28C370.61 297.78 371.4 296.51 372.39 296.45C373.38 296.39 374.3 297.57 374.38 299.08Z" fill="#263238"/>
<path d="M382.51 303.91C382.51 303.91 384.94 302.65 387.51 295.49" stroke="#263238" stroke-width="1.05369" stroke-linecap="round" stroke-linejoin="round"/>
<path d="M345.459 306C345.459 306 341.739 304.64 340.189 299" stroke="#263238" stroke-width="1.05369" stroke-linecap="round" stroke-linejoin="round"/>
<path d="M343.789 305.17C343.789 305.17 359.299 303.95 363.179 303.49C367.059 303.03 384.079 302.92 384.079 302.92C384.079 302.92 383.699 317.38 380.759 321C375.019 328.05 357.009 329.72 348.569 323C346.449 321.34 343.789 305.17 343.789 305.17Z" fill="#087E68" stroke="#263238" stroke-width="1.05369" stroke-linecap="round" stroke-linejoin="round"/>
<path d="M372.579 279.93C372.579 279.93 372.449 286.81 360.159 292.33C360.159 292.33 362.919 290.56 363.939 284.51C363.939 284.51 352.859 290.57 347.549 291.71L342.229 292.85L340.229 303.91C340.229 303.91 335.589 290.14 335.069 281.8C334.549 273.46 338.729 260.34 356.239 257.63C373.749 254.92 384.119 265.34 384.119 265.34C384.119 265.34 395.529 269.86 386.619 300.21C385.65 296.533 384.285 292.973 382.549 289.59C379.999 284.93 372.579 279.93 372.579 279.93Z" fill="#263238"/>
<path d="M312.759 370.46C309.819 364.88 313.049 357.81 320.829 356.7C328.609 355.59 336.399 360.25 333.899 369.2C331.399 378.15 316.499 377.56 312.759 370.46Z" fill="white" stroke="#263238" stroke-width="1.05369" stroke-linecap="round" stroke-linejoin="round"/>
<path d="M326.929 359.19C326.929 359.19 356.619 365 363.999 364.32C371.379 363.64 380.209 358.92 383.609 360.47C387.009 362.02 391.719 370.57 392.479 371.8C393.239 373.03 388.639 375.57 386.069 375.44C384.497 375.248 382.974 374.763 381.579 374.01C381.579 374.01 379.249 379.01 366.579 375.06C366.579 375.06 326.339 382.62 316.169 374.39C309.809 369.24 311.659 364.52 316.399 361.75" fill="white"/>
<path d="M326.929 359.19C326.929 359.19 356.619 365 363.999 364.32C371.379 363.64 380.209 358.92 383.609 360.47C387.009 362.02 391.719 370.57 392.479 371.8C393.239 373.03 388.639 375.57 386.069 375.44C384.497 375.248 382.974 374.763 381.579 374.01C381.579 374.01 379.249 379.01 366.579 375.06C366.579 375.06 326.339 382.62 316.169 374.39C309.809 369.24 311.659 364.52 316.399 361.75" stroke="#263238" stroke-width="1.05369" stroke-linecap="round" stroke-linejoin="round"/>
<path d="M381.58 374C381.58 374 380.38 371.54 384.27 370.45C384.27 370.45 385.83 367.21 385.34 365.45" stroke="#263238" stroke-width="1.05369" stroke-linecap="round" stroke-linejoin="round"/>
<path d="M384.27 370.46C384.27 370.46 385.98 372.56 388.12 372.09" stroke="#263238" stroke-width="1.05369" stroke-linecap="round" stroke-linejoin="round"/>
<path d="M366.569 375.06C366.569 375.06 367.429 374.01 366.569 371.17" stroke="#263238" stroke-width="1.05369" stroke-linecap="round" stroke-linejoin="round"/>
<path d="M409.479 352.81C410.747 352.462 412.08 352.431 413.362 352.72C414.644 353.01 415.835 353.611 416.829 354.47C420.629 357.47 424.609 372.6 413.159 375.75C401.709 378.9 395.869 354.47 409.479 352.81Z" fill="white" stroke="#263238" stroke-width="1.05369" stroke-linecap="round" stroke-linejoin="round"/>
<path d="M415.33 358.39C415.33 358.39 398.38 331.56 394.81 322.84L384.27 327.45C384.52 328.71 393.95 367.69 405.17 374C412.29 378 416 374.56 416.83 369.13" fill="white"/>
<path d="M415.33 358.39C415.33 358.39 398.38 331.56 394.81 322.84L384.27 327.45C384.52 328.71 393.95 367.69 405.17 374C412.29 378 416 374.56 416.83 369.13" stroke="#263238" stroke-width="1.05369" stroke-linecap="round" stroke-linejoin="round"/>
<path d="M386.199 328.77C386.199 328.77 381.549 328.35 380.199 324.88C378.849 321.41 385.199 312.47 385.199 312.47C385.199 312.47 383.899 306.41 385.579 305.57C387.259 304.73 391.819 301.46 393.289 302.47C394.759 303.48 396.289 306.67 396.559 310.47C396.829 314.27 394.509 325 394.509 325" fill="white"/>
<path d="M386.199 328.77C386.199 328.77 381.549 328.35 380.199 324.88C378.849 321.41 385.199 312.47 385.199 312.47C385.199 312.47 383.899 306.41 385.579 305.57C387.259 304.73 391.819 301.46 393.289 302.47C394.759 303.48 396.289 306.67 396.559 310.47C396.829 314.27 394.509 325 394.509 325" stroke="#263238" stroke-width="1.05369" stroke-linecap="round" stroke-linejoin="round"/>
<path d="M385.199 312.47C385.199 312.47 388.129 309.99 389.979 309.86Z" fill="white"/>
<path d="M385.199 312.47C385.199 312.47 388.129 309.99 389.979 309.86" stroke="#263238" stroke-width="1.05369" stroke-linecap="round" stroke-linejoin="round"/>
<path d="M388.279 310.41C388.531 309.135 388.659 307.839 388.659 306.54Z" fill="white"/>
<path d="M388.279 310.41C388.531 309.135 388.659 307.839 388.659 306.54" stroke="#263238" stroke-width="1.05369" stroke-linecap="round" stroke-linejoin="round"/>
<g opacity="0.2">
<path opacity="0.2" d="M372.579 264.92C372.579 264.92 374.029 275.76 366.579 284.51" stroke="white" stroke-width="1.05369" stroke-linecap="round" stroke-linejoin="round"/>
<path opacity="0.2" d="M368.759 264.64C367.52 269.647 364.858 274.188 361.094 277.714C357.33 281.24 352.626 283.601 347.549 284.51" stroke="white" stroke-width="1.05369" stroke-linecap="round" stroke-linejoin="round"/>
<path opacity="0.2" d="M363.679 264.64C363.679 264.64 360.149 277.64 343.789 276.59" stroke="white" stroke-width="1.05369" stroke-linecap="round" stroke-linejoin="round"/>
<path opacity="0.2" d="M377.459 274.72C377.459 274.72 383.619 279.72 385.459 285.09" stroke="white" stroke-width="1.05369" stroke-linecap="round" stroke-linejoin="round"/>
<path opacity="0.2" d="M377.459 270.06C377.459 270.06 381.949 270.34 384.079 271.8" stroke="white" stroke-width="1.05369" stroke-linecap="round" stroke-linejoin="round"/>
</g>
<path d="M441.571 424.36H55.3008C55.2995 432.626 56.9265 440.812 60.0889 448.449C63.2514 456.087 67.8873 463.026 73.7319 468.872C79.5766 474.717 86.5155 479.355 94.1524 482.518C101.789 485.682 109.975 487.31 118.241 487.31H378.631C386.897 487.31 395.082 485.682 402.719 482.518C410.356 479.355 417.295 474.717 423.14 468.872C428.984 463.026 433.62 456.087 436.783 448.449C439.945 440.812 441.572 432.626 441.571 424.36V424.36Z" fill="white"/>
<path d="M266.48 315.35L278.07 289.6C278.699 284.11 279.796 278.683 281.35 273.38C283.72 265.89 290.03 235.91 289.24 222.11C288.45 208.31 306.6 225.26 306.6 225.26C306.6 225.26 305.41 279.26 303.44 286.79C301.47 294.32 284.08 364.65 284.08 364.65" fill="white"/>
<path d="M266.48 315.35L278.07 289.6C278.699 284.11 279.796 278.683 281.35 273.38C283.72 265.89 290.03 235.91 289.24 222.11C288.45 208.31 306.6 225.26 306.6 225.26C306.6 225.26 305.41 279.26 303.44 286.79C301.47 294.32 284.08 364.65 284.08 364.65" stroke="#263238" stroke-width="1.05369" stroke-linecap="round" stroke-linejoin="round"/>
<path d="M295.82 329.77L292.94 333.64L292.41 334.35C292.41 334.35 287.96 379.35 278.87 397.47C278.43 398.37 277.96 399.21 277.49 399.97C267.49 416.06 253.73 330.97 253.73 330.97C253.73 330.97 258.32 314.4 266.25 311.34L269.58 301.98C269.58 301.98 294 321.45 295.82 329.77Z" fill="white"/>
<path opacity="0.4" d="M292.94 333.64L292.41 334.35C292.41 334.35 287.96 379.35 278.87 397.47C272.87 389.88 274.57 371.55 275.97 368.71C277.97 364.71 282.62 369.71 282.62 369.71C282.62 369.71 278.73 355.15 278.18 350.98C277.63 346.81 282.35 353.2 285.09 355.45C287.83 357.7 288.46 342.92 287.16 338.45C285.86 333.98 269.57 312.62 274.78 315.06C278.61 316.88 288.12 327.88 292.94 333.64Z" fill="#087E68"/>
<path d="M295.82 329.77L292.94 333.64L292.41 334.35C292.41 334.35 287.96 379.35 278.87 397.47C278.43 398.37 277.96 399.21 277.49 399.97C267.49 416.06 253.73 330.97 253.73 330.97C253.73 330.97 258.32 314.4 266.25 311.34L269.58 301.98C269.58 301.98 294 321.45 295.82 329.77Z" stroke="#263238" stroke-width="1.05369" stroke-linecap="round" stroke-linejoin="round"/>
<path d="M276.71 362.33C281.923 378.04 284.718 394.45 285 411C285.14 415.667 285.093 420.53 284.86 425.59H177.18L177.08 375.09C177.08 375.09 189.31 355.45 216.76 349.59C238.01 345.06 255.9 324.82 255.9 324.82C257.308 326.288 258.62 327.845 259.83 329.48" fill="white"/>
<path opacity="0.4" d="M284.871 425.61H178.301C181.061 410.85 188.531 398.48 193.491 399.77C201.491 401.85 204.261 416.44 208.571 420.56C212.881 424.68 221.351 418.94 234.191 415.74C247.031 412.54 259.091 422.59 266.011 421.62C270.011 421.05 278.601 415.52 285.011 411.02C285.151 415.673 285.104 420.537 284.871 425.61Z" fill="#087E68"/>
<path opacity="0.4" d="M200.731 359.19C200.731 359.19 194.531 361.88 192.311 375.06C192.311 375.06 199.311 371.63 203.571 371.31C207.831 370.99 231.091 383.31 231.091 383.31C231.091 383.31 236.491 362.98 242.461 357.7C248.431 352.42 260.461 353.56 260.461 353.56C260.461 353.56 249.611 341.64 239.861 341.47C235.861 341.4 229.391 349.81 222.041 352.55C211.631 356.39 200.731 359.19 200.731 359.19Z" fill="#087E68"/>
<path d="M276.71 362.33C281.923 378.04 284.718 394.45 285 411C285.14 415.667 285.093 420.53 284.86 425.59H177.18L177.08 375.09C177.08 375.09 189.31 355.45 216.76 349.59C238.01 345.06 255.9 324.82 255.9 324.82C257.308 326.288 258.62 327.845 259.83 329.48" stroke="#263238" stroke-width="1.05369" stroke-linecap="round" stroke-linejoin="round"/>
<path d="M233.81 367.67C233.81 367.67 241.29 345.67 244.81 345.3C248.33 344.93 257.38 350.73 257.38 350.73C241.51 325.23 217.45 338.9 207.38 344.82C186.82 356.97 189.38 375.11 189.38 375.11C189.38 375.11 197.38 366.31 200.99 365.17C204.6 364.03 220.85 375.11 220.85 375.11" fill="white"/>
<path d="M233.81 367.67C233.81 367.67 241.29 345.67 244.81 345.3C248.33 344.93 257.38 350.73 257.38 350.73C241.51 325.23 217.45 338.9 207.38 344.82C186.82 356.97 189.38 375.11 189.38 375.11C189.38 375.11 197.38 366.31 200.99 365.17C204.6 364.03 220.85 375.11 220.85 375.11" stroke="#263238" stroke-width="1.05369" stroke-linecap="round" stroke-linejoin="round"/>
<path d="M235.39 348.5C233.94 361.28 225 370.39 225 370.39C206.91 365.98 203.69 354.05 203.69 354.05C204.027 353.737 204.301 353.364 204.5 352.95C205.5 351.14 206.64 346.83 203.57 338.22C202.759 335.942 201.81 333.714 200.73 331.55L233 326C231.452 329.883 230.989 334.114 231.66 338.24C231.865 339.508 232.156 340.761 232.53 341.99C233.193 344.277 234.154 346.466 235.39 348.5V348.5Z" fill="white" stroke="#263238" stroke-width="1.05369" stroke-linecap="round" stroke-linejoin="round"/>
<path d="M247.221 367.26C245.351 364.96 226.591 371.84 226.591 371.84C226.591 371.84 205.331 376.84 206.001 380.39C206.671 383.94 210.541 391.85 214.801 390.81C219.061 389.77 224.611 379.55 224.611 379.55L219.921 399.77H224.611L227.611 379.03C231.781 384.24 234.811 395.39 234.811 395.39L237.491 391.64C235.741 385.64 229.631 377.05 229.631 377.05C229.631 377.05 242.631 382.26 245.831 382.68C249.031 383.1 249.101 369.55 247.221 367.26ZM213.901 385.39C212.551 385.7 212.031 384.03 211.511 381.85C210.991 379.67 222.031 376.65 222.031 376.65C222.031 376.65 215.261 385.08 213.901 385.39ZM243.901 376.53C242.541 377.36 230.661 373.72 230.661 373.72C230.661 373.72 244.001 369.86 244.421 371.32C244.841 372.78 245.271 375.7 243.921 376.53H243.901Z" fill="#087E68" stroke="#263238" stroke-width="1.05369" stroke-linecap="round" stroke-linejoin="round"/>
<path d="M225.05 377.78L222.94 372.78C222.94 372.78 226.59 370.25 229 371L228.49 375.81" fill="#087E68"/>
<path d="M225.05 377.78L222.94 372.78C222.94 372.78 226.59 370.25 229 371L228.49 375.81" stroke="#263238" stroke-width="1.05369" stroke-linecap="round" stroke-linejoin="round"/>
<path d="M295.89 228C295 228.22 285.4 225.35 284.29 217.62C283.18 209.89 276.45 199.84 276.45 199.84C276.45 199.84 278.11 195.97 281.75 197.96C283.81 199.08 284.84 204.14 289.92 206.35C291.076 202.781 291.811 199.089 292.11 195.35C292.77 188.5 293.43 179.68 296.11 179.01C298.79 178.34 298.99 180.33 298.99 181.87C298.99 183.41 298.1 193.8 298.99 195.35C299.88 196.9 303.87 179.7 304.99 178.87C307.78 176.74 309.19 180.55 309.19 180.55C309.19 180.55 305.43 197.11 305.87 198.44C306.31 199.77 311.62 187.84 311.87 186.29C312.12 184.74 315.1 185.69 315.18 188.5C315.25 190.67 309.88 203.08 310.32 204.4C310.76 205.72 314.32 196.62 315.32 195.96C316.32 195.3 318.74 196.4 316.73 202.64C314.984 207.674 313.591 212.823 312.56 218.05C311.45 224.24 306.37 228.45 302.17 228.05" fill="white"/>
<path d="M295.89 228C295 228.22 285.4 225.35 284.29 217.62C283.18 209.89 276.45 199.84 276.45 199.84C276.45 199.84 278.11 195.97 281.75 197.96C283.81 199.08 284.84 204.14 289.92 206.35C291.076 202.781 291.811 199.089 292.11 195.35C292.77 188.5 293.43 179.68 296.11 179.01C298.79 178.34 298.99 180.33 298.99 181.87C298.99 183.41 298.1 193.8 298.99 195.35C299.88 196.9 303.87 179.7 304.99 178.87C307.78 176.74 309.19 180.55 309.19 180.55C309.19 180.55 305.43 197.11 305.87 198.44C306.31 199.77 311.62 187.84 311.87 186.29C312.12 184.74 315.1 185.69 315.18 188.5C315.25 190.67 309.88 203.08 310.32 204.4C310.76 205.72 314.32 196.62 315.32 195.96C316.32 195.3 318.74 196.4 316.73 202.64C314.984 207.674 313.591 212.823 312.56 218.05C311.45 224.24 306.37 228.45 302.17 228.05" stroke="#263238" stroke-width="1.05369" stroke-linecap="round" stroke-linejoin="round"/>
<path d="M289.921 206.36C292.461 207.36 296.771 209.57 298.101 213.98" stroke="#263238" stroke-width="1.05369" stroke-linecap="round" stroke-linejoin="round"/>
<path d="M295.45 195.32C295.45 195.32 307.15 195.43 311.35 207.03" stroke="#263238" stroke-width="1.05369" stroke-linecap="round" stroke-linejoin="round"/>
<path d="M194.13 390.11C197.53 397.63 199.66 408.9 198.2 425.77L180.8 430.94L158.29 435.22C158.29 435.22 146.59 412.07 159.82 399.77C159.82 399.77 163.36 387.26 177.08 375.11C178.424 375.297 179.733 375.674 180.97 376.23" fill="white"/>
<path opacity="0.4" d="M198.201 425.77L187.611 428.92C186.654 426.606 186.168 424.124 186.181 421.62C185.611 403.85 167.311 399.77 167.311 399.77C174.391 396.1 182.691 403.13 183.791 405.01C182.481 401.69 180.161 394.57 183.871 395.46C189.601 396.85 195.081 407.69 195.081 407.69C195.081 407.69 192.311 390.74 195.561 393.74C198.081 401.13 199.441 411.43 198.201 425.77Z" fill="#087E68"/>
<path d="M194.13 390.11C197.53 397.63 199.66 408.9 198.2 425.77L180.8 430.94L158.29 435.22C158.29 435.22 146.59 412.07 159.82 399.77C159.82 399.77 163.36 387.26 177.08 375.11C178.424 375.297 179.733 375.674 180.97 376.23" stroke="#263238" stroke-width="1.05369" stroke-linecap="round" stroke-linejoin="round"/>
<path d="M148.671 433.6C143.401 426.6 149.401 419.6 153.151 414.15C156.901 408.7 160.031 403.55 160.031 403.55C160.031 403.55 173.241 402.55 180.241 410.82C187.241 419.09 188.581 425.65 185.241 431.47C181.901 437.29 157.941 446 148.671 433.6Z" fill="white" stroke="#263238" stroke-width="1.05369" stroke-linecap="round" stroke-linejoin="round"/>
<path d="M232.51 342C227.51 347.26 217.14 355.89 204.51 353C205.51 351.19 206.65 346.88 203.58 338.27H231.65C231.852 339.531 232.14 340.777 232.51 342V342Z" fill="#263238"/>
<path d="M247.9 290.89C247.9 290.89 252.03 287.57 254.12 289.73C256.21 291.89 255.24 306.06 254.8 307.62C254.36 309.18 253.8 308.44 252.12 313.62C250.44 318.8 248.8 316.99 248.31 314.33" fill="white"/>
<path d="M247.9 290.89C247.9 290.89 252.03 287.57 254.12 289.73C256.21 291.89 255.24 306.06 254.8 307.62C254.36 309.18 253.8 308.44 252.12 313.62C250.44 318.8 248.8 316.99 248.31 314.33" stroke="#263238" stroke-width="1.05369" stroke-linecap="round" stroke-linejoin="round"/>
<path d="M175.12 304.41C175.12 304.41 170.07 302.8 168.89 305.57C167.71 308.34 173.71 321.21 174.69 322.51C175.67 323.81 175.88 322.92 179.34 327.15C182.8 331.38 183.65 329.15 183.16 326.45" fill="white"/>
<path d="M175.12 304.41C175.12 304.41 170.07 302.8 168.89 305.57C167.71 308.34 173.71 321.21 174.69 322.51C175.67 323.81 175.88 322.92 179.34 327.15C182.8 331.38 183.65 329.15 183.16 326.45" stroke="#263238" stroke-width="1.05369" stroke-linecap="round" stroke-linejoin="round"/>
<path d="M203.781 254.43C232.151 249.16 242.421 271.81 247.091 294.98C254.601 332.25 238.471 339.91 219.551 343.43C200.211 347.02 186.921 348.83 176.731 306.72C171.291 284.25 175.941 259.6 203.781 254.43Z" fill="white" stroke="#263238" stroke-width="1.05369" stroke-linecap="round" stroke-linejoin="round"/>
<path d="M200.43 286.63C200.43 286.63 192.27 283.77 186.54 294.02" stroke="#263238" stroke-width="1.05369" stroke-linecap="round" stroke-linejoin="round"/>
<path d="M218.07 282.68C218.07 282.68 226.07 277.91 234.58 285.09" stroke="#263238" stroke-width="1.05369" stroke-linecap="round" stroke-linejoin="round"/>
<path d="M200.2 300.57C200.62 302.86 199.74 304.94 198.2 305.22C196.66 305.5 195.13 303.88 194.7 301.59C194.27 299.3 195.16 297.22 196.7 296.94C198.24 296.66 199.77 298.28 200.2 300.57Z" fill="#263238"/>
<path d="M228.45 295.32C228.87 297.61 227.99 299.7 226.45 299.98C224.91 300.26 223.37 298.63 222.94 296.34C222.51 294.05 223.4 291.97 224.94 291.69C226.48 291.41 228 293 228.45 295.32Z" fill="#263238"/>
<path d="M242.84 264.27C240.491 260.726 237.421 257.718 233.83 255.441C230.239 253.165 226.208 251.672 222 251.06C210.28 245.06 192.17 249.06 177.74 259.28C163.31 269.5 170.41 290.11 170.6 291.61C171.66 300.18 177.97 311.37 177.97 311.37C177.97 311.37 178.63 292.82 180.66 286.83C181.15 279.16 185.24 271.16 185.24 271.16C184.06 274.16 184.3 279.38 184.63 282.75C185.29 282.28 186 281.8 186.71 281.33C186.71 281.33 188.19 280.4 190.71 279.15C191.16 276.15 192.34 271.44 195.41 269.27C193.677 271.908 192.772 275.004 192.81 278.16C196.621 276.423 200.594 275.063 204.67 274.1L206.4 273.74C207.167 272.552 207.998 271.407 208.89 270.31C211.54 267.11 212.05 265.26 212.05 265.26C212.05 265.26 212.82 266.71 208.43 273.38C210.305 273.054 212.207 272.907 214.11 272.94C216.075 269.724 217.31 266.116 217.73 262.37C217.905 266.047 217.245 269.715 215.8 273.1C218.85 270.38 220.89 261.1 220.89 261.1C230.29 261.48 232.28 268.74 233.55 271.05C234.82 273.36 238.03 275.73 240.31 280.41C242.59 285.09 248 300.21 248 300.21C248 300.21 250.81 276.35 242.84 264.27Z" fill="#263238"/>
<path d="M242.46 306C242.46 306 245.92 303.6 248.46 292.13" stroke="#263238" stroke-width="1.05369" stroke-linecap="round" stroke-linejoin="round"/>
<path d="M186.18 316.41C186.18 316.41 180.18 315.07 176.73 306.72" stroke="#263238" stroke-width="1.05369" stroke-linecap="round" stroke-linejoin="round"/>
<path d="M183.471 315.51C183.471 315.51 206.121 304.14 211.981 302.67C217.841 301.2 244.671 304.13 244.671 304.13C244.671 304.13 245.791 329.79 241.951 335.87C238.111 341.95 212.831 350.01 197.951 344.69C194.001 343.29 183.471 315.51 183.471 315.51Z" fill="#087E68" stroke="#263238" stroke-width="1.05369" stroke-linecap="round" stroke-linejoin="round"/>
<path d="M276.001 277.22C276.001 277.22 275.801 276.48 275.431 275.22C273.311 270.55 269.861 263.75 266.141 259.67C268.354 261.55 270.323 263.7 272.001 266.07C268.721 258.75 263.501 250.57 256.661 250.88C244.371 251.44 234.221 267.16 234.221 267.16L237.881 271.26L238.881 272.34C238.881 272.34 247.411 264.23 252.711 266.34C258.011 268.45 264.501 290.72 264.501 290.72C265.103 286.795 264.957 282.791 264.071 278.92C266.841 284.63 268.881 289.92 268.881 289.92C270.796 288.772 272.424 287.202 273.641 285.33C272.691 280.94 271.041 275.33 268.381 271.57C268.381 271.57 272.051 274.31 275.221 282.06C275.759 280.504 276.023 278.866 276.001 277.22V277.22Z" fill="#263238"/>
<path d="M144.73 301.6C144.73 301.6 144.65 300.84 144.56 299.6C144.86 294.49 145.64 286.89 147.65 281.75C146.257 284.299 145.192 287.014 144.48 289.83C144.91 281.83 146.84 272.31 153.34 270.15C165.01 266.25 180.12 277.28 180.12 277.28L178.18 282.42L177.67 283.77C177.67 283.77 166.79 279.26 162.6 283.12C158.41 286.98 160.35 310.12 160.35 310.12C158.385 306.67 157.086 302.88 156.52 298.95C155.99 305.28 155.98 310.95 155.98 310.95C153.78 310.572 151.697 309.692 149.89 308.38C149.2 303.94 148.71 298.08 149.89 293.65C149.89 293.65 147.46 297.53 147.28 305.9C146.186 304.627 145.323 303.171 144.73 301.6Z" fill="#263238"/>
<path d="M54.1904 425.61H440.47" stroke="#263238" stroke-width="1.05369" stroke-linecap="round" stroke-linejoin="round"/>
<path d="M169.2 415.74C169.2 415.74 213.47 424.44 224.48 423.4C235.49 422.36 248.65 415.34 253.73 417.66C258.81 419.98 265.81 432.66 266.94 434.55C268.07 436.44 261.22 440.17 257.39 439.98C255.043 439.691 252.77 438.966 250.69 437.84C250.69 437.84 247.22 445.34 228.31 439.41C228.31 439.41 168.31 450.69 153.14 438.41C143.66 430.74 146.41 423.69 153.49 419.56" fill="white"/>
<path d="M169.2 415.74C169.2 415.74 213.47 424.44 224.48 423.4C235.49 422.36 248.65 415.34 253.73 417.66C258.81 419.98 265.81 432.66 266.94 434.55C268.07 436.44 261.22 440.17 257.39 439.98C255.043 439.691 252.77 438.966 250.69 437.84C250.69 437.84 247.22 445.34 228.31 439.41C228.31 439.41 168.31 450.69 153.14 438.41C143.66 430.74 146.41 423.69 153.49 419.56" stroke="#263238" stroke-width="1.05369" stroke-linecap="round" stroke-linejoin="round"/>
<path d="M250.69 437.84C250.69 437.84 248.9 434.18 254.69 432.55C254.69 432.55 257.02 427.71 256.29 425.09" stroke="#263238" stroke-width="1.05369" stroke-linecap="round" stroke-linejoin="round"/>
<path d="M254.7 432.55C254.7 432.55 257.25 435.68 260.45 434.98" stroke="#263238" stroke-width="1.05369" stroke-linecap="round" stroke-linejoin="round"/>
<path d="M228.311 439.41C228.311 439.41 229.591 437.84 228.311 433.6" stroke="#263238" stroke-width="1.05369" stroke-linecap="round" stroke-linejoin="round"/>
<g opacity="0.2">
<path opacity="0.2" d="M212.321 253.17C210.745 259.589 207.406 265.439 202.681 270.06" stroke="white" stroke-width="1.05369" stroke-linecap="round" stroke-linejoin="round"/>
<path opacity="0.2" d="M216.481 253.17C216.481 253.17 216.811 261.58 214.141 267.8" stroke="white" stroke-width="1.05369" stroke-linecap="round" stroke-linejoin="round"/>
<path opacity="0.2" d="M205.37 254.85C202.59 260.27 191.37 264.71 188.7 274.44" stroke="white" stroke-width="1.05369" stroke-linecap="round" stroke-linejoin="round"/>
<path opacity="0.2" d="M192.171 257.77C190.781 258.6 179.061 266.06 178.391 276.09" stroke="white" stroke-width="1.05369" stroke-linecap="round" stroke-linejoin="round"/>
</g>
<path d="M260.45 364.65C260.45 364.65 255.06 402.27 226.32 418.11" stroke="#263238" stroke-width="1.05369" stroke-linecap="round" stroke-linejoin="round"/>
<path d="M281.79 291.71C284.29 293.06 293.03 288.07 293.03 288.07" stroke="#263238" stroke-width="1.05369" stroke-linecap="round" stroke-linejoin="round"/>
<path d="M279.731 451.77L270.561 436.77C270.561 436.77 303.791 433.97 310.091 431.45C316.391 428.93 329.311 434.51 329.311 434.51C329.311 434.51 337.081 427.96 347.551 429.32C363.941 431.45 381.251 431.49 383.421 431.67L403.001 444.13C403.001 444.13 357.001 446 345.461 451L337.511 452.25C337.511 452.25 303.911 450.78 279.731 451.77Z" fill="#087E68" stroke="#263238" stroke-width="1.05369" stroke-linecap="round" stroke-linejoin="round"/>
<path d="M273 435.22L281.33 449.17C281.33 449.17 325.73 446.25 337.61 450.42L341.91 449.17C341.91 449.17 359.84 441.76 392.91 442.54L376.79 428.74C376.79 428.74 344.9 412.05 329.06 429.15C329.06 429.15 325.9 425.57 310.72 423.32C295.54 421.07 273 435.22 273 435.22Z" fill="white" stroke="#263238" stroke-width="1.05369" stroke-linecap="round" stroke-linejoin="round"/>
<path d="M329.101 429.15L338.901 444.15C338.901 444.15 346.611 437.51 361.821 435.95C371.121 435.069 380.486 436.724 388.921 440.74" stroke="#263238" stroke-width="1.05369" stroke-linecap="round" stroke-linejoin="round"/>
<path d="M338.9 444.13C338.9 444.13 331.81 440 317 437.84C302.19 435.68 285.08 446.46 285.08 446.46" fill="white"/>
<path d="M338.9 444.13C338.9 444.13 331.81 440 317 437.84C302.19 435.68 285.08 446.46 285.08 446.46" stroke="#263238" stroke-width="1.05369" stroke-linecap="round" stroke-linejoin="round"/>
<path d="M294.71 445.21C302.551 442.55 310.838 441.46 319.1 442C331.81 443.11 338.9 446.27 338.9 446.27C338.9 446.27 363.05 434.98 381.4 440.71" stroke="#263238" stroke-width="1.05369" stroke-linecap="round" stroke-linejoin="round"/>
<path d="M334.37 447.55C334.901 446.86 335.589 446.305 336.377 445.933C337.164 445.561 338.029 445.382 338.9 445.41C342.02 445.41 341.95 447.55 341.95 447.55" fill="white"/>
<path d="M334.37 447.55C334.901 446.86 335.589 446.305 336.377 445.933C337.164 445.561 338.029 445.382 338.9 445.41C342.02 445.41 341.95 447.55 341.95 447.55" stroke="#263238" stroke-width="1.05369" stroke-linecap="round" stroke-linejoin="round"/>
<path d="M141.937 121.66V105.376L179.225 52.0401H201.763V104.196H211.439V121.66H201.763V137H181.585V121.66H141.937ZM183.001 74.2241L163.177 104.196H183.001V74.2241Z" fill="#087E68"/>
<path d="M221.322 92.7501C221.322 79.2194 223.918 68.5601 229.11 60.7721C234.381 52.9841 242.837 49.0901 254.48 49.0901C266.123 49.0901 274.54 52.9841 279.732 60.7721C285.003 68.5601 287.638 79.2194 287.638 92.7501C287.638 106.438 285.003 117.176 279.732 124.964C274.54 132.752 266.123 136.646 254.48 136.646C242.837 136.646 234.381 132.752 229.11 124.964C223.918 117.176 221.322 106.438 221.322 92.7501ZM267.814 92.7501C267.814 84.8048 266.949 78.7081 265.218 74.4601C263.487 70.1334 259.908 67.9701 254.48 67.9701C249.052 67.9701 245.473 70.1334 243.742 74.4601C242.011 78.7081 241.146 84.8048 241.146 92.7501C241.146 98.0994 241.461 102.544 242.09 106.084C242.719 109.545 243.978 112.377 245.866 114.58C247.833 116.704 250.704 117.766 254.48 117.766C258.256 117.766 261.088 116.704 262.976 114.58C264.943 112.377 266.241 109.545 266.87 106.084C267.499 102.544 267.814 98.0994 267.814 92.7501Z" fill="#087E68"/>
<path d="M298.771 121.66V105.376L336.059 52.0401H358.597V104.196H368.273V121.66H358.597V137H338.419V121.66H298.771ZM339.835 74.2241L320.011 104.196H339.835V74.2241Z" fill="#087E68"/>
</svg>
