<svg width="19" height="19" viewBox="0 0 19 19" fill="none" xmlns="http://www.w3.org/2000/svg">
<path d="M11.3158 9.0146L18.3247 2.00554C18.7808 1.54963 18.7808 0.812491 18.3247 0.356581C17.8688 -0.0993291 17.1316 -0.0993291 16.6757 0.356581L9.66665 7.36564L2.65781 0.356581C2.20168 -0.0993291 1.46475 -0.0993291 1.00884 0.356581C0.552717 0.812491 0.552717 1.54963 1.00884 2.00554L8.01769 9.0146L1.00884 16.0237C0.552717 16.4796 0.552717 17.2167 1.00884 17.6726C1.23605 17.9 1.53479 18.0143 1.83332 18.0143C2.13185 18.0143 2.43038 17.9 2.65781 17.6726L9.66665 10.6636L16.6757 17.6726C16.9031 17.9 17.2017 18.0143 17.5002 18.0143C17.7987 18.0143 18.0973 17.9 18.3247 17.6726C18.7808 17.2167 18.7808 16.4796 18.3247 16.0237L11.3158 9.0146Z" fill="white"/>
</svg>
