<svg width="541" height="447" viewBox="0 0 541 447" fill="none" xmlns="http://www.w3.org/2000/svg">
<path d="M155.939 363.851C142.168 359.839 126.88 365.358 123.233 368.437C118.643 365.571 120.938 359.839 118.643 355.253C108.978 351.993 99.4669 359.114 94.5434 359.839C89.6199 360.563 95.4017 381.873 93.3958 384.771C91.39 387.668 87.525 384.227 86.978 387.125C86.4309 390.022 83.8724 403.309 80.7724 408.56C77.6725 413.812 76.7663 411.21 75.8545 416.462C74.9427 421.714 72.5722 428.957 72.7545 432.036C72.9369 435.115 69.2899 433.666 68.7428 435.115C68.1958 436.563 68.7428 439.823 69.6546 441.996C70.5033 444.019 66.4534 443.217 62.6534 445.142C62.8748 445.38 62.6543 445.551 61.8135 445.618C62.0907 445.443 62.3714 445.285 62.6534 445.142C61.6747 444.091 52.0569 441.748 49.2312 441.453C45.7666 441.091 46.1313 438.012 48.5018 434.39C50.8724 430.768 53.0606 423.162 49.7783 420.084C46.496 417.005 42.4843 411.572 38.1078 412.478C33.7314 413.383 32.0902 414.832 29.355 418.635C26.6197 422.438 23.8844 427.509 20.4198 426.603C16.9551 425.698 18.5963 419.178 18.7786 415.013C18.961 410.848 23.7021 409.399 25.1609 407.77C26.6197 406.14 29.7197 401.069 30.8138 395.093C31.9079 389.117 34.6432 385.314 36.8314 384.771C39.0196 384.227 39.0196 382.779 38.4725 380.787C37.9255 378.795 38.8372 370.464 41.0255 365.031C43.2137 359.599 43.5784 357.425 42.6666 351.63C49.596 349.838 39.7804 335.16 46.345 338.057C46.345 342.07 47.5901 347.664 48.5018 348.371C49.4136 349.076 53.9112 342.161 56.0994 340.35C58.2877 338.539 56.0994 330.033 63.5587 327.167C68.0343 325.447 70.4709 326.715 71.018 325.447C75.0345 312.263 69.5324 310.486 70.4442 305.958C71.3559 301.431 51.5359 312.114 52.0829 309.397C52.63 306.681 52.1364 303.546 53.2305 301.373L54.9519 297.933C54.9519 297.933 54.0575 270.58 61.8373 262.968C58.3129 256.811 59.0169 244.544 56.3429 238.749C58.3946 222.845 41.2092 202.179 36.5906 200.49C31.972 198.801 26.7422 235.61 25.8903 238.749C25.0384 241.887 22.3644 246.112 18.8384 246.474C15.3139 246.836 13.9777 247.804 14.3424 241.285C14.7071 234.765 16.8938 231.143 15.5561 227.159C14.2198 223.175 10.4503 221.002 10.5728 217.38C10.6953 213.758 11.6669 208.808 17.3796 205.79C23.0952 202.771 22.7305 198.545 22.9727 195.527C23.2148 192.51 25.6481 183.575 19.0835 184.299C12.5189 185.024 12.0316 183.937 11.9091 178.988C10.0856 176.793 7.53265 172.059 11.9091 170.684C17.3796 168.964 30.2789 166.671 27.9837 137.438C25.6885 108.205 54.9518 112.791 72.1656 77.2526C89.3792 41.7143 15.3139 123.682 22.9727 140.877C16.9925 141.833 5.8354 135.145 9.04863 100.754C1.15328 74.0044 -8.73884 28.5308 21.8786 7.32252C26.8956 3.8473 44.0499 22.7988 46.9188 15.3472C74.7604 -4.71467 90.6654 1.83139 97.4123 2.73686C114.878 5.08077 135.808 33.1762 138.725 34.2628C141.643 35.3493 158.234 38.2751 167.395 33.1164C169.036 36.9194 239.138 6.74933 231.105 64.0691C236.843 33.1163 247.605 107.749 248.893 109.352C252.909 111.453 266.107 120.816 270.697 132.279C273.533 139.361 273.595 145.349 272.777 149.568C277.417 140.579 289.411 129.663 313.731 132.279C314.305 118.714 318.322 91.0093 329.797 88.7165C341.273 86.4237 350.263 95.7859 353.323 100.754C362.312 94.8306 375.815 78.2843 357.913 59.4834C365.755 45.7267 384.537 26.4672 396.931 59.4834C412.423 100.754 453.736 66.3619 476.688 136.865C481.852 140.304 492.754 145.119 495.049 136.865C497.918 126.548 521.443 125.401 529.476 140.304C537.509 155.207 563.33 225.138 484.721 190.172C483.956 176.798 479.786 151.08 469.228 155.207C456.031 160.366 464.064 194.758 437.67 190.172C431.741 202.401 413.226 226.055 386.603 222.845C359.979 219.635 342.612 266.599 337.257 290.482C338.404 315.129 322.338 363.278 248.893 358.692C250.041 339.395 246.713 298.736 224.22 290.482C225.368 274.624 226.974 235.34 224.22 205.076C221.16 219.597 211.826 251.504 198.973 262.968C199.338 270.936 199.053 274.58 200.695 280.738C202.336 286.895 198.689 282.818 200.695 285.896C202.7 288.975 208.438 296.031 206.432 299.653C204.427 303.275 204.711 307.949 204.711 309.397C204.711 310.846 198.737 328.403 197.826 330.033C196.914 331.662 196.041 336.918 186.924 339.204C187.288 341.558 177.035 348.435 174.3 349.521C171.565 350.608 161.045 359.324 155.939 363.851Z" fill="#E4ECFF"/>
<path d="M62.6534 445.142C61.6747 444.091 52.0569 441.748 49.2312 441.453C45.7666 441.091 46.1313 438.012 48.5018 434.39C50.8724 430.768 53.0606 423.162 49.7783 420.084C46.496 417.005 42.4843 411.572 38.1078 412.478C33.7314 413.383 32.0902 414.832 29.355 418.635C26.6197 422.438 23.8844 427.509 20.4198 426.603C16.9551 425.698 18.5963 419.178 18.7786 415.013C18.961 410.848 23.7021 409.399 25.1609 407.769C26.6197 406.14 29.7197 401.069 30.8138 395.093C31.9079 389.117 34.6432 385.314 36.8314 384.771C39.0196 384.227 39.0196 382.779 38.4725 380.787C37.9255 378.795 38.8372 370.464 41.0255 365.031C43.2137 359.599 43.5784 357.425 42.6666 351.63C49.596 349.838 39.7804 335.16 46.345 338.057C46.345 342.07 47.5901 347.664 48.5018 348.371C49.4136 349.076 53.9112 342.161 56.0994 340.35C58.2877 338.539 56.0994 330.033 63.5587 327.167C68.0343 325.447 70.4709 326.715 71.018 325.447C75.0345 312.263 69.5324 310.486 70.4442 305.958C71.3559 301.431 51.5359 312.114 52.0829 309.397C52.63 306.681 52.1364 303.546 53.2305 301.373L54.9519 297.933C54.9519 297.933 54.0575 270.58 61.8373 262.968C58.3129 256.811 59.0169 244.544 56.3429 238.749C58.3946 222.845 41.2092 202.179 36.5906 200.49C31.972 198.801 26.7422 235.61 25.8903 238.749C25.0384 241.887 22.3644 246.112 18.8384 246.474C15.3139 246.836 13.9777 247.804 14.3424 241.285C14.7071 234.765 16.8938 231.143 15.5561 227.159C14.2198 223.175 10.4503 221.002 10.5728 217.38C10.6953 213.758 11.6669 208.808 17.3796 205.79C23.0952 202.771 22.7305 198.545 22.9727 195.527C23.2148 192.51 25.6481 183.575 19.0835 184.299C12.5189 185.024 12.0316 183.937 11.9091 178.988C10.0856 176.793 7.53265 172.059 11.9091 170.684C17.3796 168.964 30.2789 166.671 27.9837 137.438C25.6885 108.205 54.9518 112.791 72.1655 77.2526C89.3793 41.7143 15.3139 123.682 22.9727 140.877C16.9925 141.833 5.8354 135.145 9.04863 100.754C1.15328 74.0045 -8.73884 28.5308 21.8786 7.32252C26.8956 3.8473 44.0498 22.7988 46.9188 15.3472C74.7604 -4.71467 90.6654 1.83139 97.4123 2.73686C114.878 5.08077 135.808 33.1762 138.725 34.2628C141.643 35.3493 158.234 38.2751 167.395 33.1164C169.036 36.9194 239.138 6.74933 231.105 64.0691C236.843 33.1163 247.605 107.749 248.893 109.352C252.909 111.453 266.107 120.816 270.697 132.279C273.533 139.361 273.595 145.349 272.777 149.568M62.6534 445.142C62.8748 445.38 62.6543 445.551 61.8135 445.618C62.0907 445.443 62.3714 445.285 62.6534 445.142ZM62.6534 445.142C66.4534 443.217 70.5033 444.019 69.6546 441.996C68.7428 439.823 68.1958 436.563 68.7428 435.115C69.2899 433.666 72.9369 435.115 72.7545 432.036C72.5722 428.957 74.9427 421.714 75.8545 416.462C76.7663 411.21 77.6725 413.812 80.7724 408.56C83.8724 403.309 86.4309 390.022 86.978 387.125C87.525 384.227 91.39 387.668 93.3958 384.771C95.4017 381.873 89.6199 360.563 94.5434 359.839C99.4669 359.114 108.978 351.993 118.643 355.253C120.938 359.839 118.643 365.571 123.233 368.437C126.88 365.358 142.168 359.839 155.939 363.851C161.045 359.324 171.565 350.608 174.3 349.521C177.035 348.435 187.288 341.558 186.924 339.204C196.041 336.918 196.914 331.662 197.826 330.033C198.737 328.403 204.711 310.846 204.711 309.397C204.711 307.949 204.427 303.275 206.432 299.653C208.438 296.031 202.7 288.975 200.694 285.896C198.689 282.818 202.336 286.895 200.694 280.738C199.053 274.58 199.338 270.937 198.973 262.968C211.826 251.504 221.16 219.597 224.22 205.076C226.974 235.34 225.368 274.624 224.22 290.482C246.713 298.736 250.041 339.395 248.893 358.692C322.338 363.278 338.404 315.129 337.257 290.482C342.612 266.599 359.979 219.635 386.603 222.845C413.226 226.055 431.741 202.401 437.67 190.172C464.064 194.758 456.031 160.366 469.228 155.207C479.786 151.08 483.956 176.798 484.721 190.172C563.33 225.138 537.509 155.207 529.476 140.304C521.443 125.401 497.918 126.548 495.049 136.865C492.754 145.119 481.852 140.304 476.688 136.865C453.736 66.3619 412.423 100.754 396.931 59.4834C384.537 26.4672 365.755 45.7267 357.913 59.4834C375.815 78.2843 362.312 94.8306 353.323 100.754C350.263 95.7859 341.273 86.4237 329.797 88.7165C318.322 91.0093 314.305 118.714 313.731 132.279C289.411 129.663 277.417 140.579 272.777 149.568M272.777 149.568C272.271 152.179 271.428 154.112 270.697 155.207C271.051 153.547 271.725 151.607 272.777 149.568Z" stroke="#274BA0"/>
<g opacity="0.75">
<path d="M137.26 285.379C137.743 285.498 138.124 285.762 138.405 286.17C138.693 286.57 138.837 287.03 138.837 287.549C138.837 288.315 138.596 288.915 138.113 289.349C137.63 289.783 136.952 290 136.079 290H132V281H135.951C136.792 281 137.45 281.204 137.926 281.613C138.409 282.021 138.65 282.596 138.65 283.336C138.65 283.864 138.522 284.306 138.265 284.664C138.015 285.013 137.68 285.251 137.26 285.379ZM134.291 284.574H135.448C136.025 284.574 136.313 284.315 136.313 283.796C136.313 283.26 136.025 282.991 135.448 282.991H134.291V284.574ZM135.623 287.983C136.2 287.983 136.488 287.719 136.488 287.191C136.488 286.919 136.41 286.711 136.254 286.566C136.106 286.421 135.892 286.349 135.612 286.349H134.291V287.983H135.623Z" fill="#274BA0"/>
<path d="M145.054 288.532H142.132L141.688 290H139.28L142.284 281H144.926L147.918 290H145.498L145.054 288.532ZM144.482 286.617L143.593 283.706L142.717 286.617H144.482Z" fill="#274BA0"/>
<path d="M156.297 290H154.006L150.955 284.97V290H148.664V281H150.955L154.006 286.094V281H156.297V290Z" fill="#274BA0"/>
<path d="M160.863 281C161.727 281 162.483 281.191 163.13 281.574C163.785 281.949 164.287 282.477 164.638 283.157C164.988 283.838 165.164 284.617 165.164 285.494C165.164 286.362 164.984 287.136 164.626 287.817C164.275 288.498 163.773 289.034 163.118 289.426C162.472 289.809 161.72 290 160.863 290H157.602V281H160.863ZM160.687 287.791C161.357 287.791 161.883 287.591 162.265 287.191C162.647 286.791 162.838 286.226 162.838 285.494C162.838 284.753 162.647 284.183 162.265 283.783C161.883 283.374 161.357 283.17 160.687 283.17H159.892V287.791H160.687Z" fill="#274BA0"/>
<path d="M170.369 290L168.733 286.681H168.487V290H166.196V281H169.808C170.47 281 171.031 281.128 171.491 281.383C171.951 281.63 172.297 281.974 172.531 282.417C172.765 282.851 172.882 283.34 172.882 283.885C172.882 284.498 172.726 285.038 172.414 285.506C172.11 285.966 171.662 286.294 171.07 286.489L172.929 290H170.369ZM168.487 284.97H169.621C169.933 284.97 170.166 284.889 170.322 284.728C170.478 284.566 170.556 284.332 170.556 284.026C170.556 283.736 170.474 283.511 170.311 283.349C170.155 283.179 169.925 283.094 169.621 283.094H168.487V284.97Z" fill="#274BA0"/>
<path d="M179.136 288.532H176.214L175.77 290H173.363L176.366 281H179.008L182 290H179.581L179.136 288.532ZM178.564 286.617L177.675 283.706L176.799 286.617H178.564Z" fill="#274BA0"/>
<path d="M415.19 117L412.969 113.932V117H411V110H412.969V113.018L415.17 110H417.44L414.838 113.396L417.571 117H415.19Z" fill="#274BA0"/>
<path d="M422.771 115.858H420.259L419.878 117H417.808L420.39 110H422.661L425.233 117H423.153L422.771 115.858ZM422.279 114.369L421.515 112.105L420.762 114.369H422.279Z" fill="#274BA0"/>
<path d="M427.844 115.511H430.044V117H425.875V110H427.844V115.511Z" fill="#274BA0"/>
<path d="M437.25 110L434.758 114.776V117H432.779V114.776L430.287 110H432.538L433.784 112.701L435.03 110H437.25Z" fill="#274BA0"/>
<path d="M442.336 115.858H439.824L439.442 117H437.372L439.955 110H442.225L444.797 117H442.718L442.336 115.858ZM441.843 114.369L441.08 112.105L440.326 114.369H441.843Z" fill="#274BA0"/>
<path d="M452 117H450.031L447.408 113.088V117H445.439V110H447.408L450.031 113.962V110H452V117Z" fill="#274BA0"/>
<path d="M303.125 163.122C303.954 163.122 304.678 163.288 305.298 163.62C305.925 163.944 306.407 164.402 306.743 164.992C307.079 165.582 307.247 166.257 307.247 167.017C307.247 167.769 307.075 168.44 306.732 169.03C306.396 169.621 305.914 170.085 305.287 170.425C304.667 170.757 303.946 170.923 303.125 170.923H300V163.122H303.125ZM302.957 169.008C303.599 169.008 304.103 168.835 304.469 168.488C304.835 168.142 305.018 167.651 305.018 167.017C305.018 166.375 304.835 165.881 304.469 165.534C304.103 165.18 303.599 165.003 302.957 165.003H302.195V169.008H302.957Z" fill="#274BA0"/>
<path d="M312.022 171C311.283 171 310.603 170.83 309.984 170.491C309.364 170.144 308.871 169.669 308.505 169.064C308.147 168.451 307.968 167.762 307.968 166.994C307.968 166.227 308.147 165.541 308.505 164.936C308.871 164.324 309.364 163.848 309.984 163.509C310.603 163.17 311.283 163 312.022 163C312.769 163 313.448 163.17 314.061 163.509C314.68 163.848 315.17 164.324 315.528 164.936C315.886 165.541 316.066 166.227 316.066 166.994C316.066 167.762 315.886 168.451 315.528 169.064C315.17 169.669 314.68 170.144 314.061 170.491C313.441 170.83 312.761 171 312.022 171ZM312.022 168.986C312.582 168.986 313.023 168.805 313.344 168.444C313.672 168.083 313.837 167.599 313.837 166.994C313.837 166.375 313.672 165.888 313.344 165.534C313.023 165.172 312.582 164.992 312.022 164.992C311.455 164.992 311.01 165.172 310.689 165.534C310.368 165.888 310.208 166.375 310.208 166.994C310.208 167.607 310.368 168.094 310.689 168.455C311.01 168.809 311.455 168.986 312.022 168.986Z" fill="#274BA0"/>
<path d="M326.271 163.122V170.923H324.075V166.618L322.586 170.923H320.749L319.248 166.585V170.923H317.052V163.122H319.707L321.689 168.189L323.627 163.122H326.271Z" fill="#274BA0"/>
<path d="M332.56 166.917C333.023 167.02 333.389 167.249 333.658 167.603C333.934 167.95 334.073 168.348 334.073 168.798C334.073 169.462 333.841 169.982 333.378 170.358C332.915 170.734 332.265 170.923 331.429 170.923H327.52V163.122H331.306C332.112 163.122 332.743 163.299 333.199 163.653C333.662 164.007 333.893 164.505 333.893 165.147C333.893 165.604 333.77 165.988 333.524 166.297C333.285 166.6 332.964 166.806 332.56 166.917ZM329.715 166.22H330.824C331.377 166.22 331.653 165.995 331.653 165.545C331.653 165.08 331.377 164.848 330.824 164.848H329.715V166.22ZM330.992 169.174C331.545 169.174 331.821 168.946 331.821 168.488C331.821 168.252 331.747 168.071 331.597 167.946C331.455 167.821 331.25 167.758 330.981 167.758H329.715V169.174H330.992Z" fill="#274BA0"/>
<path d="M337.23 163.122V170.923H335.035V163.122H337.23Z" fill="#274BA0"/>
<path d="M346.164 163.122L343.442 170.923H340.631L337.898 163.122H340.25L342.042 168.754L343.823 163.122H346.164Z" fill="#274BA0"/>
<path d="M351.843 169.65H349.043L348.617 170.923H346.31L349.189 163.122H351.72L354.587 170.923H352.269L351.843 169.65ZM351.294 167.99L350.443 165.467L349.603 167.99H351.294Z" fill="#274BA0"/>
<path d="M357.498 169.263H359.951V170.923H355.303V163.122H357.498V169.263Z" fill="#274BA0"/>
<path d="M363 163.122V170.923H360.805V163.122H363Z" fill="#274BA0"/>
<path d="M136.882 213.695H133.905L133.453 215H131L134.06 207H136.751L139.8 215H137.335L136.882 213.695ZM136.299 211.993L135.394 209.406L134.501 211.993H136.299Z" fill="#274BA0"/>
<path d="M148.336 215H146.002L142.894 210.529V215H140.56V207H142.894L146.002 211.528V207H148.336V215Z" fill="#274BA0"/>
<path d="M152.987 207C153.868 207 154.638 207.17 155.297 207.511C155.964 207.843 156.476 208.313 156.833 208.918C157.191 209.523 157.369 210.215 157.369 210.994C157.369 211.766 157.187 212.454 156.821 213.06C156.464 213.665 155.952 214.141 155.285 214.489C154.627 214.83 153.861 215 152.987 215H149.665V207H152.987ZM152.809 213.037C153.491 213.037 154.027 212.859 154.416 212.504C154.805 212.148 155 211.645 155 210.994C155 210.336 154.805 209.829 154.416 209.474C154.027 209.111 153.491 208.929 152.809 208.929H151.999V213.037H152.809Z" fill="#274BA0"/>
<path d="M165.935 207V215H163.601V211.789H160.755V215H158.421V207H160.755V210.007H163.601V207H165.935Z" fill="#274BA0"/>
<path d="M169.604 208.782V210.087H172.283V211.777H169.604V213.218H172.641V215H167.27V207H172.641V208.782H169.604Z" fill="#274BA0"/>
<path d="M178.045 215L176.378 212.05H176.128V215H173.794V207H177.473C178.148 207 178.719 207.113 179.188 207.34C179.656 207.56 180.009 207.866 180.248 208.26C180.486 208.645 180.605 209.08 180.605 209.565C180.605 210.109 180.446 210.59 180.129 211.006C179.819 211.414 179.362 211.705 178.759 211.879L180.652 215H178.045ZM176.128 210.529H177.283C177.6 210.529 177.838 210.457 177.997 210.313C178.156 210.17 178.235 209.962 178.235 209.689C178.235 209.432 178.152 209.232 177.985 209.088C177.826 208.937 177.592 208.861 177.283 208.861H176.128V210.529Z" fill="#274BA0"/>
<path d="M184 207V215H181.666V207H184Z" fill="#274BA0"/>
<path d="M74.8493 134.407C75.3866 134.523 75.8112 134.78 76.1232 135.178C76.4438 135.568 76.6041 136.017 76.6041 136.523C76.6041 137.27 76.3355 137.855 75.7982 138.278C75.2609 138.701 74.507 138.913 73.5365 138.913H69V130.137H73.3935C74.3294 130.137 75.0616 130.336 75.5902 130.734C76.1275 131.133 76.3961 131.693 76.3961 132.415C76.3961 132.929 76.2532 133.361 75.9672 133.71C75.6899 134.05 75.3173 134.282 74.8493 134.407ZM71.5477 133.622H72.8346C73.4758 133.622 73.7964 133.369 73.7964 132.863C73.7964 132.34 73.4758 132.079 72.8346 132.079H71.5477V133.622ZM73.0295 136.946C73.6708 136.946 73.9914 136.689 73.9914 136.174C73.9914 135.909 73.9048 135.705 73.7314 135.564C73.5668 135.423 73.3285 135.353 73.0165 135.353H71.5477V136.946H73.0295Z" fill="#274BA0"/>
<path d="M82.1142 139C81.2563 139 80.4677 138.809 79.7484 138.427C79.0292 138.037 78.4572 137.502 78.0326 136.822C77.6167 136.133 77.4087 135.357 77.4087 134.494C77.4087 133.631 77.6167 132.859 78.0326 132.178C78.4572 131.49 79.0292 130.954 79.7484 130.573C80.4677 130.191 81.2563 130 82.1142 130C82.9807 130 83.7693 130.191 84.4799 130.573C85.1991 130.954 85.7667 131.49 86.1827 132.178C86.5986 132.859 86.8066 133.631 86.8066 134.494C86.8066 135.357 86.5986 136.133 86.1827 136.822C85.7667 137.502 85.1991 138.037 84.4799 138.427C83.7606 138.809 82.9721 139 82.1142 139ZM82.1142 136.734C82.7641 136.734 83.2754 136.531 83.648 136.124C84.0293 135.718 84.2199 135.174 84.2199 134.494C84.2199 133.797 84.0293 133.249 83.648 132.851C83.2754 132.444 82.7641 132.241 82.1142 132.241C81.4556 132.241 80.94 132.444 80.5673 132.851C80.1947 133.249 80.0084 133.797 80.0084 134.494C80.0084 135.183 80.1947 135.73 80.5673 136.137C80.94 136.535 81.4556 136.734 82.1142 136.734Z" fill="#274BA0"/>
<path d="M92.5924 138.913L90.7726 135.676H90.4996V138.913H87.9519V130.137H91.9684C92.705 130.137 93.3289 130.261 93.8402 130.51C94.3515 130.751 94.7371 131.087 94.9971 131.519C95.257 131.942 95.387 132.419 95.387 132.95C95.387 133.548 95.2137 134.075 94.8671 134.531C94.5291 134.979 94.0309 135.299 93.3723 135.49L95.439 138.913H92.5924ZM90.4996 134.008H91.7605C92.1071 134.008 92.367 133.929 92.5404 133.772C92.7137 133.614 92.8003 133.386 92.8003 133.087C92.8003 132.805 92.7093 132.585 92.5274 132.427C92.354 132.261 92.0984 132.178 91.7605 132.178H90.4996V134.008Z" fill="#274BA0"/>
<path d="M99.0933 130.137V138.913H96.5456V130.137H99.0933Z" fill="#274BA0"/>
<path d="M109.461 130.137L106.303 138.913H103.04L99.8683 130.137H102.598L104.678 136.473L106.744 130.137H109.461Z" fill="#274BA0"/>
<path d="M116.052 137.481H112.803L112.309 138.913H109.631L112.972 130.137H115.909L119.237 138.913H116.546L116.052 137.481ZM115.415 135.614L114.427 132.776L113.453 135.614H115.415Z" fill="#274BA0"/>
<path d="M122.615 137.046H125.462V138.913H120.067V130.137H122.615V137.046Z" fill="#274BA0"/>
<path d="M129 130.137V138.913H126.452V130.137H129Z" fill="#274BA0"/>
<path d="M266.624 15V29.8525H262.427V21.6573L259.579 29.8525H256.067L253.197 21.5941V29.8525H249V15H254.075L257.865 24.6489L261.57 15H266.624Z" fill="#274BA0"/>
<path d="M273.125 15V23.6166C273.125 24.4171 273.31 25.0351 273.681 25.4705C274.067 25.9059 274.645 26.1236 275.416 26.1236C276.187 26.1236 276.765 25.9059 277.15 25.4705C277.55 25.0211 277.75 24.4031 277.75 23.6166V15H281.947V23.6166C281.947 24.9789 281.654 26.1447 281.069 27.1138C280.484 28.0688 279.684 28.7921 278.671 29.2837C277.671 29.7612 276.558 30 275.33 30C274.102 30 273.003 29.7612 272.032 29.2837C271.076 28.7921 270.319 28.0688 269.762 27.1138C269.22 26.1587 268.949 24.993 268.949 23.6166V15H273.125Z" fill="#274BA0"/>
<path d="M301.882 15V29.8525H297.685V21.6573L294.837 29.8525H291.325L288.455 21.5941V29.8525H284.258V15H289.333L293.123 24.6489L296.828 15H301.882Z" fill="#274BA0"/>
<path d="M313.907 22.2261C314.792 22.4228 315.492 22.8581 316.006 23.5323C316.534 24.1924 316.798 24.9508 316.798 25.8076C316.798 27.0716 316.356 28.0618 315.471 28.7781C314.585 29.4944 313.343 29.8525 311.745 29.8525H304.271V15H311.509C313.051 15 314.257 15.3371 315.128 16.0112C316.013 16.6854 316.456 17.6334 316.456 18.8553C316.456 19.7261 316.22 20.4565 315.749 21.0463C315.292 21.6222 314.678 22.0154 313.907 22.2261ZM308.468 20.8989H310.588C311.645 20.8989 312.173 20.4705 312.173 19.6138C312.173 18.7289 311.645 18.2865 310.588 18.2865H308.468V20.8989ZM310.909 26.5239C311.966 26.5239 312.494 26.0885 312.494 25.2177C312.494 24.7683 312.351 24.4242 312.066 24.1854C311.794 23.9466 311.402 23.8272 310.888 23.8272H308.468V26.5239H310.909Z" fill="#274BA0"/>
<path d="M328.188 27.4298H322.835L322.021 29.8525H317.61L323.113 15H327.953L333.435 29.8525H329.002L328.188 27.4298ZM327.139 24.2697L325.512 19.4663L323.906 24.2697H327.139Z" fill="#274BA0"/>
<path d="M339 15V29.8525H334.803V15H339Z" fill="#274BA0"/>
</g>
<path d="M44.1081 146.87C43.9243 146.931 43.7801 147.075 43.719 147.259L38.0738 164.195C37.9666 164.516 38.1407 164.864 38.4624 164.971C38.6456 165.032 38.8468 165.004 39.0056 164.894L44.3017 161.228L49.5978 164.894C49.8149 165.044 50.1037 165.039 50.3152 164.881C50.3386 164.863 50.3606 164.844 50.3812 164.823C50.5459 164.659 50.6034 164.415 50.5297 164.195L44.8845 147.259C44.7776 146.937 44.4299 146.763 44.1081 146.87Z" fill="#274BA0"/>
<path d="M97.9886 174.384C97.8048 174.445 97.6606 174.589 97.5996 174.773L91.9543 191.708C91.8472 192.03 92.0212 192.378 92.343 192.485C92.5262 192.546 92.7274 192.517 92.8862 192.407L98.1823 188.742L103.478 192.407C103.695 192.558 103.984 192.553 104.196 192.394C104.219 192.377 104.241 192.358 104.262 192.337C104.426 192.173 104.484 191.929 104.41 191.708L98.7651 174.773C98.6581 174.451 98.3104 174.277 97.9886 174.384Z" fill="#274BA0"/>
<path d="M69.3287 196.165C69.145 196.226 69.0008 196.37 68.9397 196.554L63.2944 213.49C63.1873 213.812 63.3613 214.159 63.6831 214.266C63.8663 214.327 64.0675 214.299 64.2263 214.189L69.5224 210.523L74.8185 214.189C75.0355 214.339 75.3244 214.334 75.5359 214.176C75.5592 214.158 75.5813 214.139 75.6019 214.118C75.7665 213.954 75.824 213.711 75.7504 213.49L70.1052 196.554C69.9982 196.232 69.6506 196.058 69.3287 196.165Z" fill="#274BA0"/>
<path d="M116.331 215.654C116.147 215.715 116.003 215.859 115.942 216.043L110.297 232.978C110.189 233.3 110.364 233.648 110.685 233.755C110.868 233.816 111.07 233.787 111.228 233.677L116.525 230.012L121.821 233.677C122.038 233.828 122.327 233.823 122.538 233.664C122.561 233.647 122.583 233.628 122.604 233.607C122.769 233.443 122.826 233.199 122.753 232.978L117.107 216.043C117 215.721 116.653 215.547 116.331 215.654Z" fill="#274BA0"/>
<path d="M139.259 242.021C139.075 242.082 138.931 242.226 138.87 242.41L133.225 259.345C133.117 259.667 133.291 260.015 133.613 260.122C133.796 260.183 133.998 260.154 134.156 260.045L139.453 256.379L144.749 260.045C144.966 260.195 145.255 260.19 145.466 260.031C145.489 260.014 145.511 259.995 145.532 259.974C145.697 259.81 145.754 259.566 145.68 259.345L140.035 242.41C139.928 242.088 139.581 241.914 139.259 242.021Z" fill="#274BA0"/>
<path d="M79.6463 225.971C79.4625 226.032 79.3183 226.176 79.2573 226.36L73.612 243.296C73.5049 243.618 73.6789 243.965 74.0007 244.073C74.1838 244.134 74.3851 244.105 74.5439 243.995L79.84 240.329L85.136 243.995C85.3531 244.145 85.642 244.14 85.8534 243.982C85.8768 243.965 85.8989 243.945 85.9194 243.925C86.0841 243.76 86.1416 243.517 86.0679 243.296L80.4228 226.36C80.3158 226.038 79.9681 225.864 79.6463 225.971Z" fill="#274BA0"/>
<path d="M63.5968 252.338C63.413 252.399 63.2688 252.544 63.2078 252.727L57.5625 269.663C57.4553 269.985 57.6294 270.333 57.9512 270.44C58.1343 270.501 58.3355 270.472 58.4943 270.362L63.7904 266.696L69.0865 270.362C69.3036 270.512 69.5925 270.507 69.8039 270.349C69.8273 270.332 69.8493 270.312 69.8699 270.292C70.0346 270.127 70.0921 269.884 70.0184 269.663L64.3733 252.727C64.2663 252.405 63.9186 252.231 63.5968 252.338Z" fill="#274BA0"/>
<path d="M76.2071 286.73C76.0233 286.791 75.8792 286.935 75.8181 287.119L70.1728 304.055C70.0657 304.377 70.2397 304.724 70.5615 304.832C70.7447 304.893 70.9459 304.864 71.1047 304.754L76.4008 301.088L81.6969 304.754C81.9139 304.904 82.2028 304.899 82.4142 304.741C82.4376 304.723 82.4597 304.704 82.4802 304.684C82.6449 304.519 82.7024 304.276 82.6288 304.055L76.9836 287.119C76.8766 286.797 76.529 286.623 76.2071 286.73Z" fill="#274BA0"/>
<path d="M106.013 263.802C105.83 263.863 105.685 264.007 105.624 264.191L99.979 281.127C99.8719 281.449 100.046 281.796 100.368 281.904C100.551 281.965 100.752 281.936 100.911 281.826L106.207 278.16L111.503 281.826C111.72 281.976 112.009 281.971 112.22 281.813C112.244 281.796 112.266 281.776 112.286 281.756C112.451 281.591 112.509 281.348 112.435 281.127L106.79 264.191C106.683 263.869 106.335 263.695 106.013 263.802Z" fill="#274BA0"/>
<path d="M338.731 133.113C338.548 133.174 338.403 133.318 338.342 133.502L332.697 150.438C332.59 150.76 332.764 151.107 333.086 151.215C333.269 151.276 333.47 151.247 333.629 151.137L338.925 147.471L344.221 151.137C344.438 151.287 344.727 151.282 344.939 151.124C344.962 151.107 344.984 151.087 345.005 151.067C345.169 150.902 345.227 150.659 345.153 150.438L339.508 133.502C339.401 133.18 339.053 133.006 338.731 133.113Z" fill="#274BA0"/>
<path d="M327.267 80.3792C327.084 80.4402 326.94 80.5844 326.878 80.7682L321.233 97.7039C321.126 98.0257 321.3 98.3734 321.622 98.4806C321.805 98.5416 322.006 98.5129 322.165 98.4031L327.461 94.7371L332.757 98.403C332.974 98.5534 333.263 98.5481 333.475 98.39C333.498 98.3725 333.52 98.3534 333.541 98.3327C333.705 98.1682 333.763 97.9247 333.689 97.7039L328.044 80.7682C327.937 80.4463 327.589 80.2722 327.267 80.3792Z" fill="#274BA0"/>
<path d="M377.709 105.6C377.525 105.661 377.381 105.805 377.32 105.989L371.675 122.925C371.567 123.246 371.741 123.594 372.063 123.701C372.246 123.762 372.448 123.734 372.606 123.624L377.902 119.958L383.199 123.624C383.416 123.774 383.704 123.769 383.916 123.611C383.939 123.593 383.961 123.574 383.982 123.553C384.147 123.389 384.204 123.145 384.13 122.925L378.485 105.989C378.378 105.667 378.031 105.493 377.709 105.6Z" fill="#274BA0"/>
<path d="M390.319 65.476C390.135 65.537 389.991 65.6812 389.93 65.865L384.285 82.8007C384.178 83.1225 384.352 83.4702 384.674 83.5774C384.857 83.6384 385.058 83.6097 385.217 83.4999L390.513 79.8339L395.809 83.4999C396.026 83.6502 396.315 83.6449 396.526 83.4868C396.55 83.4693 396.572 83.4502 396.592 83.4295C396.757 83.265 396.814 83.0215 396.741 82.8007L391.096 65.865C390.989 65.5431 390.641 65.369 390.319 65.476Z" fill="#274BA0"/>
</svg>
