<svg width="541" height="447" viewBox="0 0 541 447" fill="none" xmlns="http://www.w3.org/2000/svg">
<path d="M155.939 363.851C142.168 359.839 126.88 365.358 123.233 368.437C118.643 365.571 120.938 359.839 118.643 355.253C108.978 351.993 99.4669 359.114 94.5434 359.839C89.6199 360.563 95.4017 381.873 93.3958 384.771C91.39 387.668 87.525 384.227 86.978 387.125C86.4309 390.022 83.8724 403.309 80.7724 408.56C77.6725 413.812 76.7663 411.21 75.8545 416.462C74.9427 421.714 72.5722 428.957 72.7545 432.036C72.9369 435.115 69.2899 433.666 68.7428 435.115C68.1958 436.563 68.7428 439.823 69.6546 441.996C70.5033 444.019 66.4534 443.217 62.6534 445.142C62.8748 445.38 62.6543 445.551 61.8135 445.618C62.0907 445.443 62.3714 445.285 62.6534 445.142C61.6747 444.091 52.0569 441.748 49.2312 441.453C45.7666 441.091 46.1313 438.012 48.5018 434.39C50.8724 430.768 53.0606 423.162 49.7783 420.084C46.496 417.005 42.4843 411.572 38.1078 412.478C33.7314 413.383 32.0902 414.832 29.355 418.635C26.6197 422.438 23.8844 427.509 20.4198 426.603C16.9551 425.698 18.5963 419.178 18.7786 415.013C18.961 410.848 23.7021 409.399 25.1609 407.77C26.6197 406.14 29.7197 401.069 30.8138 395.093C31.9079 389.117 34.6432 385.314 36.8314 384.771C39.0196 384.227 39.0196 382.779 38.4725 380.787C37.9255 378.795 38.8372 370.464 41.0255 365.031C43.2137 359.599 43.5784 357.425 42.6666 351.63C49.596 349.838 39.7804 335.16 46.345 338.057C46.345 342.07 47.5901 347.664 48.5018 348.371C49.4136 349.076 53.9112 342.161 56.0994 340.35C58.2877 338.539 56.0994 330.033 63.5587 327.167C68.0343 325.447 70.4709 326.715 71.018 325.447C75.0345 312.263 69.5324 310.486 70.4442 305.958C71.3559 301.431 51.5359 312.114 52.0829 309.397C52.63 306.681 52.1364 303.546 53.2305 301.373L54.9519 297.933C54.9519 297.933 54.0575 270.58 61.8373 262.968C58.3129 256.811 59.0169 244.544 56.3429 238.749C58.3946 222.845 41.2092 202.179 36.5906 200.49C31.972 198.801 26.7422 235.61 25.8903 238.749C25.0384 241.887 22.3644 246.112 18.8384 246.474C15.3139 246.836 13.9777 247.804 14.3424 241.285C14.7071 234.765 16.8938 231.143 15.5561 227.159C14.2198 223.175 10.4503 221.002 10.5728 217.38C10.6953 213.758 11.6669 208.808 17.3796 205.79C23.0952 202.771 22.7305 198.545 22.9727 195.527C23.2148 192.51 25.6481 183.575 19.0835 184.299C12.5189 185.024 12.0316 183.937 11.9091 178.988C10.0856 176.793 7.53265 172.059 11.9091 170.684C17.3796 168.964 30.2789 166.671 27.9837 137.438C25.6885 108.205 54.9518 112.791 72.1656 77.2526C89.3793 41.7143 15.3139 123.682 22.9727 140.877C16.9925 141.833 5.8354 135.145 9.04863 100.754C1.15328 74.0045 -8.73884 28.5308 21.8786 7.32252C26.8956 3.8473 44.0498 22.7988 46.9188 15.3472C74.7604 -4.71467 90.6654 1.83139 97.4123 2.73686C114.878 5.08077 135.808 33.1762 138.725 34.2628C141.643 35.3493 158.234 38.2751 167.395 33.1164C169.036 36.9194 239.138 6.74933 231.105 64.0691C236.843 33.1163 247.605 107.749 248.893 109.352C252.909 111.453 266.107 120.816 270.697 132.279C273.533 139.361 273.595 145.349 272.777 149.568C277.417 140.579 289.411 129.663 313.731 132.279C314.305 118.714 318.322 91.0093 329.797 88.7165C341.273 86.4237 350.263 95.7859 353.323 100.754C362.312 94.8306 375.815 78.2843 357.913 59.4834C365.755 45.7267 384.537 26.4672 396.931 59.4834C412.423 100.754 453.736 66.3619 476.688 136.865C481.852 140.304 492.754 145.119 495.049 136.865C497.918 126.548 521.443 125.401 529.476 140.304C537.509 155.207 563.33 225.138 484.721 190.172C483.956 176.798 479.786 151.08 469.228 155.207C456.031 160.366 464.064 194.758 437.67 190.172C431.741 202.401 370.624 216.71 344 213.5C317.376 210.29 266 162.5 266 162.5C266 162.5 242 155.207 224.22 205.076C221.16 219.597 211.826 251.504 198.973 262.968C199.338 270.937 199.053 274.58 200.695 280.738C202.336 286.895 198.689 282.818 200.695 285.896C202.7 288.975 208.438 296.031 206.432 299.653C204.427 303.275 204.711 307.949 204.711 309.397C204.711 310.846 198.737 328.403 197.826 330.033C196.914 331.662 196.041 336.918 186.924 339.204C187.288 341.558 177.035 348.435 174.3 349.521C171.565 350.608 161.045 359.324 155.939 363.851Z" fill="#E4ECFF"/>
<path d="M62.6534 445.142C61.6747 444.091 52.0569 441.748 49.2312 441.453C45.7666 441.091 46.1313 438.012 48.5018 434.39C50.8724 430.768 53.0606 423.162 49.7783 420.084C46.496 417.005 42.4843 411.572 38.1078 412.478C33.7314 413.383 32.0902 414.832 29.355 418.635C26.6197 422.438 23.8844 427.509 20.4198 426.603C16.9551 425.698 18.5963 419.178 18.7786 415.013C18.961 410.848 23.7021 409.399 25.1609 407.77C26.6197 406.14 29.7197 401.069 30.8138 395.093C31.9079 389.117 34.6432 385.314 36.8314 384.771C39.0196 384.227 39.0196 382.779 38.4725 380.787C37.9255 378.795 38.8372 370.464 41.0255 365.031C43.2137 359.599 43.5784 357.425 42.6666 351.63C49.596 349.838 39.7804 335.16 46.345 338.057C46.345 342.07 47.5901 347.664 48.5018 348.371C49.4136 349.076 53.9112 342.161 56.0994 340.35C58.2877 338.539 56.0994 330.032 63.5587 327.167C68.0343 325.447 70.4709 326.715 71.018 325.447C75.0345 312.263 69.5324 310.486 70.4442 305.958C71.3559 301.431 51.5359 312.114 52.0829 309.397C52.63 306.681 52.1364 303.546 53.2305 301.373L54.9519 297.933C54.9519 297.933 54.0575 270.58 61.8373 262.968C58.3129 256.811 59.0169 244.544 56.3429 238.749C58.3946 222.845 41.2092 202.179 36.5906 200.49C31.972 198.801 26.7422 235.61 25.8903 238.749C25.0384 241.887 22.3644 246.112 18.8384 246.474C15.3139 246.836 13.9777 247.804 14.3424 241.285C14.7071 234.765 16.8938 231.143 15.5561 227.159C14.2198 223.175 10.4503 221.002 10.5728 217.38C10.6953 213.758 11.6669 208.808 17.3796 205.79C23.0952 202.771 22.7305 198.545 22.9727 195.527C23.2148 192.51 25.6481 183.575 19.0835 184.299C12.5189 185.024 12.0316 183.937 11.9091 178.988C10.0856 176.793 7.53265 172.059 11.9091 170.684C17.3796 168.964 30.2789 166.671 27.9837 137.438C25.6885 108.205 54.9518 112.791 72.1656 77.2526C89.3793 41.7143 15.3139 123.682 22.9727 140.877C16.9925 141.833 5.8354 135.145 9.04863 100.754C1.15328 74.0045 -8.73884 28.5308 21.8786 7.32252C26.8956 3.8473 44.0498 22.7988 46.9188 15.3472C74.7604 -4.71467 90.6654 1.83139 97.4123 2.73686C114.878 5.08077 135.808 33.1762 138.725 34.2628C141.643 35.3493 158.234 38.2751 167.395 33.1164C169.036 36.9194 239.138 6.74933 231.105 64.0691C236.843 33.1163 247.605 107.749 248.893 109.352C252.909 111.453 266.107 120.816 270.697 132.279C273.533 139.361 273.595 145.349 272.777 149.568M62.6534 445.142C62.8748 445.38 62.6543 445.551 61.8135 445.618C62.0907 445.443 62.3714 445.285 62.6534 445.142ZM62.6534 445.142C66.4534 443.217 70.5033 444.019 69.6546 441.996C68.7428 439.823 68.1958 436.563 68.7428 435.115C69.2899 433.666 72.9369 435.115 72.7545 432.036C72.5722 428.957 74.9427 421.714 75.8545 416.462C76.7663 411.21 77.6725 413.812 80.7724 408.56C83.8724 403.309 86.4309 390.022 86.978 387.125C87.525 384.227 91.39 387.668 93.3958 384.771C95.4017 381.873 89.6199 360.563 94.5434 359.839C99.4669 359.114 108.978 351.993 118.643 355.253C120.938 359.839 118.643 365.571 123.233 368.437C126.88 365.358 142.168 359.839 155.939 363.851C161.045 359.324 171.565 350.608 174.3 349.521C177.035 348.435 187.288 341.558 186.924 339.204C196.041 336.918 196.914 331.662 197.826 330.033C198.737 328.403 204.711 310.846 204.711 309.397C204.711 307.949 204.427 303.275 206.432 299.653C208.438 296.031 202.7 288.975 200.695 285.896C198.689 282.818 202.336 286.895 200.695 280.738C199.053 274.58 199.338 270.937 198.973 262.968C211.826 251.504 221.16 219.597 224.22 205.076C242 155.207 266 162.5 266 162.5C266 162.5 317.376 210.29 344 213.5C370.624 216.71 431.741 202.401 437.67 190.172C464.064 194.758 456.031 160.366 469.228 155.207C479.786 151.08 483.956 176.798 484.721 190.172C563.33 225.138 537.509 155.207 529.476 140.304C521.443 125.401 497.918 126.548 495.049 136.865C492.754 145.119 481.852 140.304 476.688 136.865C453.736 66.3619 412.423 100.754 396.931 59.4834C384.537 26.4672 365.755 45.7267 357.913 59.4834C375.815 78.2843 362.312 94.8306 353.323 100.754C350.263 95.7859 341.273 86.4237 329.797 88.7165C318.322 91.0093 314.305 118.714 313.731 132.279C289.411 129.663 277.417 140.579 272.777 149.568M272.777 149.568C272.271 152.179 271.428 154.112 270.697 155.207C271.051 153.547 271.725 151.607 272.777 149.568Z" stroke="#274BA0"/>
<g opacity="0.75">
<path d="M84.2596 318.379C84.7427 318.498 85.1245 318.762 85.405 319.17C85.6933 319.57 85.8374 320.03 85.8374 320.549C85.8374 321.315 85.5959 321.915 85.1128 322.349C84.6297 322.783 83.9518 323 83.0791 323H79V314H82.9505C83.7921 314 84.4505 314.204 84.9258 314.613C85.4089 315.021 85.6504 315.596 85.6504 316.336C85.6504 316.864 85.5219 317.306 85.2647 317.664C85.0154 318.013 84.6803 318.251 84.2596 318.379ZM81.2908 317.574H82.4479C83.0245 317.574 83.3128 317.315 83.3128 316.796C83.3128 316.26 83.0245 315.991 82.4479 315.991H81.2908V317.574ZM82.6233 320.983C83.1999 320.983 83.4882 320.719 83.4882 320.191C83.4882 319.919 83.4102 319.711 83.2544 319.566C83.1064 319.421 82.8921 319.349 82.6116 319.349H81.2908V320.983H82.6233Z" fill="#274BA0"/>
<path d="M92.0542 321.532H89.1323L88.6881 323H86.2804L89.2842 314H91.9257L94.9178 323H92.4984L92.0542 321.532ZM91.4815 319.617L90.5932 316.706L89.7167 319.617H91.4815Z" fill="#274BA0"/>
<path d="M103.297 323H101.006L97.9553 317.97V323H95.6644V314H97.9553L101.006 319.094V314H103.297V323Z" fill="#274BA0"/>
<path d="M107.863 314C108.727 314 109.483 314.191 110.13 314.574C110.785 314.949 111.287 315.477 111.638 316.157C111.988 316.838 112.164 317.617 112.164 318.494C112.164 319.362 111.984 320.136 111.626 320.817C111.275 321.498 110.773 322.034 110.118 322.426C109.472 322.809 108.72 323 107.863 323H104.602V314H107.863ZM107.687 320.791C108.357 320.791 108.883 320.591 109.265 320.191C109.647 319.791 109.838 319.226 109.838 318.494C109.838 317.753 109.647 317.183 109.265 316.783C108.883 316.374 108.357 316.17 107.687 316.17H106.892V320.791H107.687Z" fill="#274BA0"/>
<path d="M117.369 323L115.733 319.681H115.487V323H113.196V314H116.808C117.47 314 118.031 314.128 118.491 314.383C118.951 314.63 119.297 314.974 119.531 315.417C119.765 315.851 119.882 316.34 119.882 316.885C119.882 317.498 119.726 318.038 119.414 318.506C119.11 318.966 118.662 319.294 118.07 319.489L119.929 323H117.369ZM115.487 317.97H116.621C116.933 317.97 117.166 317.889 117.322 317.728C117.478 317.566 117.556 317.332 117.556 317.026C117.556 316.736 117.474 316.511 117.311 316.349C117.155 316.179 116.925 316.094 116.621 316.094H115.487V317.97Z" fill="#274BA0"/>
<path d="M126.136 321.532H123.214L122.77 323H120.363L123.366 314H126.008L129 323H126.581L126.136 321.532ZM125.564 319.617L124.675 316.706L123.799 319.617H125.564Z" fill="#274BA0"/>
<path d="M423.19 120L420.969 116.932V120H419V113H420.969V116.018L423.17 113H425.44L422.838 116.396L425.571 120H423.19Z" fill="#274BA0"/>
<path d="M430.771 118.858H428.259L427.878 120H425.808L428.39 113H430.661L433.233 120H431.153L430.771 118.858ZM430.279 117.369L429.515 115.105L428.762 117.369H430.279Z" fill="#274BA0"/>
<path d="M435.844 118.511H438.044V120H433.875V113H435.844V118.511Z" fill="#274BA0"/>
<path d="M445.25 113L442.758 117.776V120H440.779V117.776L438.287 113H440.538L441.784 115.701L443.03 113H445.25Z" fill="#274BA0"/>
<path d="M450.336 118.858H447.824L447.442 120H445.372L447.955 113H450.225L452.797 120H450.718L450.336 118.858ZM449.843 117.369L449.08 115.105L448.326 117.369H449.843Z" fill="#274BA0"/>
<path d="M460 120H458.031L455.408 116.088V120H453.439V113H455.408L458.031 116.962V113H460V120Z" fill="#274BA0"/>
<path d="M328.125 147.122C328.954 147.122 329.678 147.288 330.298 147.62C330.925 147.944 331.407 148.402 331.743 148.992C332.079 149.582 332.247 150.257 332.247 151.017C332.247 151.769 332.075 152.44 331.732 153.03C331.396 153.621 330.914 154.085 330.287 154.425C329.667 154.757 328.946 154.923 328.125 154.923H325V147.122H328.125ZM327.957 153.008C328.599 153.008 329.103 152.835 329.469 152.488C329.835 152.142 330.018 151.651 330.018 151.017C330.018 150.375 329.835 149.881 329.469 149.534C329.103 149.18 328.599 149.003 327.957 149.003H327.195V153.008H327.957Z" fill="#274BA0"/>
<path d="M337.022 155C336.283 155 335.603 154.83 334.984 154.491C334.364 154.144 333.871 153.669 333.505 153.064C333.147 152.451 332.968 151.762 332.968 150.994C332.968 150.227 333.147 149.541 333.505 148.936C333.871 148.324 334.364 147.848 334.984 147.509C335.603 147.17 336.283 147 337.022 147C337.769 147 338.448 147.17 339.061 147.509C339.68 147.848 340.17 148.324 340.528 148.936C340.886 149.541 341.066 150.227 341.066 150.994C341.066 151.762 340.886 152.451 340.528 153.064C340.17 153.669 339.68 154.144 339.061 154.491C338.441 154.83 337.761 155 337.022 155ZM337.022 152.986C337.582 152.986 338.023 152.805 338.344 152.444C338.672 152.083 338.837 151.599 338.837 150.994C338.837 150.375 338.672 149.888 338.344 149.534C338.023 149.172 337.582 148.992 337.022 148.992C336.455 148.992 336.01 149.172 335.689 149.534C335.368 149.888 335.208 150.375 335.208 150.994C335.208 151.607 335.368 152.094 335.689 152.455C336.01 152.809 336.455 152.986 337.022 152.986Z" fill="#274BA0"/>
<path d="M351.271 147.122V154.923H349.075V150.618L347.586 154.923H345.749L344.248 150.585V154.923H342.052V147.122H344.707L346.689 152.189L348.627 147.122H351.271Z" fill="#274BA0"/>
<path d="M357.56 150.917C358.023 151.02 358.389 151.249 358.658 151.603C358.934 151.95 359.073 152.348 359.073 152.798C359.073 153.462 358.841 153.982 358.378 154.358C357.915 154.734 357.265 154.923 356.429 154.923H352.52V147.122H356.306C357.112 147.122 357.743 147.299 358.199 147.653C358.662 148.007 358.893 148.505 358.893 149.147C358.893 149.604 358.77 149.988 358.524 150.297C358.285 150.6 357.964 150.806 357.56 150.917ZM354.715 150.22H355.824C356.377 150.22 356.653 149.995 356.653 149.545C356.653 149.08 356.377 148.848 355.824 148.848H354.715V150.22ZM355.992 153.174C356.545 153.174 356.821 152.946 356.821 152.488C356.821 152.252 356.747 152.071 356.597 151.946C356.455 151.821 356.25 151.758 355.981 151.758H354.715V153.174H355.992Z" fill="#274BA0"/>
<path d="M362.23 147.122V154.923H360.035V147.122H362.23Z" fill="#274BA0"/>
<path d="M371.164 147.122L368.442 154.923H365.631L362.898 147.122H365.25L367.042 152.754L368.823 147.122H371.164Z" fill="#274BA0"/>
<path d="M376.843 153.65H374.043L373.617 154.923H371.31L374.189 147.122H376.72L379.587 154.923H377.269L376.843 153.65ZM376.294 151.99L375.443 149.467L374.603 151.99H376.294Z" fill="#274BA0"/>
<path d="M382.498 153.263H384.951V154.923H380.303V147.122H382.498V153.263Z" fill="#274BA0"/>
<path d="M388 147.122V154.923H385.805V147.122H388Z" fill="#274BA0"/>
<path d="M140.882 217.695H137.905L137.453 219H135L138.06 211H140.751L143.8 219H141.335L140.882 217.695ZM140.299 215.993L139.394 213.406L138.501 215.993H140.299Z" fill="#274BA0"/>
<path d="M152.336 219H150.002L146.894 214.529V219H144.56V211H146.894L150.002 215.528V211H152.336V219Z" fill="#274BA0"/>
<path d="M156.987 211C157.868 211 158.638 211.17 159.297 211.511C159.964 211.843 160.476 212.313 160.833 212.918C161.191 213.523 161.369 214.215 161.369 214.994C161.369 215.766 161.187 216.454 160.821 217.06C160.464 217.665 159.952 218.141 159.285 218.489C158.627 218.83 157.861 219 156.987 219H153.665V211H156.987ZM156.809 217.037C157.491 217.037 158.027 216.859 158.416 216.504C158.805 216.148 159 215.645 159 214.994C159 214.336 158.805 213.829 158.416 213.474C158.027 213.111 157.491 212.929 156.809 212.929H155.999V217.037H156.809Z" fill="#274BA0"/>
<path d="M169.935 211V219H167.601V215.789H164.755V219H162.421V211H164.755V214.007H167.601V211H169.935Z" fill="#274BA0"/>
<path d="M173.604 212.782V214.087H176.283V215.777H173.604V217.218H176.641V219H171.27V211H176.641V212.782H173.604Z" fill="#274BA0"/>
<path d="M182.045 219L180.378 216.05H180.128V219H177.794V211H181.473C182.148 211 182.719 211.113 183.188 211.34C183.656 211.56 184.009 211.866 184.248 212.26C184.486 212.645 184.605 213.08 184.605 213.565C184.605 214.109 184.446 214.59 184.129 215.006C183.819 215.414 183.362 215.705 182.759 215.879L184.652 219H182.045ZM180.128 214.529H181.283C181.6 214.529 181.838 214.457 181.997 214.313C182.156 214.17 182.235 213.962 182.235 213.689C182.235 213.432 182.152 213.232 181.985 213.088C181.826 212.937 181.592 212.861 181.283 212.861H180.128V214.529Z" fill="#274BA0"/>
<path d="M188 211V219H185.666V211H188Z" fill="#274BA0"/>
<path d="M118.262 68.1483L122.323 83.987L117.974 85.1299L115.733 76.3906L115.023 85.9055L111.383 86.8619L106.152 78.8366L108.41 87.6433L104.061 88.7863L100 72.9476L105.259 71.5655L111.825 80.8229L113.026 69.5245L118.262 68.1483Z" fill="#274BA0"/>
<path d="M130.039 66.2248L131.29 75.6332C131.406 76.5073 131.692 77.1553 132.149 77.577C132.621 77.9967 133.267 78.1509 134.084 78.0394C134.902 77.928 135.484 77.6067 135.83 77.0756C136.189 76.5271 136.311 75.8235 136.197 74.9647L134.947 65.5563L139.4 64.9496L140.65 74.358C140.848 75.8456 140.707 77.1608 140.226 78.3035C139.744 79.4309 139.001 80.3363 137.997 81.0195C137.006 81.6853 135.859 82.107 134.556 82.2844C133.253 82.4619 132.052 82.3601 130.953 81.979C129.867 81.5805 128.959 80.9 128.23 79.9377C127.516 78.9733 127.059 77.7396 126.859 76.2367L125.609 66.8283L130.039 66.2248Z" fill="#274BA0"/>
<path d="M165.326 64L165.545 80.362L161.052 80.4236L160.931 71.3954L158.003 80.4653L154.244 80.5168L151.051 71.4611L151.172 80.5589L146.679 80.6204L146.461 64.2583L151.893 64.1839L156.093 74.7579L159.917 64.0741L165.326 64Z" fill="#274BA0"/>
<path d="M182.25 73.5182C183.17 73.8344 183.865 74.391 184.335 75.1882C184.822 75.9715 185.017 76.8326 184.919 77.7712C184.775 79.1562 184.19 80.1907 183.166 80.8748C182.142 81.5588 180.779 81.8099 179.076 81.6279L171.12 80.7774L172.817 64.5043L180.523 65.328C182.164 65.5035 183.41 66.0101 184.26 66.8478C185.125 67.6872 185.488 68.7763 185.349 70.1151C185.249 71.0691 184.915 71.8425 184.346 72.4352C183.794 73.0141 183.095 73.3751 182.25 73.5182ZM176.611 71.445L178.868 71.6863C179.993 71.8065 180.604 71.3973 180.702 70.4586C180.803 69.4891 180.292 68.9443 179.167 68.8241L176.91 68.5828L176.611 71.445ZM178.568 77.8858C179.692 78.0061 180.304 77.5892 180.404 76.6351C180.455 76.1427 180.343 75.7494 180.066 75.4553C179.804 75.1628 179.4 74.9874 178.853 74.9289L176.277 74.6535L175.969 77.608L178.568 77.8858Z" fill="#274BA0"/>
<path d="M199.997 82.5417L194.394 81.3214L192.988 83.7454L188.371 82.7399L197.53 67.9968L202.595 69.1L204.934 86.3472L200.295 85.3367L199.997 82.5417ZM199.622 78.8988L199.018 73.3541L196.238 78.1617L199.622 78.8988Z" fill="#274BA0"/>
<path d="M218 73.3411L213.308 89L209.008 87.6794L213.7 72.0205L218 73.3411Z" fill="#274BA0"/>
<path d="M60.0226 126.54V135H57.6706V130.332L56.0746 135H54.1066L52.4986 130.296V135H50.1466V126.54H52.9906L55.1146 132.036L57.1906 126.54H60.0226Z" fill="#274BA0"/>
<path d="M66.7135 133.62H63.7135L63.2575 135H60.7854L63.8695 126.54H66.5815L69.6535 135H67.1695L66.7135 133.62ZM66.1255 131.82L65.2135 129.084L64.3135 131.82H66.1255Z" fill="#274BA0"/>
<path d="M72.772 133.2H75.4V135H70.42V126.54H72.772V133.2Z" fill="#274BA0"/>
<path d="M81.6666 133.62H78.6666L78.2106 135H75.7386L78.8226 126.54H81.5346L84.6066 135H82.1226L81.6666 133.62ZM81.0786 131.82L80.1666 129.084L79.2666 131.82H81.0786Z" fill="#274BA0"/>
<path d="M88.7212 126.54C89.6092 126.54 90.3852 126.72 91.0492 127.08C91.7212 127.432 92.2372 127.928 92.5972 128.568C92.9572 129.208 93.1372 129.94 93.1372 130.764C93.1372 131.58 92.9532 132.308 92.5852 132.948C92.2252 133.588 91.7092 134.092 91.0372 134.46C90.3732 134.82 89.6012 135 88.7212 135H85.3732V126.54H88.7212ZM88.5412 132.924C89.2292 132.924 89.7692 132.736 90.1612 132.36C90.5532 131.984 90.7492 131.452 90.7492 130.764C90.7492 130.068 90.5532 129.532 90.1612 129.156C89.7692 128.772 89.2292 128.58 88.5412 128.58H87.7252V132.924H88.5412Z" fill="#274BA0"/>
<path d="M214.06 130.54V132.412H211.804V139H209.452V132.412H207.22V130.54H214.06Z" fill="#274BA0"/>
<path d="M222.502 130.54V139H220.15V135.604H217.282V139H214.93V130.54H217.282V133.72H220.15V130.54H222.502Z" fill="#274BA0"/>
<path d="M229.2 137.62H226.2L225.744 139H223.272L226.356 130.54H229.068L232.14 139H229.656L229.2 137.62ZM228.612 135.82L227.7 133.084L226.8 135.82H228.612Z" fill="#274BA0"/>
<path d="M240.742 139H238.39L235.258 134.272V139H232.906V130.54H235.258L238.39 135.328V130.54H240.742V139Z" fill="#274BA0"/>
<path d="M244.434 132.424V133.804H247.134V135.592H244.434V137.116H247.494V139H242.082V130.54H247.494V132.424H244.434Z" fill="#274BA0"/>
</g>
<rect x="32" y="144" width="20" height="20" rx="10" fill="#274BA0"/>
<circle cx="40.8272" cy="153.888" r="4.15352" fill="white"/>
<circle cx="40.7921" cy="153.916" r="3.17416" fill="#274BA0"/>
<rect x="44.5843" y="147.595" width="1.1236" height="12.3596" fill="white"/>
<rect x="72" y="191" width="20" height="20" rx="10" fill="#274BA0"/>
<circle cx="80.8272" cy="200.888" r="4.15352" fill="white"/>
<circle cx="80.7921" cy="200.916" r="3.17416" fill="#274BA0"/>
<rect x="84.5843" y="194.595" width="1.1236" height="12.3596" fill="white"/>
<rect x="107" y="182" width="20" height="20" rx="10" fill="#274BA0"/>
<circle cx="115.827" cy="191.888" r="4.15352" fill="white"/>
<circle cx="115.792" cy="191.916" r="3.17416" fill="#274BA0"/>
<rect x="119.584" y="185.595" width="1.1236" height="12.3596" fill="white"/>
<rect x="101" y="216" width="20" height="20" rx="10" fill="#087E68"/>
<circle cx="109.827" cy="225.888" r="4.15352" fill="white"/>
<circle cx="109.792" cy="225.916" r="3.17416" fill="#087E68"/>
<rect x="113.584" y="219.595" width="1.1236" height="12.3596" fill="white"/>
<rect x="63" y="232" width="20" height="20" rx="10" fill="#274BA0"/>
<circle cx="71.8272" cy="241.888" r="4.15352" fill="white"/>
<circle cx="71.7921" cy="241.916" r="3.17416" fill="#274BA0"/>
<rect x="75.5843" y="235.595" width="1.1236" height="12.3596" fill="white"/>
<rect x="46" y="269" width="20" height="20" rx="10" fill="#274BA0"/>
<circle cx="54.8271" cy="278.888" r="4.15352" fill="white"/>
<circle cx="54.7921" cy="278.916" r="3.17416" fill="#274BA0"/>
<rect x="58.5843" y="272.595" width="1.1236" height="12.3596" fill="white"/>
<rect x="130" y="272" width="20" height="20" rx="10" fill="#274BA0"/>
<circle cx="138.827" cy="281.888" r="4.15352" fill="white"/>
<circle cx="138.792" cy="281.916" r="3.17416" fill="#274BA0"/>
<rect x="142.584" y="275.595" width="1.1236" height="12.3596" fill="white"/>
<rect x="171" y="232" width="20" height="20" rx="10" fill="#274BA0"/>
<circle cx="179.827" cy="241.888" r="4.15352" fill="white"/>
<circle cx="179.792" cy="241.916" r="3.17416" fill="#274BA0"/>
<rect x="183.584" y="235.595" width="1.1236" height="12.3596" fill="white"/>
<rect x="99" y="248" width="20" height="20" rx="10" fill="#274BA0"/>
<circle cx="107.827" cy="257.888" r="4.15352" fill="white"/>
<circle cx="107.792" cy="257.916" r="3.17416" fill="#274BA0"/>
<rect x="111.584" y="251.595" width="1.1236" height="12.3596" fill="white"/>
<rect x="97" y="281" width="20" height="20" rx="10" fill="#274BA0"/>
<circle cx="105.827" cy="290.888" r="4.15352" fill="white"/>
<circle cx="105.792" cy="290.916" r="3.17416" fill="#274BA0"/>
<rect x="109.584" y="284.595" width="1.1236" height="12.3596" fill="white"/>
<rect x="67" y="270" width="20" height="20" rx="10" fill="#274BA0"/>
<circle cx="75.8272" cy="279.888" r="4.15352" fill="white"/>
<circle cx="75.7921" cy="279.916" r="3.17416" fill="#274BA0"/>
<rect x="79.5843" y="273.595" width="1.1236" height="12.3596" fill="white"/>
<rect x="94" y="152" width="20" height="20" rx="10" fill="#274BA0"/>
<circle cx="102.827" cy="161.888" r="4.15352" fill="white"/>
<circle cx="102.792" cy="161.916" r="3.17416" fill="#274BA0"/>
<rect x="106.584" y="155.595" width="1.1236" height="12.3596" fill="white"/>
<rect x="300" y="128" width="20" height="20" rx="10" fill="#087E68"/>
<circle cx="308.827" cy="137.888" r="4.15352" fill="white"/>
<circle cx="308.792" cy="137.916" r="3.17416" fill="#087E68"/>
<rect x="312.584" y="131.595" width="1.1236" height="12.3596" fill="white"/>
<rect x="380" y="104" width="20" height="20" rx="10" fill="#274BA0"/>
<circle cx="388.827" cy="113.888" r="4.15352" fill="white"/>
<circle cx="388.792" cy="113.916" r="3.17416" fill="#274BA0"/>
<rect x="392.584" y="107.595" width="1.1236" height="12.3596" fill="white"/>
<rect x="314" y="75" width="20" height="20" rx="10" fill="#274BA0"/>
<circle cx="322.827" cy="84.8875" r="4.15352" fill="white"/>
<circle cx="322.792" cy="84.9159" r="3.17416" fill="#274BA0"/>
<rect x="326.584" y="78.5955" width="1.1236" height="12.3596" fill="white"/>
<rect x="376" y="56" width="20" height="20" rx="10" fill="#274BA0"/>
<circle cx="384.827" cy="65.8875" r="4.15352" fill="white"/>
<circle cx="384.792" cy="65.9159" r="3.17416" fill="#274BA0"/>
<rect x="388.584" y="59.5955" width="1.1236" height="12.3596" fill="white"/>
<rect x="311" y="178" width="20" height="20" rx="10" fill="#274BA0"/>
<circle cx="319.827" cy="187.888" r="4.15352" fill="white"/>
<circle cx="319.792" cy="187.916" r="3.17416" fill="#274BA0"/>
<rect x="323.584" y="181.595" width="1.1236" height="12.3596" fill="white"/>
<rect x="348" y="72" width="20" height="20" rx="10" fill="#274BA0"/>
<circle cx="356.827" cy="81.8875" r="4.15352" fill="white"/>
<circle cx="356.792" cy="81.9159" r="3.17416" fill="#274BA0"/>
<rect x="360.584" y="75.5955" width="1.1236" height="12.3596" fill="white"/>
</svg>
