<svg width="168" height="66" viewBox="0 0 168 66" fill="none" xmlns="http://www.w3.org/2000/svg">
<mask id="mask0" mask-type="alpha" maskUnits="userSpaceOnUse" x="0" y="14" width="110" height="52">
<path d="M0 14.1323H109.175V66H0V14.1323Z" fill="#C4C4C4"/>
</mask>
<g mask="url(#mask0)">
<path d="M47.0128 11.2964V13.872H35.7993V65.753H32.9221V47.6499C31.7909 50.4954 29.8974 52.8257 27.2415 54.641C24.6349 56.4071 21.3888 57.29 17.5034 57.29C14.2082 57.29 11.2573 56.6031 8.65058 55.2297C6.09309 53.8068 4.07661 51.7955 2.60116 49.1952C1.17487 46.5949 0.461723 43.5289 0.461723 39.9966C0.461723 36.6604 1.19946 33.7168 2.67493 31.1657C4.19958 28.6146 6.24065 26.6522 8.79813 25.2785C11.4048 23.8557 14.3066 23.1444 17.5034 23.1444C21.3888 23.1444 24.6349 24.052 27.2415 25.8672C29.8974 27.6333 31.7909 29.9392 32.9221 32.7846V13.872H-7.8009V11.2964H47.0128ZM18.0199 54.7879C21.3151 54.7879 24.0693 54.0768 26.2825 52.6539C28.5449 51.1823 30.2171 49.3425 31.2991 47.1349C32.3811 44.8778 32.9221 42.6211 32.9221 40.3644V40.2907C32.9221 37.8377 32.3811 35.5075 31.2991 33.2998C30.2663 31.043 28.6187 29.2033 26.3563 27.7805C24.143 26.3578 21.3642 25.6464 18.0199 25.6464C15.364 25.6464 12.9049 26.2351 10.6425 27.4126C8.42926 28.59 6.65872 30.2826 5.33077 32.4903C4.05203 34.6489 3.41267 37.1755 3.41267 40.0702C3.41267 43.1116 4.05203 45.7365 5.33077 47.9441C6.60951 50.1517 8.35551 51.8442 10.5687 53.0217C12.7819 54.1991 15.2656 54.7879 18.0199 54.7879Z" fill="black"/>
<path d="M46.0328 65.7528V13.8718H34.8928V11.2961H60.1972V13.8718H49.0575V65.7528H46.0328Z" fill="black"/>
<path d="M103.744 13.8718H92.6356V65.7528H89.6198V48.5326C88.3447 51.2798 86.383 53.4878 83.7347 55.1558C81.0864 56.8238 78.0947 57.658 74.7602 57.658C71.8176 57.658 69.1202 57.0692 66.6683 55.8918C64.2651 54.6653 62.3525 52.9236 60.9305 50.6666C59.5082 48.3608 58.797 45.6626 58.797 42.5717C58.797 39.3831 59.5818 36.5865 61.1511 34.1826C62.7204 31.7787 64.9026 29.988 67.6983 28.8105H51.7351V26.3085H78.1438V28.8105H75.8634C72.97 28.8105 70.4444 29.3993 68.2867 30.5767C66.1777 31.7542 64.5351 33.3731 63.3579 35.4336C62.2301 37.4451 61.6659 39.7018 61.6659 42.2039C61.6659 44.9021 62.2792 47.2324 63.5052 49.195C64.7312 51.1084 66.3741 52.58 68.4336 53.6102C70.5426 54.5916 72.823 55.0822 75.275 55.0822C77.9724 55.0822 80.3998 54.4444 82.5578 53.1687C84.7646 51.844 86.4808 50.1024 87.7072 47.9439C88.9822 45.7363 89.6198 43.3568 89.6198 40.8056V13.8718H45.7767V11.2961H103.744V13.8718Z" fill="black"/>
<path d="M102.76 65.7528V13.8718H91.6526V11.2961H116.884V13.8718H105.776V65.7528H102.76Z" fill="black"/>
</g>
<path d="M35.8006 0H32.918V14.5042H35.8006V0Z" fill="black"/>
<path d="M49.0608 0H46.048V14.5042H49.0608V0Z" fill="black"/>
<path d="M92.6353 0H89.6224V14.5042H92.6353V0Z" fill="black"/>
<path d="M105.784 0H102.771V14.5042H105.784V0Z" fill="black"/>
<path d="M41.0774 13.3109L43.4337 6.15905H45.9414L42.4912 15.4817H39.63L36.1967 6.15905H38.7212L41.0774 13.3109Z" fill="#1E5699"/>
<path d="M57.7072 14.1523C57.4491 14.5786 57.0283 14.9376 56.4449 15.2293C55.8614 15.5098 55.2331 15.65 54.5599 15.65C53.9764 15.65 53.4491 15.5322 52.9778 15.2966C52.5066 15.061 52.1363 14.7357 51.867 14.3206C51.5978 13.9055 51.4631 13.4287 51.4631 12.8902C51.4631 12.0264 51.7829 11.3196 52.4224 10.7699C53.0732 10.2202 54.0438 9.94533 55.3341 9.94533H57.7072C57.6847 9.35074 57.5108 8.87956 57.1854 8.53178C56.8713 8.17279 56.4337 7.99329 55.8727 7.99329C55.379 7.99329 54.9694 8.12791 54.644 8.39716C54.3187 8.65519 54.1111 9.01979 54.0213 9.49098H51.6651C51.7773 8.81786 52.0185 8.21766 52.3888 7.69039C52.7703 7.15189 53.264 6.73681 53.8698 6.44512C54.487 6.14222 55.177 5.99077 55.94 5.99077C56.7254 5.99077 57.4323 6.15344 58.0606 6.47878C58.7001 6.80412 59.1994 7.26969 59.5585 7.87549C59.9175 8.4813 60.0971 9.19368 60.0971 10.0126V15.4817H57.7072V14.1523ZM55.2499 13.7484C55.6426 13.7484 56.0241 13.6643 56.3944 13.496C56.7759 13.3277 57.09 13.0753 57.3369 12.7388C57.5837 12.4022 57.7072 12.0039 57.7072 11.544V11.4767H55.4687C54.9302 11.4767 54.5262 11.5832 54.2569 11.7964C53.9989 12.0096 53.8698 12.29 53.8698 12.6378C53.8698 12.9744 53.9877 13.2436 54.2233 13.4455C54.4701 13.6475 54.8123 13.7484 55.2499 13.7484Z" fill="#1E5699"/>
<path d="M64.4974 10.8204C64.4974 9.85558 64.6937 9.01418 65.0865 8.29619C65.4792 7.56698 66.0233 7.00605 66.719 6.6134C67.4146 6.20953 68.2113 6.0076 69.1089 6.0076C70.2646 6.0076 71.2183 6.29928 71.97 6.88265C72.733 7.4548 73.2435 8.26254 73.5016 9.30587H70.9602C70.8256 8.902 70.5956 8.58788 70.2702 8.3635C69.956 8.12791 69.5633 8.01012 69.0921 8.01012C68.4188 8.01012 67.8859 8.25693 67.4932 8.75055C67.1005 9.23295 66.9041 9.92289 66.9041 10.8204C66.9041 11.7067 67.1005 12.3966 67.4932 12.8902C67.8859 13.3726 68.4188 13.6138 69.0921 13.6138C70.0458 13.6138 70.6685 13.1875 70.9602 12.3349H73.5016C73.2435 13.3446 72.733 14.1467 71.97 14.7413C71.2071 15.3359 70.2534 15.6332 69.1089 15.6332C68.2113 15.6332 67.4146 15.4368 66.719 15.0442C66.0233 14.6403 65.4792 14.0794 65.0865 13.3614C64.6937 12.6322 64.4974 11.7852 64.4974 10.8204Z" fill="#1E5699"/>
<path d="M84.6637 6.02442C85.3706 6.02442 85.9989 6.18148 86.5487 6.4956C87.0985 6.79851 87.5249 7.25286 87.8278 7.85867C88.142 8.45325 88.299 9.17125 88.299 10.0126V15.4817H85.9428V10.3324C85.9428 9.59194 85.7577 9.0254 85.3874 8.63275C85.0171 8.22888 84.5122 8.02695 83.8727 8.02695C83.2219 8.02695 82.7058 8.22888 82.3243 8.63275C81.954 9.0254 81.7689 9.59194 81.7689 10.3324V15.4817H79.4126V3.02905H81.7689V7.32017C82.0718 6.9163 82.4758 6.60218 82.9807 6.37781C83.4856 6.14222 84.0466 6.02442 84.6637 6.02442Z" fill="#1E5699"/>
<path d="M99.9111 14.1523C99.653 14.5786 99.2323 14.9376 98.6488 15.2293C98.0654 15.5098 97.437 15.65 96.7638 15.65C96.1804 15.65 95.653 15.5322 95.1818 15.2966C94.7105 15.061 94.3403 14.7357 94.071 14.3206C93.8017 13.9055 93.6671 13.4287 93.6671 12.8902C93.6671 12.0264 93.9868 11.3196 94.6264 10.7699C95.2772 10.2202 96.2477 9.94533 97.538 9.94533H99.9111C99.8887 9.35074 99.7147 8.87956 99.3894 8.53178C99.0752 8.17279 98.6376 7.99329 98.0766 7.99329C97.5829 7.99329 97.1734 8.12791 96.848 8.39716C96.5226 8.65519 96.315 9.01979 96.2253 9.49098H93.869C93.9812 8.81786 94.2225 8.21766 94.5927 7.69039C94.9742 7.15189 95.4679 6.73681 96.0738 6.44512C96.6909 6.14222 97.3809 5.99077 98.1439 5.99077C98.9293 5.99077 99.6362 6.15344 100.265 6.47878C100.904 6.80412 101.403 7.26969 101.762 7.87549C102.121 8.4813 102.301 9.19368 102.301 10.0126V15.4817H99.9111V14.1523ZM97.4539 13.7484C97.8466 13.7484 98.2281 13.6643 98.5983 13.496C98.9798 13.3277 99.294 13.0753 99.5408 12.7388C99.7877 12.4022 99.9111 12.0039 99.9111 11.544V11.4767H97.6727C97.1341 11.4767 96.7302 11.5832 96.4609 11.7964C96.2028 12.0096 96.0738 12.29 96.0738 12.6378C96.0738 12.9744 96.1916 13.2436 96.4272 13.4455C96.6741 13.6475 97.0163 13.7484 97.4539 13.7484Z" fill="#1E5699"/>
<path d="M120.51 24.2321L118.696 21.0281H117.918V24.2321H116.269V16.01H119.355C119.992 16.01 120.534 16.1239 120.981 16.3516C121.429 16.5715 121.763 16.8738 121.983 17.2586C122.21 17.6356 122.324 18.0596 122.324 18.5308C122.324 19.0727 122.167 19.5635 121.853 20.0033C121.539 20.4352 121.072 20.7336 120.451 20.8985L122.419 24.2321H120.51ZM117.918 19.7912H119.296C119.744 19.7912 120.078 19.6852 120.298 19.4732C120.518 19.2533 120.628 18.951 120.628 18.5662C120.628 18.1892 120.518 17.8987 120.298 17.6945C120.078 17.4825 119.744 17.3764 119.296 17.3764H117.918V19.7912Z" fill="#1E5999"/>
<path d="M129.412 20.8278C129.412 21.0634 129.396 21.2755 129.365 21.4639H124.594C124.633 21.9351 124.798 22.3042 125.088 22.5712C125.379 22.8382 125.736 22.9717 126.161 22.9717C126.773 22.9717 127.209 22.7086 127.468 22.1825H129.247C129.059 22.8107 128.697 23.329 128.163 23.7374C127.629 24.1379 126.973 24.3381 126.196 24.3381C125.568 24.3381 125.002 24.2007 124.499 23.9259C124.005 23.6432 123.616 23.2466 123.333 22.7361C123.058 22.2257 122.921 21.6367 122.921 20.9692C122.921 20.2938 123.058 19.7009 123.333 19.1905C123.608 18.68 123.993 18.2874 124.488 18.0125C124.982 17.7377 125.552 17.6002 126.196 17.6002C126.816 17.6002 127.37 17.7337 127.857 18.0008C128.352 18.2678 128.733 18.6486 129 19.1434C129.275 19.6303 129.412 20.1917 129.412 20.8278ZM127.704 20.3567C127.696 19.9326 127.543 19.5949 127.244 19.3436C126.946 19.0845 126.581 18.9549 126.149 18.9549C125.74 18.9549 125.395 19.0805 125.112 19.3318C124.837 19.5753 124.668 19.9169 124.605 20.3567H127.704Z" fill="#1E5999"/>
<path d="M132.642 24.3381C132.108 24.3381 131.629 24.2439 131.205 24.0554C130.781 23.8591 130.443 23.596 130.192 23.2662C129.948 22.9364 129.815 22.5712 129.791 22.1707H131.452C131.484 22.422 131.606 22.6301 131.818 22.795C132.038 22.9599 132.309 23.0424 132.631 23.0424C132.945 23.0424 133.188 22.9796 133.361 22.8539C133.542 22.7283 133.632 22.5673 133.632 22.371C133.632 22.1589 133.522 22.0019 133.302 21.8998C133.09 21.7898 132.748 21.672 132.277 21.5464C131.79 21.4286 131.39 21.3069 131.075 21.1812C130.769 21.0556 130.502 20.8632 130.274 20.604C130.054 20.3449 129.944 19.9954 129.944 19.5557C129.944 19.1944 130.047 18.8646 130.251 18.5662C130.463 18.2678 130.761 18.0322 131.146 17.8594C131.539 17.6866 131.998 17.6002 132.525 17.6002C133.302 17.6002 133.923 17.7966 134.386 18.1892C134.849 18.574 135.105 19.0962 135.152 19.7559H133.573C133.55 19.4968 133.44 19.2926 133.243 19.1434C133.055 18.9863 132.799 18.9078 132.477 18.9078C132.179 18.9078 131.947 18.9627 131.782 19.0727C131.625 19.1826 131.547 19.3358 131.547 19.5321C131.547 19.752 131.657 19.9208 131.877 20.0386C132.097 20.1486 132.438 20.2624 132.902 20.3802C133.373 20.498 133.762 20.6197 134.068 20.7454C134.374 20.871 134.637 21.0674 134.857 21.3344C135.085 21.5935 135.203 21.939 135.211 22.371C135.211 22.7479 135.105 23.0856 134.893 23.384C134.688 23.6824 134.39 23.918 133.997 24.0908C133.612 24.2557 133.161 24.3381 132.642 24.3381Z" fill="#1E5999"/>
<path d="M138.992 24.3381C138.363 24.3381 137.798 24.2007 137.295 23.9259C136.792 23.6432 136.396 23.2466 136.105 22.7361C135.822 22.2257 135.681 21.6367 135.681 20.9692C135.681 20.3017 135.826 19.7127 136.117 19.2023C136.415 18.6918 136.82 18.2992 137.33 18.0243C137.841 17.7416 138.41 17.6002 139.039 17.6002C139.667 17.6002 140.236 17.7416 140.747 18.0243C141.257 18.2992 141.658 18.6918 141.949 19.2023C142.247 19.7127 142.396 20.3017 142.396 20.9692C142.396 21.6367 142.243 22.2257 141.937 22.7361C141.638 23.2466 141.23 23.6432 140.712 23.9259C140.201 24.2007 139.628 24.3381 138.992 24.3381ZM138.992 22.901C139.29 22.901 139.569 22.8304 139.828 22.689C140.095 22.5398 140.307 22.3199 140.464 22.0294C140.621 21.7388 140.7 21.3854 140.7 20.9692C140.7 20.3488 140.535 19.8737 140.205 19.5439C139.883 19.2062 139.486 19.0374 139.015 19.0374C138.544 19.0374 138.147 19.2062 137.825 19.5439C137.511 19.8737 137.354 20.3488 137.354 20.9692C137.354 21.5896 137.507 22.0686 137.813 22.4063C138.128 22.7361 138.52 22.901 138.992 22.901Z" fill="#1E5999"/>
<path d="M149.296 17.7063V24.2321H147.635V23.4076C147.423 23.6903 147.144 23.9141 146.799 24.079C146.461 24.2361 146.092 24.3146 145.691 24.3146C145.181 24.3146 144.729 24.2086 144.337 23.9965C143.944 23.7767 143.634 23.4586 143.406 23.0424C143.186 22.6183 143.076 22.1157 143.076 21.5346V17.7063H144.725V21.299C144.725 21.8173 144.855 22.2178 145.114 22.5005C145.373 22.7754 145.727 22.9128 146.174 22.9128C146.63 22.9128 146.987 22.7754 147.247 22.5005C147.506 22.2178 147.635 21.8173 147.635 21.299V17.7063H149.296Z" fill="#1E5999"/>
<path d="M152.102 18.7193C152.314 18.3738 152.589 18.1028 152.927 17.9065C153.272 17.7102 153.665 17.612 154.105 17.612V19.3436H153.669C153.151 19.3436 152.758 19.4653 152.491 19.7088C152.232 19.9522 152.102 20.3763 152.102 20.981V24.2321H150.453V17.7063H152.102V18.7193Z" fill="#1E5999"/>
<path d="M154.32 20.9692C154.32 20.2938 154.458 19.7049 154.733 19.2023C155.008 18.6918 155.389 18.2992 155.875 18.0243C156.362 17.7416 156.92 17.6002 157.548 17.6002C158.357 17.6002 159.025 17.8044 159.551 18.2128C160.085 18.6133 160.443 19.1787 160.623 19.909H158.844C158.75 19.6263 158.589 19.4064 158.361 19.2494C158.141 19.0845 157.866 19.002 157.537 19.002C157.065 19.002 156.692 19.1748 156.417 19.5203C156.142 19.858 156.005 20.341 156.005 20.9692C156.005 21.5896 156.142 22.0725 156.417 22.4181C156.692 22.7558 157.065 22.9246 157.537 22.9246C158.204 22.9246 158.64 22.6262 158.844 22.0294H160.623C160.443 22.7361 160.085 23.2976 159.551 23.7138C159.017 24.13 158.35 24.3381 157.548 24.3381C156.92 24.3381 156.362 24.2007 155.875 23.9259C155.389 23.6432 155.008 23.2505 154.733 22.7479C154.458 22.2375 154.32 21.6446 154.32 20.9692Z" fill="#1E5999"/>
<path d="M167.428 20.8278C167.428 21.0634 167.412 21.2755 167.381 21.4639H162.609C162.648 21.9351 162.813 22.3042 163.104 22.5712C163.395 22.8382 163.752 22.9717 164.176 22.9717C164.789 22.9717 165.225 22.7086 165.484 22.1825H167.263C167.074 22.8107 166.713 23.329 166.179 23.7374C165.645 24.1379 164.989 24.3381 164.211 24.3381C163.583 24.3381 163.018 24.2007 162.515 23.9259C162.02 23.6432 161.631 23.2466 161.349 22.7361C161.074 22.2257 160.936 21.6367 160.936 20.9692C160.936 20.2938 161.074 19.7009 161.349 19.1905C161.623 18.68 162.008 18.2874 162.503 18.0125C162.998 17.7377 163.567 17.6002 164.211 17.6002C164.832 17.6002 165.386 17.7337 165.873 18.0008C166.367 18.2678 166.748 18.6486 167.015 19.1434C167.29 19.6303 167.428 20.1917 167.428 20.8278ZM165.719 20.3567C165.712 19.9326 165.558 19.5949 165.26 19.3436C164.961 19.0845 164.596 18.9549 164.164 18.9549C163.756 18.9549 163.41 19.0805 163.128 19.3318C162.853 19.5753 162.684 19.9169 162.621 20.3567H165.719Z" fill="#1E5999"/>
<path d="M115.868 33.2351C115.868 32.4262 116.049 31.7037 116.41 31.0676C116.779 30.4237 117.278 29.925 117.906 29.5716C118.542 29.2104 119.253 29.0298 120.039 29.0298C120.958 29.0298 121.763 29.2654 122.454 29.7365C123.145 30.2077 123.628 30.8595 123.903 31.6919H122.006C121.818 31.2993 121.551 31.0048 121.205 30.8085C120.867 30.6122 120.475 30.514 120.027 30.514C119.548 30.514 119.12 30.6279 118.743 30.8556C118.374 31.0755 118.083 31.3896 117.871 31.798C117.667 32.2063 117.565 32.6854 117.565 33.2351C117.565 33.7769 117.667 34.256 117.871 34.6722C118.083 35.0805 118.374 35.3986 118.743 35.6263C119.12 35.8462 119.548 35.9561 120.027 35.9561C120.475 35.9561 120.867 35.858 121.205 35.6616C121.551 35.4575 121.818 35.1591 122.006 34.7664H123.903C123.628 35.6067 123.145 36.2624 122.454 36.7336C121.771 37.1969 120.965 37.4286 120.039 37.4286C119.253 37.4286 118.542 37.2519 117.906 36.8985C117.278 36.5373 116.779 36.0386 116.41 35.4025C116.049 34.7664 115.868 34.0439 115.868 33.2351Z" fill="#1E5999"/>
<path d="M130.908 33.9536C130.908 34.1892 130.892 34.4012 130.861 34.5897H126.089C126.129 35.0609 126.293 35.43 126.584 35.697C126.875 35.964 127.232 36.0975 127.656 36.0975C128.269 36.0975 128.705 35.8344 128.964 35.3083H130.743C130.554 35.9365 130.193 36.4548 129.659 36.8632C129.125 37.2637 128.469 37.4639 127.692 37.4639C127.063 37.4639 126.498 37.3265 125.995 37.0516C125.5 36.7689 125.111 36.3723 124.829 35.8619C124.554 35.3515 124.416 34.7625 124.416 34.095C124.416 33.4196 124.554 32.8267 124.829 32.3163C125.104 31.8058 125.488 31.4132 125.983 31.1383C126.478 30.8635 127.047 30.726 127.692 30.726C128.312 30.726 128.866 30.8595 129.353 31.1265C129.847 31.3935 130.228 31.7744 130.495 32.2691C130.77 32.756 130.908 33.3175 130.908 33.9536ZM129.2 33.4824C129.192 33.0584 129.039 32.7207 128.74 32.4694C128.442 32.2102 128.076 32.0807 127.644 32.0807C127.236 32.0807 126.89 32.2063 126.608 32.4576C126.333 32.7011 126.164 33.0427 126.101 33.4824H129.2Z" fill="#1E5999"/>
<path d="M135.257 30.7378C136.035 30.7378 136.663 30.9852 137.142 31.4799C137.621 31.9668 137.861 32.65 137.861 33.5296V37.3579H136.212V33.7534C136.212 33.2351 136.082 32.8385 135.823 32.5636C135.564 32.2809 135.21 32.1396 134.762 32.1396C134.307 32.1396 133.946 32.2809 133.679 32.5636C133.419 32.8385 133.29 33.2351 133.29 33.7534V37.3579H131.64V30.832H133.29V31.6448C133.51 31.3621 133.789 31.1422 134.126 30.9852C134.472 30.8203 134.849 30.7378 135.257 30.7378Z" fill="#1E5999"/>
<path d="M140.878 32.1867V35.3436C140.878 35.5635 140.93 35.7245 141.032 35.8266C141.142 35.9208 141.322 35.9679 141.574 35.9679H142.339V37.3579H141.303C139.912 37.3579 139.217 36.6825 139.217 35.3318V32.1867H138.44V30.832H139.217V29.2182H140.878V30.832H142.339V32.1867H140.878Z" fill="#1E5999"/>
<path d="M155.122 33.9536C155.122 34.1892 155.106 34.4012 155.075 34.5897H150.303C150.342 35.0609 150.507 35.43 150.798 35.697C151.089 35.964 151.446 36.0975 151.87 36.0975C152.483 36.0975 152.919 35.8344 153.178 35.3083H154.957C154.768 35.9365 154.407 36.4548 153.873 36.8632C153.339 37.2637 152.683 37.4639 151.905 37.4639C151.277 37.4639 150.712 37.3265 150.209 37.0516C149.714 36.7689 149.325 36.3723 149.043 35.8619C148.768 35.3515 148.63 34.7625 148.63 34.095C148.63 33.4196 148.768 32.8267 149.043 32.3163C149.317 31.8058 149.702 31.4132 150.197 31.1383C150.692 30.8635 151.261 30.726 151.905 30.726C152.526 30.726 153.08 30.8595 153.567 31.1265C154.061 31.3935 154.442 31.7744 154.709 32.2691C154.984 32.756 155.122 33.3175 155.122 33.9536ZM153.413 33.4824C153.406 33.0584 153.252 32.7207 152.954 32.4694C152.656 32.2102 152.29 32.0807 151.858 32.0807C151.45 32.0807 151.104 32.2063 150.822 32.4576C150.547 32.7011 150.378 33.0427 150.315 33.4824H153.413Z" fill="#1E5999"/>
<path d="M145.504 31.8451C145.716 31.4995 145.991 31.2286 146.328 31.0323C146.674 30.836 147.067 30.7378 147.507 30.7378V32.4694H147.071C146.552 32.4694 146.16 32.5911 145.892 32.8346C145.633 33.078 145.504 33.5021 145.504 34.1068V37.3579H143.854V30.832H145.504V31.8451Z" fill="#1E5999"/>
<path d="M121.346 42.2616V43.5926H117.918V45.7012H120.545V47.0087H117.918V50.4837H116.269V42.2616H121.346Z" fill="#1E5999"/>
<path d="M124.943 50.5897C124.315 50.5897 123.749 50.4523 123.246 50.1774C122.744 49.8947 122.347 49.4981 122.057 48.9877C121.774 48.4772 121.632 47.8883 121.632 47.2207C121.632 46.5532 121.778 45.9643 122.068 45.4538C122.367 44.9434 122.771 44.5507 123.282 44.2759C123.792 43.9932 124.362 43.8518 124.99 43.8518C125.618 43.8518 126.188 43.9932 126.698 44.2759C127.209 44.5507 127.609 44.9434 127.9 45.4538C128.198 45.9643 128.348 46.5532 128.348 47.2207C128.348 47.8883 128.195 48.4772 127.888 48.9877C127.59 49.4981 127.181 49.8947 126.663 50.1774C126.152 50.4523 125.579 50.5897 124.943 50.5897ZM124.943 49.1526C125.241 49.1526 125.52 49.0819 125.779 48.9406C126.046 48.7914 126.258 48.5715 126.416 48.2809C126.573 47.9903 126.651 47.637 126.651 47.2207C126.651 46.6004 126.486 46.1252 126.156 45.7954C125.834 45.4577 125.438 45.2889 124.966 45.2889C124.495 45.2889 124.099 45.4577 123.777 45.7954C123.462 46.1252 123.305 46.6004 123.305 47.2207C123.305 47.8411 123.458 48.3202 123.765 48.6578C124.079 48.9877 124.472 49.1526 124.943 49.1526Z" fill="#1E5999"/>
<path d="M130.736 44.9709C130.948 44.6253 131.223 44.3544 131.56 44.1581C131.906 43.9617 132.299 43.8636 132.738 43.8636V45.5952H132.303C131.784 45.5952 131.391 45.7169 131.124 45.9603C130.865 46.2038 130.736 46.6278 130.736 47.2325V50.4837H129.086V43.9578H130.736V44.9709Z" fill="#1E5999"/>
<path d="M141.44 44.7353C141.251 44.3897 140.992 44.1267 140.662 43.946C140.332 43.7654 139.948 43.6751 139.508 43.6751C139.021 43.6751 138.589 43.785 138.212 44.0049C137.835 44.2248 137.54 44.5389 137.328 44.9473C137.116 45.3556 137.01 45.8268 137.01 46.3608C137.01 46.9106 137.116 47.3896 137.328 47.7979C137.548 48.2063 137.85 48.5204 138.235 48.7403C138.62 48.9602 139.068 49.0701 139.578 49.0701C140.207 49.0701 140.721 48.9052 141.122 48.5754C141.522 48.2377 141.785 47.7705 141.911 47.1736H139.084V45.9132H143.537V47.3503C143.427 47.9236 143.191 48.4537 142.83 48.9406C142.469 49.4274 142.001 49.8201 141.428 50.1185C140.863 50.4091 140.226 50.5544 139.519 50.5544C138.726 50.5544 138.008 50.3777 137.364 50.0243C136.727 49.663 136.225 49.1644 135.856 48.5283C135.494 47.8922 135.314 47.1697 135.314 46.3608C135.314 45.552 135.494 44.8295 135.856 44.1934C136.225 43.5495 136.727 43.0508 137.364 42.6974C138.008 42.3362 138.722 42.1555 139.508 42.1555C140.434 42.1555 141.24 42.3833 141.923 42.8388C142.606 43.2864 143.077 43.9185 143.337 44.7353H141.44Z" fill="#1E5999"/>
<path d="M145.122 43.1804C144.832 43.1804 144.588 43.0901 144.392 42.9094C144.203 42.721 144.109 42.4893 144.109 42.2144C144.109 41.9396 144.203 41.7118 144.392 41.5312C144.588 41.3428 144.832 41.2485 145.122 41.2485C145.413 41.2485 145.653 41.3428 145.841 41.5312C146.037 41.7118 146.136 41.9396 146.136 42.2144C146.136 42.4893 146.037 42.721 145.841 42.9094C145.653 43.0901 145.413 43.1804 145.122 43.1804ZM145.935 43.9578V50.4837H144.286V43.9578H145.935Z" fill="#1E5999"/>
<path d="M148.743 44.9709C148.955 44.6253 149.23 44.3544 149.568 44.1581C149.913 43.9617 150.306 43.8636 150.746 43.8636V45.5952H150.31C149.791 45.5952 149.399 45.7169 149.132 45.9603C148.873 46.2038 148.743 46.6278 148.743 47.2325V50.4837H147.094V43.9578H148.743V44.9709Z" fill="#1E5999"/>
<path d="M153.035 41.7668V50.4837H151.385V41.7668H153.035Z" fill="#1E5999"/>
<path d="M156.691 50.5897C156.157 50.5897 155.678 50.4955 155.253 50.307C154.829 50.1107 154.492 49.8476 154.24 49.5178C153.997 49.1879 153.863 48.8228 153.84 48.4223H155.501C155.532 48.6736 155.654 48.8817 155.866 49.0466C156.086 49.2115 156.357 49.2939 156.679 49.2939C156.993 49.2939 157.237 49.2311 157.409 49.1055C157.59 48.9798 157.68 48.8188 157.68 48.6225C157.68 48.4105 157.57 48.2534 157.351 48.1513C157.138 48.0414 156.797 47.9236 156.326 47.7979C155.839 47.6801 155.438 47.5584 155.124 47.4328C154.818 47.3071 154.551 47.1147 154.323 46.8556C154.103 46.5964 153.993 46.247 153.993 45.8072C153.993 45.446 154.095 45.1161 154.299 44.8177C154.511 44.5193 154.81 44.2837 155.195 44.1109C155.587 43.9382 156.047 43.8518 156.573 43.8518C157.35 43.8518 157.971 44.0481 158.434 44.4408C158.898 44.8256 159.153 45.3478 159.2 46.0075H157.621C157.598 45.7483 157.488 45.5441 157.292 45.3949C157.103 45.2379 156.848 45.1593 156.526 45.1593C156.227 45.1593 155.996 45.2143 155.831 45.3242C155.674 45.4342 155.595 45.5873 155.595 45.7836C155.595 46.0035 155.705 46.1724 155.925 46.2902C156.145 46.4001 156.487 46.514 156.95 46.6318C157.421 46.7496 157.81 46.8713 158.116 46.9969C158.423 47.1226 158.686 47.3189 158.906 47.5859C159.133 47.8451 159.251 48.1906 159.259 48.6225C159.259 48.9995 159.153 49.3371 158.941 49.6356C158.737 49.934 158.438 50.1696 158.046 50.3423C157.661 50.5072 157.209 50.5897 156.691 50.5897Z" fill="#1E5999"/>
</svg>
